<svg xmlns="http://www.w3.org/2000/svg" xmlns:xlink="http://www.w3.org/1999/xlink" width="997.483" height="1121.413" viewBox="0 0 997.483 1121.413">
  <defs>
    <filter id="Path_57" x="0" y="0" width="967.798" height="1026.459" filterUnits="userSpaceOnUse">
      <feOffset dx="-50" dy="3" input="SourceAlpha"/>
      <feGaussianBlur stdDeviation="49.5" result="blur"/>
      <feFlood flood-opacity="0.314"/>
      <feComposite operator="in" in2="blur"/>
      <feComposite in="SourceGraphic"/>
    </filter>
  </defs>
  <g id="Group_117" data-name="Group 117" transform="translate(-4031.517 -1067.424)">
    <g id="Group_116" data-name="Group 116" transform="translate(2991.256 1513.692)">
      <g id="Group_56" data-name="Group 56" transform="translate(1161.968 434.099)">
        <path id="Path_15" data-name="Path 15" d="M124.892.215h23.7L118.943,106.2H95.977l19.89-71.1C99.991,49.238,82.821,64.838,67.173,78.678L42.665,35.249,22.817,106.2H0L29.647.215H53.2l23.936,42.84Z" transform="translate(0 0.926)" fill="#040504"/>
        <path id="Path_16" data-name="Path 16" d="M135.3.214c11.92,0,19.068,9.725,15.69,21.794L133.533,84.419c-3.372,12.074-15.956,21.788-27.881,21.788H43.235c-12.069,0-19.068-9.714-15.69-21.788L45.006,22.008C48.379,9.939,60.813.214,72.887.214ZM50.691,83.242h60.063l16.8-60.057H67.489Z" transform="translate(114.862 0.921)" fill="#040504"/>
        <path id="Path_17" data-name="Path 17" d="M164.543.215,158.122,23.18H116.608L93.383,106.2H70.417L93.642,23.18H52.128L58.555.215Z" transform="translate(224.287 0.925)" fill="#040504"/>
        <path id="Path_18" data-name="Path 18" d="M179.36.214c11.92,0,19.068,9.725,15.69,21.794L177.589,84.419c-3.372,12.074-15.955,21.788-27.881,21.788H87.291c-12.069,0-19.068-9.714-15.69-21.788L89.062,22.008C92.435,9.939,104.869.214,116.943.214ZM94.747,83.242h60.062l16.8-60.057H111.545Z" transform="translate(304.417 0.921)" fill="#040504"/>
        <path id="Path_19" data-name="Path 19" d="M214.7,49.116c-2.927,10.451-13.893,19.137-24.493,19.137H179.469l19.917,35.628-.62,2.206h-18.84L158.709,68.253H122.5a20.892,20.892,0,0,1-3.155-.292l-10.669,38.126h-15.9L122.387.242h86.851c10.6,0,16.709,8.686,13.781,19.137Zm-20.044,3.24a4.645,4.645,0,0,0,4.141-3.24l8.32-29.737a2.387,2.387,0,0,0-2.333-3.235H137.075a4.652,4.652,0,0,0-4.147,3.235l-8.314,29.737a2.387,2.387,0,0,0,2.333,3.24Z" transform="translate(399.182 1.042)" fill="#040504"/>
        <path id="Path_20" data-name="Path 20" d="M238.12,16.112H156.864l-8.155,29.148h65.36l-4.444,15.9H144.259l-8.15,29.148h81.257l-4.449,15.9H115.763L145.41.215h97.16Z" transform="translate(498.082 0.926)" fill="#040504"/>
        <path id="Path_21" data-name="Path 21" d="M155.9,105.988H136.916L166.563,0h15.9L158.741,84.788l58.864-52.554,29.461,52.554L270.785,0h15.9L257.036,105.988H238.2l-27.51-49.023Z" transform="translate(589.094 0)" fill="#040504"/>
        <path id="Path_22" data-name="Path 22" d="M124.892,25.47h23.7L118.943,131.458H95.977l19.89-71.1C99.991,74.493,82.821,90.093,67.173,103.933L42.665,60.5,22.817,131.458H0L29.647,25.47H53.2L77.137,68.31Z" transform="translate(0 109.588)" fill="#040504"/>
        <path id="Path_23" data-name="Path 23" d="M135.3,25.469c11.92,0,19.068,9.72,15.69,21.788l-17.461,62.417c-3.372,12.074-15.956,21.788-27.881,21.788H43.235c-12.069,0-19.068-9.714-15.69-21.788L45.006,47.257c3.372-12.069,15.807-21.788,27.881-21.788ZM50.691,108.5h60.063l16.8-60.063H67.489Z" transform="translate(114.862 109.583)" fill="#040504"/>
        <path id="Path_24" data-name="Path 24" d="M164.543,25.47l-6.421,22.966H116.608L93.383,131.458H70.417L93.642,48.435H52.128L58.555,25.47Z" transform="translate(224.287 109.586)" fill="#040504"/>
        <path id="Path_25" data-name="Path 25" d="M179.36,25.469c11.92,0,19.068,9.72,15.69,21.788l-17.461,62.417c-3.372,12.074-15.955,21.788-27.881,21.788H87.291c-12.069,0-19.068-9.714-15.69-21.788L89.062,47.257c3.372-12.069,15.807-21.788,27.881-21.788ZM94.747,108.5h60.062l16.8-60.063H111.545Z" transform="translate(304.417 109.583)" fill="#040504"/>
        <path id="Path_26" data-name="Path 26" d="M214.7,74.371c-2.927,10.451-13.893,19.137-24.493,19.137H179.469l19.917,35.628-.62,2.206h-18.84L158.709,93.508H122.5a20.9,20.9,0,0,1-3.155-.292l-10.669,38.126h-15.9L122.387,25.5h86.851c10.6,0,16.709,8.686,13.781,19.137Zm-20.044,3.24a4.645,4.645,0,0,0,4.141-3.24l8.32-29.737a2.387,2.387,0,0,0-2.333-3.235H137.075a4.652,4.652,0,0,0-4.147,3.235l-8.314,29.737a2.387,2.387,0,0,0,2.333,3.24Z" transform="translate(399.182 109.704)" fill="#040504"/>
        <path id="Path_27" data-name="Path 27" d="M238.12,41.367H156.864l-8.155,29.148h65.36l-4.444,15.9H144.259l-8.15,29.148h81.257l-4.449,15.9H115.763L145.41,25.47h97.16Z" transform="translate(498.082 109.588)" fill="#040504"/>
        <path id="Path_28" data-name="Path 28" d="M155.9,131.243H136.916L166.563,25.255h15.9l-23.718,84.789,58.864-52.554,29.461,52.554,23.719-84.789h15.9L257.036,131.243H238.2L210.685,82.22Z" transform="translate(589.094 108.661)" fill="#040504"/>
      </g>
      <g id="Group_65" data-name="Group 65" transform="translate(1161.968 -353.427)">
        <path id="Path_15-2" data-name="Path 15" d="M124.892.215h23.7L118.943,106.2H95.977l19.89-71.1C99.991,49.238,82.821,64.838,67.173,78.678L42.665,35.249,22.817,106.2H0L29.647.215H53.2l23.936,42.84Z" transform="translate(0 0.926)" fill="#040504"/>
        <path id="Path_16-2" data-name="Path 16" d="M135.3.214c11.92,0,19.068,9.725,15.69,21.794L133.533,84.419c-3.372,12.074-15.956,21.788-27.881,21.788H43.235c-12.069,0-19.068-9.714-15.69-21.788L45.006,22.008C48.379,9.939,60.813.214,72.887.214ZM50.691,83.242h60.063l16.8-60.057H67.489Z" transform="translate(114.862 0.921)" fill="#040504"/>
        <path id="Path_17-2" data-name="Path 17" d="M164.543.215,158.122,23.18H116.608L93.383,106.2H70.417L93.642,23.18H52.128L58.555.215Z" transform="translate(224.287 0.925)" fill="#040504"/>
        <path id="Path_18-2" data-name="Path 18" d="M179.36.214c11.92,0,19.068,9.725,15.69,21.794L177.589,84.419c-3.372,12.074-15.955,21.788-27.881,21.788H87.291c-12.069,0-19.068-9.714-15.69-21.788L89.062,22.008C92.435,9.939,104.869.214,116.943.214ZM94.747,83.242h60.062l16.8-60.057H111.545Z" transform="translate(304.417 0.921)" fill="#040504"/>
        <path id="Path_19-2" data-name="Path 19" d="M214.7,49.116c-2.927,10.451-13.893,19.137-24.493,19.137H179.469l19.917,35.628-.62,2.206h-18.84L158.709,68.253H122.5a20.892,20.892,0,0,1-3.155-.292l-10.669,38.126h-15.9L122.387.242h86.851c10.6,0,16.709,8.686,13.781,19.137Zm-20.044,3.24a4.645,4.645,0,0,0,4.141-3.24l8.32-29.737a2.387,2.387,0,0,0-2.333-3.235H137.075a4.652,4.652,0,0,0-4.147,3.235l-8.314,29.737a2.387,2.387,0,0,0,2.333,3.24Z" transform="translate(399.182 1.042)" fill="#040504"/>
        <path id="Path_20-2" data-name="Path 20" d="M238.12,16.112H156.864l-8.155,29.148h65.36l-4.444,15.9H144.259l-8.15,29.148h81.257l-4.449,15.9H115.763L145.41.215h97.16Z" transform="translate(498.082 0.926)" fill="#040504"/>
        <path id="Path_21-2" data-name="Path 21" d="M155.9,105.988H136.916L166.563,0h15.9L158.741,84.788l58.864-52.554,29.461,52.554L270.785,0h15.9L257.036,105.988H238.2l-27.51-49.023Z" transform="translate(589.094 0)" fill="#040504"/>
        <path id="Path_22-2" data-name="Path 22" d="M124.892,25.47h23.7L118.943,131.458H95.977l19.89-71.1C99.991,74.493,82.821,90.093,67.173,103.933L42.665,60.5,22.817,131.458H0L29.647,25.47H53.2L77.137,68.31Z" transform="translate(0 109.588)" fill="#040504"/>
        <path id="Path_23-2" data-name="Path 23" d="M135.3,25.469c11.92,0,19.068,9.72,15.69,21.788l-17.461,62.417c-3.372,12.074-15.956,21.788-27.881,21.788H43.235c-12.069,0-19.068-9.714-15.69-21.788L45.006,47.257c3.372-12.069,15.807-21.788,27.881-21.788ZM50.691,108.5h60.063l16.8-60.063H67.489Z" transform="translate(114.862 109.583)" fill="#040504"/>
        <path id="Path_24-2" data-name="Path 24" d="M164.543,25.47l-6.421,22.966H116.608L93.383,131.458H70.417L93.642,48.435H52.128L58.555,25.47Z" transform="translate(224.287 109.586)" fill="#040504"/>
        <path id="Path_25-2" data-name="Path 25" d="M179.36,25.469c11.92,0,19.068,9.72,15.69,21.788l-17.461,62.417c-3.372,12.074-15.955,21.788-27.881,21.788H87.291c-12.069,0-19.068-9.714-15.69-21.788L89.062,47.257c3.372-12.069,15.807-21.788,27.881-21.788ZM94.747,108.5h60.062l16.8-60.063H111.545Z" transform="translate(304.417 109.583)" fill="#040504"/>
        <path id="Path_26-2" data-name="Path 26" d="M214.7,74.371c-2.927,10.451-13.893,19.137-24.493,19.137H179.469l19.917,35.628-.62,2.206h-18.84L158.709,93.508H122.5a20.9,20.9,0,0,1-3.155-.292l-10.669,38.126h-15.9L122.387,25.5h86.851c10.6,0,16.709,8.686,13.781,19.137Zm-20.044,3.24a4.645,4.645,0,0,0,4.141-3.24l8.32-29.737a2.387,2.387,0,0,0-2.333-3.235H137.075a4.652,4.652,0,0,0-4.147,3.235l-8.314,29.737a2.387,2.387,0,0,0,2.333,3.24Z" transform="translate(399.182 109.704)" fill="#040504"/>
        <path id="Path_27-2" data-name="Path 27" d="M238.12,41.367H156.864l-8.155,29.148h65.36l-4.444,15.9H144.259l-8.15,29.148h81.257l-4.449,15.9H115.763L145.41,25.47h97.16Z" transform="translate(498.082 109.588)" fill="#040504"/>
        <path id="Path_28-2" data-name="Path 28" d="M155.9,131.243H136.916L166.563,25.255h15.9l-23.718,84.789,58.864-52.554,29.461,52.554,23.719-84.789h15.9L257.036,131.243H238.2L210.685,82.22Z" transform="translate(589.094 108.661)" fill="#040504"/>
        <path id="Path_29" data-name="Path 29" d="M124.892,50.724h23.7L118.943,156.712H95.977l19.89-71.1c-15.876,14.137-33.046,29.737-48.694,43.577L42.665,85.758,22.817,156.712H0L29.647,50.724H53.2l23.936,42.84Z" transform="translate(0 218.245)" fill="#040504"/>
        <path id="Path_30" data-name="Path 30" d="M135.3,50.724c11.92,0,19.068,9.72,15.69,21.788l-17.461,62.417c-3.372,12.074-15.956,21.788-27.881,21.788H43.235c-12.069,0-19.068-9.714-15.69-21.788L45.006,72.512c3.372-12.069,15.807-21.788,27.881-21.788ZM50.691,133.752h60.063l16.8-60.062H67.489Z" transform="translate(114.862 218.245)" fill="#040504"/>
        <path id="Path_31" data-name="Path 31" d="M164.543,50.724,158.122,73.69H116.608L93.383,156.713H70.417L93.642,73.69H52.128l6.427-22.966Z" transform="translate(224.287 218.247)" fill="#040504"/>
        <path id="Path_32" data-name="Path 32" d="M179.36,50.724c11.92,0,19.068,9.72,15.69,21.788l-17.461,62.417c-3.372,12.074-15.955,21.788-27.881,21.788H87.291c-12.069,0-19.068-9.714-15.69-21.788L89.062,72.512c3.372-12.069,15.807-21.788,27.881-21.788ZM94.747,133.752h60.062l16.8-60.062H111.545Z" transform="translate(304.417 218.245)" fill="#040504"/>
        <path id="Path_33" data-name="Path 33" d="M214.7,99.626c-2.927,10.451-13.893,19.137-24.493,19.137H179.469l19.917,35.628-.62,2.206h-18.84l-21.216-37.834H122.5a20.893,20.893,0,0,1-3.155-.292L108.674,156.6h-15.9l29.61-105.845h86.851c10.6,0,16.709,8.686,13.781,19.137Zm-20.044,3.24a4.645,4.645,0,0,0,4.141-3.24l8.32-29.737a2.387,2.387,0,0,0-2.333-3.235H137.075a4.652,4.652,0,0,0-4.147,3.235l-8.314,29.737a2.387,2.387,0,0,0,2.333,3.24Z" transform="translate(399.182 218.366)" fill="#040504"/>
        <path id="Path_34" data-name="Path 34" d="M238.12,66.622H156.864L148.708,95.77h65.36l-4.444,15.9H144.259l-8.15,29.148h81.257l-4.449,15.9H115.763L145.41,50.725h97.16Z" transform="translate(498.082 218.248)" fill="#040504"/>
        <path id="Path_35" data-name="Path 35" d="M155.9,156.5H136.916L166.563,50.509h15.9L158.741,135.3l58.864-52.554L247.067,135.3l23.719-84.789h15.9L257.036,156.5H238.2l-27.51-49.023Z" transform="translate(589.094 217.322)" fill="#040504"/>
        <path id="Path_36" data-name="Path 36" d="M124.892,75.979h23.7L118.943,181.967H95.977l19.89-71.1C99.991,125,82.821,140.6,67.173,154.442L42.665,111.013,22.817,181.967H0L29.647,75.979H53.2l23.936,42.84Z" transform="translate(0 326.907)" fill="#040504"/>
        <path id="Path_37" data-name="Path 37" d="M135.3,75.979c11.92,0,19.068,9.72,15.69,21.788l-17.461,62.417c-3.372,12.074-15.956,21.788-27.881,21.788H43.235c-12.069,0-19.068-9.714-15.69-21.788L45.006,97.767C48.379,85.7,60.813,75.979,72.887,75.979ZM50.691,159.007h60.063l16.8-60.063H67.489Z" transform="translate(114.862 326.907)" fill="#040504"/>
        <path id="Path_38" data-name="Path 38" d="M164.543,75.979l-6.421,22.966H116.608L93.383,181.967H70.417L93.642,98.945H52.128l6.427-22.966Z" transform="translate(224.287 326.908)" fill="#040504"/>
        <path id="Path_39" data-name="Path 39" d="M179.36,75.979c11.92,0,19.068,9.72,15.69,21.788l-17.461,62.417c-3.372,12.074-15.955,21.788-27.881,21.788H87.291c-12.069,0-19.068-9.714-15.69-21.788L89.062,97.767c3.372-12.069,15.807-21.788,27.881-21.788ZM94.747,159.007h60.062l16.8-60.063H111.545Z" transform="translate(304.417 326.907)" fill="#040504"/>
        <path id="Path_40" data-name="Path 40" d="M214.7,124.881c-2.927,10.451-13.893,19.137-24.493,19.137H179.469l19.917,35.628-.62,2.206h-18.84l-21.216-37.834H122.5a20.888,20.888,0,0,1-3.155-.292l-10.669,38.126h-15.9l29.61-105.845h86.851c10.6,0,16.709,8.686,13.781,19.137Zm-20.044,3.24a4.645,4.645,0,0,0,4.141-3.24l8.32-29.737a2.387,2.387,0,0,0-2.333-3.235H137.075a4.652,4.652,0,0,0-4.147,3.235l-8.314,29.737a2.388,2.388,0,0,0,2.333,3.24Z" transform="translate(399.182 327.028)" fill="#040504"/>
        <path id="Path_41" data-name="Path 41" d="M238.12,91.877H156.864l-8.155,29.148h65.36l-4.444,15.9H144.259l-8.15,29.148h81.257l-4.449,15.9H115.763L145.41,75.979h97.16Z" transform="translate(498.082 326.909)" fill="#040504"/>
        <path id="Path_42" data-name="Path 42" d="M155.9,181.752H136.916L166.563,75.764h15.9l-23.718,84.788L217.605,108l29.461,52.554,23.719-84.788h15.9L257.036,181.752H238.2l-27.51-49.023Z" transform="translate(589.094 325.983)" fill="#040504"/>
        <path id="Path_43" data-name="Path 43" d="M124.892,101.234h23.7L118.943,207.222H95.977l19.89-71.1C99.991,150.256,82.821,165.857,67.173,179.7L42.665,136.268,22.817,207.222H0L29.647,101.234H53.2l23.936,42.84Z" transform="translate(0 435.57)" fill="#040504"/>
        <path id="Path_44" data-name="Path 44" d="M135.3,101.233c11.92,0,19.068,9.72,15.69,21.788l-17.461,62.417c-3.372,12.074-15.956,21.788-27.881,21.788H43.235c-12.069,0-19.068-9.714-15.69-21.788l17.461-62.417c3.372-12.069,15.807-21.788,27.881-21.788ZM50.691,184.261h60.063l16.8-60.062H67.489Z" transform="translate(114.862 435.565)" fill="#040504"/>
        <path id="Path_45" data-name="Path 45" d="M164.543,101.234,158.122,124.2H116.608L93.383,207.222H70.417L93.642,124.2H52.128l6.427-22.966Z" transform="translate(224.287 435.569)" fill="#040504"/>
        <path id="Path_46" data-name="Path 46" d="M179.36,101.233c11.92,0,19.068,9.72,15.69,21.788l-17.461,62.417c-3.372,12.074-15.955,21.788-27.881,21.788H87.291c-12.069,0-19.068-9.714-15.69-21.788l17.461-62.417c3.372-12.069,15.807-21.788,27.881-21.788ZM94.747,184.261h60.062l16.8-60.062H111.545Z" transform="translate(304.417 435.565)" fill="#040504"/>
        <path id="Path_47" data-name="Path 47" d="M214.7,150.135c-2.927,10.451-13.893,19.137-24.493,19.137H179.469L199.386,204.9l-.62,2.206h-18.84l-21.216-37.834H122.5a20.891,20.891,0,0,1-3.155-.292l-10.669,38.126h-15.9l29.61-105.845h86.851c10.6,0,16.709,8.686,13.781,19.137Zm-20.044,3.24a4.645,4.645,0,0,0,4.141-3.24l8.32-29.737a2.387,2.387,0,0,0-2.333-3.235H137.075a4.652,4.652,0,0,0-4.147,3.235l-8.314,29.737a2.388,2.388,0,0,0,2.333,3.24Z" transform="translate(399.182 435.686)" fill="#040504"/>
        <path id="Path_48" data-name="Path 48" d="M238.12,117.131H156.864l-8.155,29.148h65.36l-4.444,15.9H144.259l-8.15,29.148h81.257l-4.449,15.9H115.763L145.41,101.234h97.16Z" transform="translate(498.082 435.57)" fill="#040504"/>
        <path id="Path_49" data-name="Path 49" d="M155.9,207.007H136.916l29.647-105.988h15.9l-23.718,84.789,58.864-52.554,29.461,52.554,23.719-84.789h15.9L257.036,207.007H238.2l-27.51-49.022Z" transform="translate(589.094 434.644)" fill="#040504"/>
        <path id="Path_50" data-name="Path 50" d="M124.892,126.489h23.7L118.943,232.477H95.977l19.89-71.1c-15.876,14.137-33.046,29.737-48.694,43.577L42.665,161.523,22.817,232.477H0L29.647,126.489H53.2l23.936,42.84Z" transform="translate(0 544.232)" fill="#040504"/>
        <path id="Path_51" data-name="Path 51" d="M135.3,126.488c11.92,0,19.068,9.72,15.69,21.788l-17.461,62.417c-3.372,12.074-15.956,21.788-27.881,21.788H43.235c-12.069,0-19.068-9.714-15.69-21.788l17.461-62.417c3.372-12.069,15.807-21.788,27.881-21.788ZM50.691,209.516h60.063l16.8-60.063H67.489Z" transform="translate(114.862 544.227)" fill="#040504"/>
        <path id="Path_52" data-name="Path 52" d="M164.543,126.489l-6.421,22.966H116.608L93.383,232.477H70.417l23.225-83.023H52.128l6.427-22.966Z" transform="translate(224.287 544.23)" fill="#040504"/>
        <path id="Path_53" data-name="Path 53" d="M179.36,126.488c11.92,0,19.068,9.72,15.69,21.788l-17.461,62.417c-3.372,12.074-15.955,21.788-27.881,21.788H87.291c-12.069,0-19.068-9.714-15.69-21.788l17.461-62.417c3.372-12.069,15.807-21.788,27.881-21.788ZM94.747,209.516h60.062l16.8-60.063H111.545Z" transform="translate(304.417 544.227)" fill="#040504"/>
        <path id="Path_54" data-name="Path 54" d="M214.7,175.39c-2.927,10.451-13.893,19.137-24.493,19.137H179.469l19.917,35.628-.62,2.206h-18.84l-21.216-37.834H122.5a20.9,20.9,0,0,1-3.155-.292l-10.669,38.126h-15.9l29.61-105.845h86.851c10.6,0,16.709,8.686,13.781,19.137Zm-20.044,3.24a4.645,4.645,0,0,0,4.141-3.24l8.32-29.737a2.387,2.387,0,0,0-2.333-3.235H137.075a4.652,4.652,0,0,0-4.147,3.235l-8.314,29.737a2.387,2.387,0,0,0,2.333,3.24Z" transform="translate(399.182 544.348)" fill="#040504"/>
        <path id="Path_55" data-name="Path 55" d="M238.12,142.386H156.864l-8.155,29.148h65.36l-4.444,15.9H144.259l-8.15,29.148h81.257l-4.449,15.9H115.763L145.41,126.489h97.16Z" transform="translate(498.082 544.231)" fill="#040504"/>
        <path id="Path_56" data-name="Path 56" d="M155.9,232.262H136.916l29.647-105.988h15.9l-23.718,84.789,58.864-52.554,29.461,52.554,23.719-84.789h15.9L257.036,232.262H238.2l-27.51-49.023Z" transform="translate(589.094 543.305)" fill="#040504"/>
        <rect id="Rectangle_4" data-name="Rectangle 4" width="875.777" height="776.708" transform="translate(0 0.001)" fill="none"/>
      </g>
    </g>
    <g id="Group_115" data-name="Group 115" transform="translate(4230.017 1212.924)">
      <g transform="matrix(1, 0, 0, 1, -198.5, -145.5)" filter="url(#Path_57)">
        <path id="Path_57-2" data-name="Path 57" d="M685.66,54.728a79.551,79.551,0,0,0-63.923-31.777H200.928L31.168,625.372h150l-27.857,75.7,291.3,50.165a80.122,80.122,0,0,0,90.335-55.771l21.237-70.1h1.687l141.045-500.5a79.545,79.545,0,0,0-13.248-70.14" transform="translate(167.33 122.55)" fill="#040504"/>
      </g>
      <path id="Path_58" data-name="Path 58" d="M161.7,536.448H40.081L182.877,29.7H304.5Z" transform="translate(23.098 18.134)" fill="#ffc100"/>
      <path id="Path_59" data-name="Path 59" d="M183.266,536.448H61.643L204.439,29.7H326.061Z" transform="translate(154.376 18.134)" fill="#f26319"/>
      <path id="Path_60" data-name="Path 60" d="M204.828,536.448H83.205L226,29.7h78.915A32.337,32.337,0,0,1,336.041,70.8Z" transform="translate(285.653 18.134)" fill="#e60019"/>
      <path id="Path_61" data-name="Path 61" d="M57.531,161.636l20.691-56.225,272.875.035-22.442,74.109a32.33,32.33,0,0,1-36.434,22.491Z" transform="translate(129.339 479.098)" fill="#f26319"/>
    </g>
  </g>
</svg>
