<?xml version="1.0" encoding="UTF-8"?><svg id="Layer_2" xmlns="http://www.w3.org/2000/svg" viewBox="0 0 24 221.77"><defs><style>.cls-1 {
  fill: none;
}

.cls-1, .cls-2 {
  stroke-width: 0;
}

.cls-2 {
  fill: #fff;
}
</style></defs><g id="Layer_1-2"><g id="Group_121"><path class="cls-2" d="m12.5,199c-.55,0-1-.45-1-1V1c0-.55.45-1,1-1s1,.45,1,1v197c0,.55-.45,1-1,1Z"></path><g id="Ellipse_3"><circle class="cls-1" cx="12" cy="209.77" r="12"></circle><path class="cls-2" d="m12,221.77c-6.62,0-12-5.38-12-12s5.38-12,12-12,12,5.38,12,12-5.38,12-12,12Zm0-22c-5.51,0-10,4.49-10,10s4.49,10,10,10,10-4.49,10-10-4.49-10-10-10Z"></path></g></g></g></svg>