<svg xmlns="http://www.w3.org/2000/svg" width="2100" height="207" viewBox="0 0 2100 207">
  <g id="Group_118" data-name="Group 118" transform="translate(90 -7049)">
    <g id="Group_64" data-name="Group 64" transform="translate(-2947.777 583.507)">
      <g id="Group_61" data-name="Group 61" transform="translate(3557.852 6534)">
        <rect id="Rectangle_7" data-name="Rectangle 7" width="70" height="69" transform="translate(-0.074 69.493)" fill="#434343"></rect>
        <rect id="Rectangle_10" data-name="Rectangle 10" width="70" height="69" transform="translate(138.926 69.493)" fill="#434343"></rect>
        <rect id="Rectangle_12" data-name="Rectangle 12" width="70" height="69" transform="translate(277.926 69.493)" fill="#434343"></rect>
        <rect id="Rectangle_14" data-name="Rectangle 14" width="69" height="69" transform="translate(421.926 69.493)" fill="#434343"></rect>
        <rect id="Rectangle_16" data-name="Rectangle 16" width="69" height="69" transform="translate(560.926 69.493)" fill="#434343"></rect>
        <rect id="Rectangle_8" data-name="Rectangle 8" width="69" height="69" transform="translate(69.926 0.493)" fill="#434343"></rect>
        <rect id="Rectangle_9" data-name="Rectangle 9" width="69" height="69" transform="translate(208.926 0.493)" fill="#434343"></rect>
        <rect id="Rectangle_11" data-name="Rectangle 11" width="69" height="69" transform="translate(347.926 0.493)" fill="#434343"></rect>
        <rect id="Rectangle_13" data-name="Rectangle 13" width="70" height="69" transform="translate(490.926 0.493)" fill="#434343"></rect>
        <rect id="Rectangle_15" data-name="Rectangle 15" width="70" height="69" transform="translate(629.926 0.493)" fill="#434343"></rect>
      </g>
      <g id="Group_63" data-name="Group 63" transform="translate(4257.703 6534)">
        <rect id="Rectangle_7-2" data-name="Rectangle 7" width="69" height="69" transform="translate(0.074 69.493)" fill="#434343"></rect>
        <rect id="Rectangle_10-2" data-name="Rectangle 10" width="69" height="69" transform="translate(139.074 69.493)" fill="#434343"></rect>
        <rect id="Rectangle_12-2" data-name="Rectangle 12" width="69" height="69" transform="translate(278.074 69.493)" fill="#434343"></rect>
        <rect id="Rectangle_14-2" data-name="Rectangle 14" width="69" height="69" transform="translate(422.074 69.493)" fill="#434343"></rect>
        <rect id="Rectangle_16-2" data-name="Rectangle 16" width="69" height="69" transform="translate(561.074 69.493)" fill="#434343"></rect>
        <rect id="Rectangle_8-2" data-name="Rectangle 8" width="70" height="69" transform="translate(69.074 0.493)" fill="#434343"></rect>
        <rect id="Rectangle_9-2" data-name="Rectangle 9" width="70" height="69" transform="translate(208.074 0.493)" fill="#434343"></rect>
        <rect id="Rectangle_11-2" data-name="Rectangle 11" width="70" height="69" transform="translate(347.074 0.493)" fill="#434343"></rect>
        <rect id="Rectangle_13-2" data-name="Rectangle 13" width="70" height="69" transform="translate(491.074 0.493)" fill="#434343"></rect>
        <rect id="Rectangle_15-2" data-name="Rectangle 15" width="70" height="69" transform="translate(630.074 0.493)" fill="#434343"></rect>
      </g>
      <g id="Group_62" data-name="Group 62" transform="translate(2858 6534)">
        <rect id="Rectangle_7-3" data-name="Rectangle 7" width="70" height="69" transform="translate(-0.223 69.493)" fill="#434343"></rect>
        <rect id="Rectangle_10-3" data-name="Rectangle 10" width="70" height="69" transform="translate(138.777 69.493)" fill="#434343"></rect>
        <rect id="Rectangle_12-3" data-name="Rectangle 12" width="70" height="69" transform="translate(277.777 69.493)" fill="#434343"></rect>
        <rect id="Rectangle_14-3" data-name="Rectangle 14" width="70" height="69" transform="translate(421.777 69.493)" fill="#434343"></rect>
        <rect id="Rectangle_16-3" data-name="Rectangle 16" width="70" height="69" transform="translate(560.777 69.493)" fill="#434343"></rect>
        <rect id="Rectangle_8-3" data-name="Rectangle 8" width="69" height="69" transform="translate(69.777 0.493)" fill="#434343"></rect>
        <rect id="Rectangle_9-3" data-name="Rectangle 9" width="69" height="69" transform="translate(208.777 0.493)" fill="#434343"></rect>
        <rect id="Rectangle_11-3" data-name="Rectangle 11" width="69" height="69" transform="translate(347.777 0.493)" fill="#434343"></rect>
        <rect id="Rectangle_13-3" data-name="Rectangle 13" width="69" height="69" transform="translate(491.777 0.493)" fill="#434343"></rect>
        <rect id="Rectangle_15-3" data-name="Rectangle 15" width="69" height="69" transform="translate(630.777 0.493)" fill="#434343"></rect>
      </g>
    </g>
    <rect id="Rectangle_7-4" data-name="Rectangle 7" width="70" height="69" transform="translate(610 7049)" fill="#434343"></rect>
    <rect id="Rectangle_10-4" data-name="Rectangle 10" width="70" height="69" transform="translate(749 7049)" fill="#434343"></rect>
    <rect id="Rectangle_12-4" data-name="Rectangle 12" width="70" height="69" transform="translate(888 7049)" fill="#434343"></rect>
    <rect id="Rectangle_14-4" data-name="Rectangle 14" width="69" height="69" transform="translate(1032 7049)" fill="#434343"></rect>
    <rect id="Rectangle_16-4" data-name="Rectangle 16" width="69" height="69" transform="translate(1171 7049)" fill="#434343"></rect>
    <rect id="Rectangle_7-5" data-name="Rectangle 7" width="69" height="69" transform="translate(1310 7049)" fill="#434343"></rect>
    <rect id="Rectangle_10-5" data-name="Rectangle 10" width="69" height="69" transform="translate(1449 7049)" fill="#434343"></rect>
    <rect id="Rectangle_12-5" data-name="Rectangle 12" width="69" height="69" transform="translate(1588 7049)" fill="#434343"></rect>
    <rect id="Rectangle_14-5" data-name="Rectangle 14" width="69" height="69" transform="translate(1732 7049)" fill="#434343"></rect>
    <rect id="Rectangle_16-5" data-name="Rectangle 16" width="69" height="69" transform="translate(1871 7049)" fill="#434343"></rect>
    <rect id="Rectangle_10-6" data-name="Rectangle 10" width="70" height="69" transform="translate(49 7049)" fill="#434343"></rect>
    <rect id="Rectangle_12-6" data-name="Rectangle 12" width="70" height="69" transform="translate(188 7049)" fill="#434343"></rect>
    <rect id="Rectangle_14-6" data-name="Rectangle 14" width="70" height="69" transform="translate(332 7049)" fill="#434343"></rect>
    <rect id="Rectangle_16-6" data-name="Rectangle 16" width="70" height="69" transform="translate(471 7049)" fill="#434343"></rect>
    <rect id="Rectangle_7-6" data-name="Rectangle 7" width="70" height="69" transform="translate(-90 7049)" fill="#434343"></rect>
  </g>
</svg>
