<?xml version="1.0" encoding="UTF-8"?><svg id="Layer_2" xmlns="http://www.w3.org/2000/svg" viewBox="0 0 266.42 263.18"><defs><style>.cls-1 {
  opacity: .38;
}

.cls-2 {
  fill: #e51e26;
}

.cls-2, .cls-3, .cls-4, .cls-5 {
  stroke-width: 0;
}

.cls-3 {
  fill: #fff;
}

.cls-4 {
  fill: #f16422;
}

.cls-5 {
  fill: #fcc210;
}
</style></defs><g id="Layer_1-2"><g id="Group_107" class="cls-1"><path class="cls-5" d="m53.05,211.03H0l.54-1.91L59.46,0h53.05l-.54,1.91-58.93,209.12Zm-49.08-3h46.81L108.55,3h-46.81L3.96,208.03Z"></path><path class="cls-4" d="m115.79,211.03h-53.05l.54-1.91L122.21,0h53.04l-.54,1.91-58.93,209.12Zm-49.08-3h46.81L171.29,3h-46.81l-57.77,205.03Z"></path><path class="cls-2" d="m178.53,211.03h-53.04l.54-1.91L184.95,0h33.54c8.15,0,14.77,6.63,14.77,14.78,0,1.35-.19,2.7-.55,4l-54.17,192.25Zm-49.08-3h46.81L229.82,17.97c.29-1.04.44-2.11.44-3.19,0-6.49-5.28-11.78-11.77-11.78h-31.26l-57.77,205.03Z"></path><path class="cls-4" d="m151.36,263.18c-.83,0-1.67-.07-2.51-.21l-98.12-16.9,9.48-25.75,115.09.02-9.8,32.36c-1.91,6.31-7.74,10.49-14.14,10.49Zm-96.57-19.46l94.57,16.28c5.84,1.01,11.55-2.51,13.27-8.19l8.63-28.49-108.95-.02-7.51,20.41Z"></path></g><g id="Group_109"><path id="Path_158" class="cls-3" d="m116.05,173.08c-26.39,0-47.78-21.4-47.78-47.79,0-26.39,21.4-47.78,47.79-47.78,26.39,0,47.78,21.39,47.78,47.78-.03,26.38-21.41,47.76-47.79,47.79m0-89.46c-23.02,0-41.68,18.66-41.68,41.68s18.66,41.68,41.68,41.68,41.68-18.66,41.68-41.68h0c-.03-23.01-18.67-41.65-41.68-41.68"></path><path id="Path_159" class="cls-3" d="m205.45,173.08c-26.39,0-47.78-21.39-47.79-47.78,0-26.39,21.39-47.79,47.78-47.79,26.39,0,47.79,21.39,47.79,47.78h0c-.03,26.38-21.41,47.75-47.79,47.79m0-89.46c-23.02,0-41.68,18.66-41.68,41.68s18.66,41.68,41.68,41.68,41.68-18.66,41.68-41.68h0c-.03-23.01-18.67-41.65-41.68-41.68"></path><path id="Path_160" class="cls-3" d="m263.36,128.35c-1.69,0-3.05-1.37-3.05-3.05h0c0-30.3-24.56-54.86-54.86-54.86-16.39,0-31.92,7.33-42.34,19.98-1.17,1.3-3.17,1.41-4.47.24-.08-.08-.16-.16-.24-.24-19.26-23.38-53.84-26.72-77.22-7.46-12.65,10.42-19.98,25.95-19.98,42.34.03,1.69-1.31,3.08-3,3.11-1.69.03-3.08-1.31-3.11-3,0-.04,0-.07,0-.11,0-33.67,27.3-60.97,60.97-60.96,16.96,0,33.16,7.07,44.69,19.5,22.9-24.68,61.47-26.13,86.16-3.23,12.43,11.54,19.5,27.73,19.5,44.69,0,1.69-1.37,3.05-3.05,3.06h0"></path><path id="Path_161" class="cls-3" d="m82.76,128.34h-1.57c-1.69-.03-3.03-1.42-3-3.11.03-1.64,1.36-2.97,3-3h1.58c1.69.03,3.03,1.42,3,3.11-.03,1.64-1.36,2.97-3,3"></path><path id="Path_162" class="cls-3" d="m83.9,119.73c-.27,0-.53-.03-.79-.1l-1.52-.41c-1.62-.48-2.54-2.18-2.06-3.8.46-1.55,2.06-2.48,3.64-2.1l1.52.41c1.63.44,2.6,2.11,2.16,3.74-.36,1.33-1.57,2.26-2.95,2.26"></path><path id="Path_163" class="cls-3" d="m87.22,111.7c-.54,0-1.06-.14-1.53-.41l-1.36-.79c-1.49-.8-2.05-2.65-1.25-4.14.8-1.49,2.65-2.05,4.14-1.25.06.03.11.06.17.1l1.36.79c1.46.84,1.97,2.71,1.13,4.17-.55.95-1.56,1.54-2.66,1.53"></path><path id="Path_164" class="cls-3" d="m92.51,104.8c-.81,0-1.59-.32-2.16-.9l-1.11-1.11c-1.15-1.23-1.08-3.17.15-4.32,1.17-1.1,3-1.09,4.17,0l1.11,1.11c1.19,1.19,1.19,3.13,0,4.32-.57.57-1.35.89-2.16.89"></path><path id="Path_165" class="cls-3" d="m99.41,99.51c-1.09,0-2.1-.58-2.65-1.52l-.79-1.36c-.85-1.46-.35-3.33,1.11-4.18s3.33-.35,4.18,1.11l.79,1.36c.84,1.46.35,3.33-1.11,4.17,0,0,0,0,0,0-.46.27-.99.41-1.53.41"></path><path id="Path_166" class="cls-3" d="m107.43,96.19c-1.38,0-2.59-.93-2.95-2.26l-.41-1.52c-.4-1.64.61-3.29,2.24-3.69,1.59-.39,3.2.54,3.66,2.11l.41,1.52c.44,1.63-.53,3.3-2.16,3.74,0,0,0,0,0,0-.26.07-.52.1-.79.1"></path><path id="Path_167" class="cls-3" d="m116.05,95.05c-1.69,0-3.05-1.37-3.06-3.05h0v-1.58c.03-1.69,1.42-3.03,3.11-3,1.64.03,2.97,1.36,3,3v1.58c0,1.69-1.37,3.05-3.05,3.06h0"></path><path id="Path_168" class="cls-3" d="m124.67,96.19c-.27,0-.53-.03-.79-.1-1.63-.44-2.6-2.11-2.16-3.74l.41-1.52c.4-1.64,2.05-2.64,3.69-2.24,1.64.4,2.64,2.05,2.24,3.69-.01.05-.02.09-.04.13l-.41,1.52c-.36,1.33-1.57,2.26-2.95,2.26"></path><path id="Path_169" class="cls-3" d="m132.7,99.51c-.54,0-1.06-.14-1.53-.41-1.46-.84-1.96-2.71-1.11-4.17l.79-1.36c.85-1.46,2.72-1.96,4.18-1.12,1.46.85,1.96,2.72,1.11,4.18l-.79,1.36c-.55.94-1.56,1.52-2.65,1.52"></path><path id="Path_170" class="cls-3" d="m139.6,104.8c-1.69,0-3.05-1.37-3.05-3.06,0-.81.32-1.59.89-2.16l1.11-1.11c1.19-1.19,3.13-1.19,4.32,0,1.19,1.19,1.19,3.12,0,4.31l-1.11,1.11c-.57.58-1.35.9-2.16.9"></path><path id="Path_171" class="cls-3" d="m144.89,111.7c-1.69,0-3.06-1.36-3.06-3.04,0-1.1.58-2.11,1.53-2.66l1.36-.79c1.46-.85,3.33-.35,4.17,1.11.85,1.46.35,3.33-1.11,4.17l-1.37.79c-.46.27-.99.41-1.53.41"></path><path id="Path_172" class="cls-3" d="m148.21,119.73c-1.69,0-3.05-1.37-3.05-3.06,0-1.38.93-2.59,2.26-2.95l1.52-.41c1.64-.39,3.29.62,3.68,2.26.38,1.58-.55,3.17-2.1,3.64l-1.52.41c-.26.07-.52.1-.79.1"></path><path id="Path_173" class="cls-3" d="m150.92,128.34h-1.58c-1.69-.03-3.03-1.42-3-3.11.03-1.64,1.36-2.97,3-3h1.58c1.69-.03,3.08,1.31,3.11,3,.03,1.69-1.31,3.08-3,3.11-.04,0-.07,0-.11,0"></path><path id="Path_174" class="cls-3" d="m116.05,129.42c-1.07,0-2.06-.56-2.62-1.48l-12.79-21.24c-.85-1.46-.36-3.33,1.09-4.18,1.43-.84,3.27-.38,4.14,1.03l12.79,21.24c.87,1.44.4,3.32-1.04,4.19,0,0,0,0,0,0-.47.29-1.02.44-1.57.44"></path><path id="Path_175" class="cls-3" d="m172.15,128.34h-1.58c-1.69.03-3.08-1.31-3.11-3-.03-1.69,1.31-3.08,3-3.11.04,0,.07,0,.11,0h1.58c1.69-.03,3.08,1.31,3.11,3,.03,1.69-1.31,3.08-3,3.11-.04,0-.07,0-.11,0"></path><path id="Path_176" class="cls-3" d="m173.29,119.73c-.27,0-.53-.03-.79-.1l-1.52-.41c-1.64-.4-2.64-2.05-2.24-3.69.4-1.64,2.05-2.64,3.69-2.24.05.01.09.02.13.04l1.52.41c1.63.44,2.6,2.11,2.16,3.74-.36,1.34-1.57,2.26-2.95,2.26"></path><path id="Path_177" class="cls-3" d="m176.61,111.7c-.54,0-1.06-.14-1.53-.41l-1.37-.79c-1.48-.81-2.01-2.67-1.2-4.15.81-1.48,2.67-2.01,4.15-1.2.04.02.07.04.11.06l1.37.79c1.46.84,1.97,2.71,1.13,4.17-.55.95-1.56,1.54-2.66,1.53"></path><path id="Path_178" class="cls-3" d="m181.91,104.8c-.81,0-1.59-.32-2.16-.9l-1.12-1.11c-1.19-1.19-1.19-3.13,0-4.32,1.19-1.19,3.12-1.19,4.31,0l1.12,1.11c1.19,1.19,1.19,3.13,0,4.32-.57.57-1.35.89-2.16.89"></path><path id="Path_179" class="cls-3" d="m188.8,99.51c-1.09,0-2.1-.58-2.65-1.52l-.79-1.36c-.85-1.46-.35-3.33,1.11-4.17s3.33-.35,4.17,1.11l.79,1.36c.84,1.46.35,3.33-1.11,4.17,0,0,0,0,0,0-.46.27-.99.41-1.53.41"></path><path id="Path_180" class="cls-3" d="m196.83,96.19c-1.38,0-2.59-.93-2.95-2.26l-.41-1.52c-.4-1.64.61-3.29,2.25-3.69,1.58-.38,3.18.54,3.65,2.1l.41,1.52c.44,1.63-.52,3.31-2.15,3.75,0,0,0,0,0,0-.26.07-.53.1-.79.1"></path><path id="Path_181" class="cls-3" d="m205.45,95.05c-1.69,0-3.05-1.37-3.06-3.05h0v-1.58c0-1.69,1.37-3.06,3.06-3.06s3.06,1.37,3.06,3.06h0v1.58c0,1.69-1.37,3.05-3.05,3.06h0"></path><path id="Path_182" class="cls-3" d="m214.07,96.19c-.27,0-.53-.03-.79-.1-1.63-.44-2.59-2.12-2.16-3.75l.41-1.52c.44-1.63,2.11-2.59,3.74-2.16,1.63.44,2.59,2.11,2.16,3.74l-.41,1.52c-.36,1.33-1.57,2.26-2.95,2.26"></path><path id="Path_183" class="cls-3" d="m222.09,99.51c-1.69,0-3.05-1.37-3.05-3.06,0-.53.14-1.06.41-1.52l.79-1.36c.84-1.46,2.71-1.96,4.17-1.12,1.46.84,1.96,2.71,1.12,4.17h0l-.78,1.36c-.55.95-1.56,1.53-2.65,1.53"></path><path id="Path_184" class="cls-3" d="m228.99,104.8c-1.69,0-3.05-1.37-3.05-3.06,0-.81.32-1.59.89-2.16l1.12-1.11c1.19-1.19,3.12-1.2,4.32,0,1.19,1.19,1.2,3.12,0,4.32,0,0,0,0,0,0l-1.12,1.11c-.57.58-1.35.9-2.16.9"></path><path id="Path_185" class="cls-3" d="m234.29,111.7c-1.69,0-3.06-1.36-3.06-3.04,0-1.1.58-2.11,1.53-2.66l1.37-.79c1.46-.85,3.33-.35,4.17,1.11.85,1.46.35,3.33-1.11,4.17h0l-1.37.79c-.46.27-.99.41-1.53.41"></path><path id="Path_186" class="cls-3" d="m237.6,119.73c-1.69,0-3.06-1.37-3.06-3.05,0-1.38.93-2.59,2.26-2.95l1.52-.41c1.64-.4,3.29.61,3.69,2.24.39,1.59-.54,3.2-2.11,3.66l-1.52.41c-.26.07-.53.1-.79.1"></path><path id="Path_187" class="cls-3" d="m240.32,128.34h-1.58c-1.69.03-3.08-1.31-3.11-3-.03-1.69,1.31-3.08,3-3.11.04,0,.07,0,.11,0h1.58c1.69.03,3.03,1.42,3,3.11-.03,1.64-1.36,2.97-3,3"></path><path id="Path_188" class="cls-3" d="m205.45,129.42c-.3,0-.59-.04-.88-.13-1.61-.49-2.53-2.18-2.05-3.8l7.19-23.96c.47-1.62,2.17-2.55,3.79-2.07,1.62.47,2.55,2.17,2.07,3.79,0,.01,0,.02-.01.04l-7.19,23.95c-.39,1.29-1.57,2.18-2.92,2.18"></path><path id="Path_189" class="cls-3" d="m206.25,150.77h-12.79c-1.69.03-3.08-1.31-3.11-3s1.31-3.08,3-3.11c.04,0,.07,0,.11,0h12.79c1.69.03,3.03,1.42,3,3.11-.03,1.64-1.36,2.97-3,3"></path><path id="Path_190" class="cls-3" d="m217.44,150.77h-4.73c-1.69.03-3.08-1.31-3.11-3s1.31-3.08,3-3.11c.04,0,.07,0,.11,0h4.73c1.69-.03,3.08,1.31,3.11,3s-1.31,3.08-3,3.11c-.04,0-.07,0-.11,0"></path></g></g></svg>