<svg xmlns:xlink="http://www.w3.org/1999/xlink">

    <symbol viewBox="0 0 67.917 67.906" id="repair" xmlns="http://www.w3.org/2000/svg">
        <defs>
            <clipPath id="aa">
                <path data-name="Rectangle 38" d="M0 0h67.917v67.906H0z"></path>
            </clipPath>
        </defs>

        <g data-name="Group 67" clip-path="url('#aa')">
            <path data-name="Path 145" d="M13.52 67.906a13.492 13.492 0 0 1-4.324-.71 1.066 1.066 0 0 1-.5-1.65l5.347-7.123-4.554-4.554-7.123 5.373a1.066 1.066 0 0 1-1.65-.5 13.4 13.4 0 0 1 3.237-13.834 12.135 12.135 0 0 1 11.488-3.321 5.714 5.714 0 0 0 5.264-1.5L40.068 20.72a5.7 5.7 0 0 0 1.5-5.264 12.135 12.135 0 0 1 3.325-11.488A13.4 13.4 0 0 1 58.721.731a1.066 1.066 0 0 1 .5 1.65l-5.346 7.123 4.554 4.554 7.123-5.368a1.066 1.066 0 0 1 1.65.5 13.4 13.4 0 0 1-3.238 13.828 12.144 12.144 0 0 1-8.648 3.614 13.636 13.636 0 0 1-2.862-.313 5.714 5.714 0 0 0-5.264 1.5L27.828 47.185a5.7 5.7 0 0 0-1.5 5.264A12.135 12.135 0 0 1 23 63.942a13.35 13.35 0 0 1-9.483 3.969m-2.214-2.339A11.312 11.312 0 0 0 21.5 62.454a10.092 10.092 0 0 0 2.757-9.546 7.819 7.819 0 0 1 2.089-7.206l19.362-19.36a7.819 7.819 0 0 1 7.206-2.089 10.092 10.092 0 0 0 9.546-2.757 11.239 11.239 0 0 0 3.112-10.193l-6.6 4.971a1.05 1.05 0 0 1-1.379-.1l-5.849-5.849a1.052 1.052 0 0 1-.104-1.383l4.971-6.6a11.3 11.3 0 0 0-10.193 3.109 10.092 10.092 0 0 0-2.757 9.546 7.819 7.819 0 0 1-2.089 7.206L22.209 41.566A7.819 7.819 0 0 1 15 43.655a10.092 10.092 0 0 0-9.543 2.757 11.239 11.239 0 0 0-3.112 10.193l6.6-4.971a1.05 1.05 0 0 1 1.379.1l5.849 5.849a1.052 1.052 0 0 1 .1 1.379Z"></path>
            <path data-name="Path 146" d="M14.501 16.877H9.112a1.006 1.006 0 0 1-.877-.48l-2.674-4.01a1.079 1.079 0 0 1 0-1.17l2.695-4.031a1.053 1.053 0 0 1 .877-.48h5.368a1.006 1.006 0 0 1 .877.48l2.695 4.031a1.079 1.079 0 0 1 0 1.17l-2.695 4.031a1.061 1.061 0 0 1-.877.46m-4.8-2.11h4.219l1.981-2.963-1.984-2.966h-4.24l-1.99 2.966Z"></path>
            <path data-name="Path 147" d="M56.11 67.885a11.8 11.8 0 0 1-11.8-11.8 11.667 11.667 0 0 1 .689-3.969L33.217 40.334a1.063 1.063 0 0 1 1.5-1.5l12.282 12.282a1.063 1.063 0 0 1 .23 1.17 9.547 9.547 0 0 0-.773 3.822 9.671 9.671 0 1 0 9.671-9.671 10 10 0 0 0-3.822.773 1.063 1.063 0 0 1-1.17-.23L38.857 34.694a1.063 1.063 0 1 1 1.5-1.5l11.781 11.781a11.668 11.668 0 0 1 3.969-.689 11.8 11.8 0 0 1 0 23.6"></path>
            <path data-name="Path 148" d="M28.309 35.008a1.06 1.06 0 0 1-.752-.313L15.779 22.914a11.668 11.668 0 0 1-3.969.689 11.8 11.8 0 1 1 11.8-11.8 11.668 11.668 0 0 1-.689 3.969l11.78 11.779a1.063 1.063 0 1 1-1.5 1.5L20.915 16.773a1.063 1.063 0 0 1-.23-1.17 9.547 9.547 0 0 0 .773-3.822 9.671 9.671 0 1 0-9.671 9.671 10 10 0 0 0 3.822-.773 1.063 1.063 0 0 1 1.17.23l12.282 12.282a1.065 1.065 0 0 1-.752 1.817"></path>
            <path data-name="Path 149" d="M58.784 61.18h-5.368a1.006 1.006 0 0 1-.877-.48l-2.695-4.01a1.079 1.079 0 0 1 0-1.17l2.695-4.031a1.053 1.053 0 0 1 .877-.48h5.368a1.006 1.006 0 0 1 .877.48l2.695 4.031a1.079 1.079 0 0 1 0 1.17l-2.695 4.031a1.034 1.034 0 0 1-.877.46m-4.8-2.131h4.24l1.984-2.966-1.984-2.966h-4.24L52 56.084Z"></path>
        </g>

    </symbol> 

    <symbol viewBox="0 0 235.767 32.039" id="logo" xmlns="http://www.w3.org/2000/svg">
        <defs>
            <clipPath id="aa">
                <path data-name="Rectangle 3" fill="none" d="M0 0h235.766v32.039H0z"></path>
            </clipPath>
        </defs>

        <g data-name="Group 106">
            <path data-name="Path 4" d="M7.151.302 0 25.678h6.09L13.24.302Z" fill="#ffc100"></path>
            <path data-name="Path 5" d="M13.744 25.677h-6.09L14.804.302h6.09Z" fill="#f26319"></path>
            <g data-name="Group 6">
                <g data-name="Group 5" clip-path="url('#aa')">
                    <path data-name="Path 6" d="M21.397 25.678h-6.09L22.457.303h3.952a1.619 1.619 0 0 1 1.559 2.056Z" fill="#e60019"></path>
                    <path data-name="Path 7" d="m6.193 29.992 1.036-2.815h13.665l-1.124 3.712a1.619 1.619 0 0 1-1.825 1.126Z" fill="#f26319"></path>
                    <path data-name="Path 8" d="M56.303.272h5.664l-7.085 25.333h-5.489l4.754-16.994c-3.794 3.378-7.9 7.107-11.638 10.414L36.651 8.647l-4.744 16.958h-5.453L33.54.272h5.629l5.721 10.24Z" fill="#fff"></path>
                    <path data-name="Path 9" d="M86.243.272c2.85 0 4.557 2.322 3.75 5.206L85.82 20.396a7.413 7.413 0 0 1-6.664 5.207H64.239c-2.885 0-4.557-2.322-3.75-5.207l4.173-14.917A7.374 7.374 0 0 1 71.326.272ZM66.021 20.116h14.354l4.016-14.355H70.036Z" fill="#fff"></path>
                    <path data-name="Path 10" d="M119.385.272 117.85 5.76h-9.922l-5.55 19.844h-5.493l5.55-19.844h-9.922l1.54-5.488Z" fill="#fff"></path>
                    <path data-name="Path 11" d="M142.077.272c2.85 0 4.557 2.322 3.75 5.206l-4.172 14.919a7.413 7.413 0 0 1-6.664 5.207h-14.918c-2.885 0-4.557-2.322-3.75-5.207l4.173-14.918A7.376 7.376 0 0 1 127.16.272Zm-20.222 19.844h14.355l4.015-14.355H125.87Z" fill="#fff"></path>
                    <path data-name="Path 12" d="M173.173 11.989a6.519 6.519 0 0 1-5.853 4.574h-2.568l4.76 8.514-.148.528h-4.5l-5.07-9.042h-8.655a4.861 4.861 0 0 1-.755-.071l-2.549 9.113h-3.8l7.076-25.3h20.756c2.533 0 3.993 2.076 3.295 4.574Zm-4.79.774a1.11 1.11 0 0 0 .99-.774l1.988-7.107a.571.571 0 0 0-.557-.774h-16.185a1.109 1.109 0 0 0-.99.774l-1.988 7.107a.571.571 0 0 0 .558.774Z" fill="#fff"></path>
                    <path data-name="Path 13" d="M202.407 4.072h-19.421l-1.949 6.966h15.621l-1.063 3.8h-15.621l-1.946 6.967h19.421l-1.063 3.8h-23.223L180.249.272h23.221Z" fill="#fff"></path>
                    <path data-name="Path 14" d="M204.51 25.332h-4.538L207.057 0h3.8l-5.669 20.266 14.068-12.56 7.041 12.56L231.967 0h3.8l-7.089 25.332h-4.5l-6.574-11.716Z" fill="#fff"></path>
                </g>
            </g>
        </g>
    </symbol>

    <symbol viewBox="0 0 50 50" id="menu" xmlns="http://www.w3.org/2000/svg">
        <path d="M5 8a2 2 0 1 0 0 4h40a2 2 0 1 0 0-4H5zm0 15a2 2 0 1 0 0 4h40a2 2 0 1 0 0-4H5zm0 15a2 2 0 1 0 0 4h40a2 2 0 1 0 0-4H5z"></path>
    </symbol>

    <symbol viewBox="0 0 50 50" id="close-menu" xmlns="http://www.w3.org/2000/svg">
        <path d="M9.156 6.313 6.312 9.155 22.157 25 6.22 40.969 9.03 43.78 25 27.844 40.938 43.78l2.843-2.843L27.844 25 43.687 9.156l-2.843-2.844L25 22.157Z"></path>
    </symbol>

    <symbol viewBox="0 0 997.483 1121.413" id="hero-logo" xmlns="http://www.w3.org/2000/svg">
        <defs>
            <filter id="aa" x="0" y="0" width="967.798" height="1026.459" filterUnits="userSpaceOnUse">
                <feOffset dx="-50" dy="3"></feOffset>
                <feGaussianBlur stdDeviation="49.5" result="blur"></feGaussianBlur>
                <feFlood flood-opacity=".314"></feFlood>
                <feComposite operator="in" in2="blur"></feComposite>
                <feComposite in="SourceGraphic"></feComposite>
            </filter>
        </defs>
        <g data-name="Group 117">
            <g data-name="Group 116">
                <g data-name="Group 56" fill="#040504">
                    <path data-name="Path 15" d="M246.599 881.508h23.7L240.65 987.493h-22.966l19.89-71.1c-15.876 14.138-33.046 29.738-48.694 43.578l-24.508-43.429-19.848 70.951h-22.817l29.647-105.985h23.553l23.936 42.84Z"></path>
                    <path data-name="Path 16" d="M371.869 881.502c11.92 0 19.068 9.725 15.69 21.794l-17.457 62.411c-3.372 12.074-15.956 21.788-27.881 21.788h-62.417c-12.069 0-19.068-9.714-15.69-21.788l17.461-62.411c3.373-12.069 15.807-21.794 27.881-21.794ZM287.26 964.53h60.063l16.8-60.057h-60.065Z"></path>
                    <path data-name="Path 17" d="m510.537 881.507-6.421 22.965h-41.514l-23.225 83.02h-22.966l23.225-83.02h-41.514l6.427-22.965Z"></path>
                    <path data-name="Path 18" d="M605.484 881.502c11.92 0 19.068 9.725 15.69 21.794l-17.461 62.411c-3.372 12.074-15.955 21.788-27.881 21.788h-62.417c-12.069 0-19.068-9.714-15.69-21.788l17.461-62.411c3.373-12.069 15.807-21.794 27.881-21.794Zm-84.613 83.028h60.062l16.8-60.057h-60.064Z"></path>
                    <path data-name="Path 19" d="M735.589 930.525c-2.927 10.451-13.893 19.137-24.493 19.137h-10.738l19.917 35.628-.62 2.206h-18.84l-21.217-37.834h-36.209a20.892 20.892 0 0 1-3.155-.292l-10.669 38.126h-15.9l29.611-105.845h86.851c10.6 0 16.709 8.686 13.781 19.137Zm-20.044 3.24a4.645 4.645 0 0 0 4.141-3.24l8.32-29.737a2.387 2.387 0 0 0-2.333-3.235h-67.709a4.652 4.652 0 0 0-4.147 3.235l-8.314 29.737a2.387 2.387 0 0 0 2.333 3.24Z"></path>
                    <path data-name="Path 20" d="M857.909 897.405h-81.256l-8.155 29.148h65.36l-4.444 15.9h-65.366l-8.15 29.148h81.257l-4.449 15.9h-97.154l29.647-105.993h97.16Z"></path>
                    <path data-name="Path 21" d="M866.701 986.355h-18.984l29.647-105.988h15.9l-23.722 84.788 58.864-52.554 29.461 52.554 23.719-84.788h15.9l-29.649 105.988h-18.836l-27.51-49.023Z"></path>
                    <path data-name="Path 22" d="M246.599 1015.425h23.7l-29.649 105.988h-22.966l19.89-71.1c-15.876 14.135-33.046 29.735-48.694 43.575l-24.508-43.433-19.848 70.958h-22.817l29.647-105.988h23.553l23.937 42.84Z"></path>
                    <path data-name="Path 23" d="M371.869 1015.419c11.92 0 19.068 9.72 15.69 21.788l-17.461 62.417c-3.372 12.074-15.956 21.788-27.881 21.788h-62.413c-12.069 0-19.068-9.714-15.69-21.788l17.461-62.417c3.372-12.069 15.807-21.788 27.881-21.788Zm-84.609 83.031h60.063l16.8-60.063h-60.065Z"></path>
                    <path data-name="Path 24" d="m510.537 1015.423-6.421 22.966h-41.514l-23.225 83.022h-22.966l23.225-83.023h-41.514l6.427-22.965Z"></path>
                    <path data-name="Path 25" d="M605.484 1015.419c11.92 0 19.068 9.72 15.69 21.788l-17.461 62.417c-3.372 12.074-15.955 21.788-27.881 21.788h-62.417c-12.069 0-19.068-9.714-15.69-21.788l17.461-62.417c3.372-12.069 15.807-21.788 27.881-21.788Zm-84.613 83.031h60.062l16.8-60.063h-60.064Z"></path>
                    <path data-name="Path 26" d="M735.589 1064.442c-2.927 10.451-13.893 19.137-24.493 19.137h-10.738l19.917 35.628-.62 2.206h-18.84l-21.217-37.834h-36.209a20.9 20.9 0 0 1-3.155-.292l-10.669 38.126h-15.9l29.611-105.842h86.851c10.6 0 16.709 8.686 13.781 19.137Zm-20.044 3.24a4.645 4.645 0 0 0 4.141-3.24l8.32-29.737a2.387 2.387 0 0 0-2.333-3.235h-67.709a4.652 4.652 0 0 0-4.147 3.235l-8.314 29.737a2.387 2.387 0 0 0 2.333 3.24Z"></path>
                    <path data-name="Path 27" d="M857.909 1031.322h-81.256l-8.155 29.148h65.36l-4.444 15.9h-65.366l-8.15 29.148h81.257l-4.449 15.9h-97.154l29.647-105.993h97.16Z"></path>
                    <path data-name="Path 28" d="M866.701 1120.271h-18.984l29.647-105.988h15.9l-23.718 84.789 58.864-52.554 29.461 52.554 23.719-84.789h15.9l-29.653 105.988h-18.836l-27.515-49.023Z"></path>
                </g>
                <g data-name="Group 65">
                    <path data-name="Path 15" d="M246.599 93.982h23.7L240.65 199.967h-22.966l19.89-71.1c-15.876 14.138-33.046 29.738-48.694 43.578l-24.508-43.429-19.848 70.951h-22.817l29.647-105.985h23.553l23.936 42.84Z" fill="#040504"></path>
                    <path data-name="Path 16" d="M371.869 93.976c11.92 0 19.068 9.725 15.69 21.794l-17.457 62.411c-3.372 12.074-15.956 21.788-27.881 21.788h-62.417c-12.069 0-19.068-9.714-15.69-21.788l17.461-62.411c3.373-12.069 15.807-21.794 27.881-21.794Zm-84.609 83.028h60.063l16.8-60.057h-60.065Z" fill="#040504"></path>
                    <path data-name="Path 17" d="m510.537 93.981-6.421 22.965h-41.514l-23.225 83.02h-22.966l23.225-83.02h-41.514l6.427-22.965Z" fill="#040504"></path>
                    <path data-name="Path 18" d="M605.484 93.976c11.92 0 19.068 9.725 15.69 21.794l-17.461 62.411c-3.372 12.074-15.955 21.788-27.881 21.788h-62.417c-12.069 0-19.068-9.714-15.69-21.788l17.461-62.411c3.373-12.069 15.807-21.794 27.881-21.794Zm-84.613 83.028h60.062l16.8-60.057h-60.064Z" fill="#040504"></path>
                    <path data-name="Path 19" d="M735.589 142.999c-2.927 10.451-13.893 19.137-24.493 19.137h-10.738l19.917 35.628-.62 2.206h-18.84l-21.217-37.834h-36.209a20.892 20.892 0 0 1-3.155-.292l-10.669 38.126h-15.9l29.611-105.845h86.851c10.6 0 16.709 8.686 13.781 19.137Zm-20.044 3.24a4.645 4.645 0 0 0 4.141-3.24l8.32-29.737a2.387 2.387 0 0 0-2.333-3.235h-67.709a4.652 4.652 0 0 0-4.147 3.235l-8.314 29.737a2.387 2.387 0 0 0 2.333 3.24Z" fill="#040504"></path>
                    <path data-name="Path 20" d="M857.909 109.879h-81.256l-8.155 29.148h65.36l-4.444 15.9h-65.366l-8.15 29.148h81.257l-4.449 15.9h-97.154l29.647-105.993h97.16Z" fill="#040504"></path>
                    <path data-name="Path 21" d="M866.701 198.829h-18.984l29.647-105.988h15.9l-23.722 84.788 58.864-52.554 29.461 52.554 23.719-84.788h15.9l-29.649 105.988h-18.836l-27.51-49.023Z" fill="#040504"></path>
                    <path data-name="Path 22" d="M246.599 227.899h23.7L240.65 333.887h-22.966l19.89-71.1c-15.876 14.135-33.046 29.735-48.694 43.575l-24.508-43.433-19.848 70.958h-22.817l29.647-105.988h23.553l23.937 42.84Z" fill="#040504"></path>
                    <path data-name="Path 23" d="M371.869 227.893c11.92 0 19.068 9.72 15.69 21.788l-17.461 62.417c-3.372 12.074-15.956 21.788-27.881 21.788h-62.413c-12.069 0-19.068-9.714-15.69-21.788l17.461-62.417c3.372-12.069 15.807-21.788 27.881-21.788Zm-84.609 83.031h60.063l16.8-60.063h-60.065Z" fill="#040504"></path>
                    <path data-name="Path 24" d="m510.537 227.897-6.421 22.966h-41.514l-23.225 83.022h-22.966l23.225-83.023h-41.514l6.427-22.965Z" fill="#040504"></path>
                    <path data-name="Path 25" d="M605.484 227.893c11.92 0 19.068 9.72 15.69 21.788l-17.461 62.417c-3.372 12.074-15.955 21.788-27.881 21.788h-62.417c-12.069 0-19.068-9.714-15.69-21.788l17.461-62.417c3.372-12.069 15.807-21.788 27.881-21.788Zm-84.613 83.031h60.062l16.8-60.063h-60.064Z" fill="#040504"></path>
                    <path data-name="Path 26" d="M735.589 276.916c-2.927 10.451-13.893 19.137-24.493 19.137h-10.738l19.917 35.628-.62 2.206h-18.84l-21.217-37.834h-36.209a20.9 20.9 0 0 1-3.155-.292l-10.669 38.126h-15.9l29.611-105.842h86.851c10.6 0 16.709 8.686 13.781 19.137Zm-20.044 3.24a4.645 4.645 0 0 0 4.141-3.24l8.32-29.737a2.387 2.387 0 0 0-2.333-3.235h-67.709a4.652 4.652 0 0 0-4.147 3.235l-8.314 29.737a2.387 2.387 0 0 0 2.333 3.24Z" fill="#040504"></path>
                    <path data-name="Path 27" d="M857.909 243.796h-81.256l-8.155 29.148h65.36l-4.444 15.9h-65.366l-8.15 29.148h81.257l-4.449 15.9h-97.154l29.647-105.993h97.16Z" fill="#040504"></path>
                    <path data-name="Path 28" d="M866.701 332.745h-18.984l29.647-105.988h15.9l-23.718 84.789 58.864-52.554 29.461 52.554 23.719-84.789h15.9l-29.653 105.988h-18.836l-27.515-49.023Z" fill="#040504"></path>
                    <path data-name="Path 29" d="M246.599 361.81h23.7L240.65 467.798h-22.966l19.89-71.1c-15.876 14.137-33.046 29.737-48.694 43.577l-24.508-43.431-19.848 70.954h-22.817l29.647-105.988h23.553l23.936 42.84Z" fill="#040504"></path>
                    <path data-name="Path 30" d="M371.869 361.81c11.92 0 19.068 9.72 15.69 21.788l-17.461 62.417c-3.372 12.074-15.956 21.788-27.881 21.788h-62.413c-12.069 0-19.068-9.714-15.69-21.788l17.461-62.417c3.372-12.069 15.807-21.788 27.881-21.788Zm-84.609 83.028h60.063l16.8-60.062h-60.065Z" fill="#040504"></path>
                    <path data-name="Path 31" d="m510.537 361.812-6.421 22.966h-41.514l-23.225 83.023h-22.966l23.225-83.023h-41.514l6.427-22.966Z" fill="#040504"></path>
                    <path data-name="Path 32" d="M605.484 361.81c11.92 0 19.068 9.72 15.69 21.788l-17.461 62.417c-3.372 12.074-15.955 21.788-27.881 21.788h-62.417c-12.069 0-19.068-9.714-15.69-21.788l17.461-62.417c3.372-12.069 15.807-21.788 27.881-21.788Zm-84.613 83.028h60.062l16.8-60.062h-60.064Z" fill="#040504"></path>
                    <path data-name="Path 33" d="M735.589 410.833c-2.927 10.451-13.893 19.137-24.493 19.137h-10.738l19.917 35.628-.62 2.206h-18.84l-21.216-37.834h-36.21a20.893 20.893 0 0 1-3.155-.292l-10.671 38.129h-15.9l29.61-105.845h86.851c10.6 0 16.709 8.686 13.781 19.137Zm-20.044 3.24a4.645 4.645 0 0 0 4.141-3.24l8.32-29.737a2.387 2.387 0 0 0-2.333-3.235h-67.709a4.652 4.652 0 0 0-4.147 3.235l-8.314 29.737a2.387 2.387 0 0 0 2.333 3.24Z" fill="#040504"></path>
                    <path data-name="Path 34" d="M857.909 377.711h-81.256l-8.156 29.148h65.36l-4.444 15.9h-65.365l-8.15 29.148h81.257l-4.449 15.9h-97.154l29.647-105.993h97.16Z" fill="#040504"></path>
                    <path data-name="Path 35" d="M866.701 466.663h-18.984l29.647-105.991h15.9l-23.722 84.791 58.864-52.554 29.462 52.554 23.719-84.789h15.9l-29.65 105.989h-18.836l-27.51-49.023Z" fill="#040504"></path>
                    <path data-name="Path 36" d="M246.599 495.727h23.7L240.65 601.715h-22.966l19.89-71.1c-15.876 14.133-33.046 29.733-48.694 43.575l-24.508-43.429-19.848 70.954h-22.817l29.647-105.988h23.553l23.936 42.84Z" fill="#040504"></path>
                    <path data-name="Path 37" d="M371.869 495.727c11.92 0 19.068 9.72 15.69 21.788l-17.461 62.417c-3.372 12.074-15.956 21.788-27.881 21.788h-62.413c-12.069 0-19.068-9.714-15.69-21.788l17.461-62.417c3.373-12.067 15.807-21.788 27.881-21.788Zm-84.609 83.028h60.063l16.8-60.063h-60.065Z" fill="#040504"></path>
                    <path data-name="Path 38" d="m510.537 495.728-6.421 22.966h-41.514l-23.225 83.022h-22.966l23.225-83.022h-41.514l6.427-22.966Z" fill="#040504"></path>
                    <path data-name="Path 39" d="M605.484 495.727c11.92 0 19.068 9.72 15.69 21.788l-17.461 62.417c-3.372 12.074-15.955 21.788-27.881 21.788h-62.417c-12.069 0-19.068-9.714-15.69-21.788l17.461-62.417c3.372-12.069 15.807-21.788 27.881-21.788Zm-84.613 83.028h60.062l16.8-60.063h-60.064Z" fill="#040504"></path>
                    <path data-name="Path 40" d="M735.589 544.75c-2.927 10.451-13.893 19.137-24.493 19.137h-10.738l19.917 35.628-.62 2.206h-18.84l-21.216-37.834h-36.21a20.888 20.888 0 0 1-3.155-.292l-10.669 38.126h-15.9l29.61-105.845h86.851c10.6 0 16.709 8.686 13.781 19.137Zm-20.044 3.24a4.645 4.645 0 0 0 4.141-3.24l8.32-29.737a2.387 2.387 0 0 0-2.333-3.235h-67.709a4.652 4.652 0 0 0-4.147 3.235l-8.314 29.737a2.388 2.388 0 0 0 2.333 3.24Z" fill="#040504"></path>
                    <path data-name="Path 41" d="M857.909 511.627h-81.256l-8.155 29.148h65.36l-4.444 15.9h-65.366l-8.15 29.148h81.257l-4.449 15.9h-97.154l29.647-105.994h97.16Z" fill="#040504"></path>
                    <path data-name="Path 42" d="M866.701 600.576h-18.984l29.647-105.988h15.9l-23.718 84.788 58.86-52.552 29.461 52.554 23.719-84.788h15.9l-29.649 105.986h-18.836l-27.51-49.023Z" fill="#040504"></path>
                    <path data-name="Path 43" d="M246.599 629.645h23.7L240.65 735.633h-22.966l19.89-71.1c-15.876 14.134-33.046 29.735-48.694 43.578l-24.508-43.432-19.848 70.954h-22.817l29.647-105.988h23.553l23.936 42.84Z" fill="#040504"></path>
                    <path data-name="Path 44" d="M371.869 629.639c11.92 0 19.068 9.72 15.69 21.788l-17.461 62.417c-3.372 12.074-15.956 21.788-27.881 21.788h-62.413c-12.069 0-19.068-9.714-15.69-21.788l17.461-62.417c3.372-12.069 15.807-21.788 27.881-21.788Zm-84.609 83.028h60.063l16.8-60.062h-60.065Z" fill="#040504"></path>
                    <path data-name="Path 45" d="m510.537 629.644-6.421 22.966h-41.514l-23.225 83.022h-22.966l23.225-83.022h-41.514l6.427-22.966Z" fill="#040504"></path>
                    <path data-name="Path 46" d="M605.484 629.639c11.92 0 19.068 9.72 15.69 21.788l-17.461 62.417c-3.372 12.074-15.955 21.788-27.881 21.788h-62.417c-12.069 0-19.068-9.714-15.69-21.788l17.461-62.417c3.372-12.069 15.807-21.788 27.881-21.788Zm-84.613 83.028h60.062l16.8-60.062h-60.064Z" fill="#040504"></path>
                    <path data-name="Path 47" d="M735.589 678.662c-2.927 10.451-13.893 19.137-24.493 19.137h-10.738l19.917 35.628-.62 2.206h-18.84l-21.216-37.834h-36.21a20.891 20.891 0 0 1-3.155-.292l-10.669 38.126h-15.9l29.61-105.845h86.851c10.6 0 16.709 8.686 13.781 19.137Zm-20.044 3.24a4.645 4.645 0 0 0 4.141-3.24l8.32-29.737a2.387 2.387 0 0 0-2.333-3.235h-67.709a4.652 4.652 0 0 0-4.147 3.235l-8.314 29.737a2.388 2.388 0 0 0 2.333 3.24Z" fill="#040504"></path>
                    <path data-name="Path 48" d="M857.909 645.542h-81.256l-8.155 29.148h65.36l-4.444 15.9h-65.366l-8.15 29.148h81.257l-4.449 15.9h-97.154l29.647-105.993h97.16Z" fill="#040504"></path>
                    <path data-name="Path 49" d="M866.701 734.492h-18.984l29.647-105.988h15.9l-23.718 84.789 58.864-52.554 29.461 52.554 23.719-84.789h15.9l-29.653 105.988h-18.836l-27.51-49.022Z" fill="#040504"></path>
                    <path data-name="Path 50" d="M246.599 763.562h23.7L240.65 869.55h-22.966l19.89-71.1c-15.876 14.137-33.046 29.737-48.694 43.577l-24.508-43.431-19.848 70.954h-22.817l29.647-105.988h23.553l23.936 42.84Z" fill="#040504"></path>
                    <path data-name="Path 51" d="M371.869 763.556c11.92 0 19.068 9.72 15.69 21.788l-17.461 62.417c-3.372 12.074-15.956 21.788-27.881 21.788h-62.413c-12.069 0-19.068-9.714-15.69-21.788l17.461-62.417c3.372-12.069 15.807-21.788 27.881-21.788Zm-84.609 83.028h60.063l16.8-60.063h-60.065Z" fill="#040504"></path>
                    <path data-name="Path 52" d="m510.537 763.56-6.421 22.966h-41.514l-23.225 83.022h-22.966l23.225-83.023h-41.514l6.427-22.966Z" fill="#040504"></path>
                    <path data-name="Path 53" d="M605.484 763.556c11.92 0 19.068 9.72 15.69 21.788l-17.461 62.417c-3.372 12.074-15.955 21.788-27.881 21.788h-62.417c-12.069 0-19.068-9.714-15.69-21.788l17.461-62.417c3.372-12.069 15.807-21.788 27.881-21.788Zm-84.613 83.028h60.062l16.8-60.063h-60.064Z" fill="#040504"></path>
                    <path data-name="Path 54" d="M735.589 812.579c-2.927 10.451-13.893 19.137-24.493 19.137h-10.738l19.917 35.628-.62 2.206h-18.84l-21.216-37.834h-36.21a20.9 20.9 0 0 1-3.155-.292l-10.669 38.126h-15.9l29.61-105.845h86.851c10.6 0 16.709 8.686 13.781 19.137Zm-20.044 3.24a4.645 4.645 0 0 0 4.141-3.24l8.32-29.737a2.387 2.387 0 0 0-2.333-3.235h-67.709a4.652 4.652 0 0 0-4.147 3.235l-8.314 29.737a2.387 2.387 0 0 0 2.333 3.24Z" fill="#040504"></path>
                    <path data-name="Path 55" d="M857.909 779.458h-81.256l-8.155 29.148h65.36l-4.444 15.9h-65.366l-8.15 29.148h81.257l-4.449 15.9h-97.154l29.647-105.993h97.16Z" fill="#040504"></path>
                    <path data-name="Path 56" d="M866.701 868.408h-18.984l29.647-105.988h15.9l-23.718 84.789 58.864-52.554 29.461 52.554 23.719-84.789h15.9l-29.653 105.988h-18.836l-27.51-49.023Z" fill="#040504"></path>
                    <path data-name="Rectangle 4" fill="none" d="M121.707 92.842h875.777V869.55H121.707z"></path>
                </g>
            </g>
            <g data-name="Group 115">
                <g filter="url('#aa')">
                    <path data-name="Path 57" d="M852.99 177.278a79.551 79.551 0 0 0-63.923-31.777H368.258l-169.76 602.421h150l-27.857 75.7 291.3 50.165a80.122 80.122 0 0 0 90.335-55.771l21.237-70.1h1.687l141.045-500.5a79.545 79.545 0 0 0-13.248-70.14" fill="#040504"></path>
                </g>
                <path data-name="Path 58" d="M383.298 700.082H261.679l142.796-506.748h121.623Z" fill="#ffc100"></path>
                <path data-name="Path 59" d="M536.142 700.082H414.519l142.796-506.748h121.622Z" fill="#f26319"></path>
                <path data-name="Path 60" d="M688.981 700.082H567.358l142.795-506.748h78.915a32.337 32.337 0 0 1 31.126 41.1Z" fill="#e60019"></path>
                <path data-name="Path 61" d="m385.37 786.234 20.691-56.225 272.875.035-22.442 74.109a32.33 32.33 0 0 1-36.434 22.491Z" fill="#f26319"></path>
            </g>
        </g>
</symbol>

<symbol id="service-1" viewBox="0 0 266.42 263.18" xmlns="http://www.w3.org/2000/svg">
    <defs>
        <style>.acls-3, .acls-4 {
  stroke-width: 0;
}
</style>
    </defs>
    <g id="aLayer_1-2">
        <g id="aGroup_107" style="opacity: .38">
            <path d="M53.05 211.03H0l.54-1.91L59.46 0h53.05l-.54 1.91-58.93 209.12Zm-49.08-3h46.81L108.55 3H61.74L3.96 208.03Z" style="fill: #fcc210; stroke-width: 0"></path>
            <path class="acls-4" d="M115.79 211.03H62.74l.54-1.91L122.21 0h53.04l-.54 1.91-58.93 209.12Zm-49.08-3h46.81L171.29 3h-46.81L66.71 208.03Z" style="fill: #f16422"></path> 
            <path d="M178.53 211.03h-53.04l.54-1.91L184.95 0h33.54c8.15 0 14.77 6.63 14.77 14.78 0 1.35-.19 2.7-.55 4l-54.17 192.25Zm-49.08-3h46.81l53.56-190.06c.29-1.04.44-2.11.44-3.19 0-6.49-5.28-11.78-11.77-11.78h-31.26l-57.77 205.03Z" style="stroke-width: 0; fill: #e51e26"></path>
            <path class="acls-4" d="M151.36 263.18c-.83 0-1.67-.07-2.51-.21l-98.12-16.9 9.48-25.75 115.09.02-9.8 32.36c-1.91 6.31-7.74 10.49-14.14 10.49Zm-96.57-19.46L149.36 260c5.84 1.01 11.55-2.51 13.27-8.19l8.63-28.49-108.95-.02-7.51 20.41Z" style="fill: #f16422"></path>
        </g>
        <g id="aGroup_109">
            <path id="aPath_158" class="acls-3" d="M116.05 173.08c-26.39 0-47.78-21.4-47.78-47.79s21.4-47.78 47.79-47.78 47.78 21.39 47.78 47.78c-.03 26.38-21.41 47.76-47.79 47.79m0-89.46c-23.02 0-41.68 18.66-41.68 41.68s18.66 41.68 41.68 41.68 41.68-18.66 41.68-41.68c-.03-23.01-18.67-41.65-41.68-41.68"></path>
            <path id="aPath_159" class="acls-3" d="M205.45 173.08c-26.39 0-47.78-21.39-47.79-47.78 0-26.39 21.39-47.79 47.78-47.79s47.79 21.39 47.79 47.78c-.03 26.38-21.41 47.75-47.79 47.79m0-89.46c-23.02 0-41.68 18.66-41.68 41.68s18.66 41.68 41.68 41.68 41.68-18.66 41.68-41.68c-.03-23.01-18.67-41.65-41.68-41.68"></path>
            <path id="aPath_160" class="acls-3" d="M263.36 128.35a3.05 3.05 0 0 1-3.05-3.05c0-30.3-24.56-54.86-54.86-54.86-16.39 0-31.92 7.33-42.34 19.98a3.164 3.164 0 0 1-4.47.24l-.24-.24c-19.26-23.38-53.84-26.72-77.22-7.46A54.855 54.855 0 0 0 61.2 125.3a3.052 3.052 0 0 1-3 3.11 3.052 3.052 0 0 1-3.11-3v-.11c0-33.67 27.3-60.97 60.97-60.96 16.96 0 33.16 7.07 44.69 19.5 22.9-24.68 61.47-26.13 86.16-3.23a60.984 60.984 0 0 1 19.5 44.69c0 1.69-1.37 3.05-3.05 3.06"></path>
            <path id="aPath_161" class="acls-3" d="M82.76 128.34h-1.57a3.052 3.052 0 0 1-3-3.11 3.062 3.062 0 0 1 3-3h1.58c1.69.03 3.03 1.42 3 3.11a3.062 3.062 0 0 1-3 3"></path>
            <path id="aPath_162" class="acls-3" d="M83.9 119.73c-.27 0-.53-.03-.79-.1l-1.52-.41a3.054 3.054 0 0 1 1.58-5.9l1.52.41a3.052 3.052 0 0 1-.79 6"></path>
            <path id="aPath_163" class="acls-3" d="M87.22 111.7c-.54 0-1.06-.14-1.53-.41l-1.36-.79a3.055 3.055 0 0 1-1.25-4.14 3.055 3.055 0 0 1 4.31-1.15l1.36.79c1.46.84 1.97 2.71 1.13 4.17-.55.95-1.56 1.54-2.66 1.53"></path>
            <path id="aPath_164" class="acls-3" d="M92.51 104.8c-.81 0-1.59-.32-2.16-.9l-1.11-1.11a3.062 3.062 0 0 1 .15-4.32c1.17-1.1 3-1.09 4.17 0l1.11 1.11a3.06 3.06 0 0 1 0 4.32c-.57.57-1.35.89-2.16.89"></path>
            <path id="aPath_165" class="acls-3" d="M99.41 99.51c-1.09 0-2.1-.58-2.65-1.52l-.79-1.36a3.058 3.058 0 1 1 5.29-3.07l.79 1.36c.84 1.46.35 3.33-1.11 4.17-.46.27-.99.41-1.53.41"></path>
            <path id="aPath_166" class="acls-3" d="M107.43 96.19a3.06 3.06 0 0 1-2.95-2.26l-.41-1.52a3.054 3.054 0 0 1 5.9-1.58l.41 1.52c.44 1.63-.53 3.3-2.16 3.74-.26.07-.52.1-.79.1"></path>
            <path id="aPath_167" class="acls-3" d="M116.05 95.05c-1.69 0-3.05-1.37-3.06-3.05v-1.58a3.052 3.052 0 0 1 3.11-3c1.64.03 2.97 1.36 3 3V92c0 1.69-1.37 3.05-3.05 3.06"></path>
            <path id="aPath_168" class="acls-3" d="M124.67 96.19c-.27 0-.53-.03-.79-.1a3.052 3.052 0 0 1-2.16-3.74l.41-1.52a3.05 3.05 0 0 1 3.69-2.24 3.05 3.05 0 0 1 2.24 3.69c-.01.05-.02.09-.04.13l-.41 1.52a3.06 3.06 0 0 1-2.95 2.26"></path>
            <path id="aPath_169" class="acls-3" d="M132.7 99.51c-.54 0-1.06-.14-1.53-.41a3.044 3.044 0 0 1-1.11-4.17l.79-1.36a3.07 3.07 0 0 1 4.18-1.12c1.46.85 1.96 2.72 1.11 4.18l-.79 1.36c-.55.94-1.56 1.52-2.65 1.52"></path>
            <path id="aPath_170" class="acls-3" d="M139.6 104.8c-1.69 0-3.05-1.37-3.05-3.06 0-.81.32-1.59.89-2.16l1.11-1.11a3.06 3.06 0 0 1 4.32 0 3.048 3.048 0 0 1 0 4.31l-1.11 1.11c-.57.58-1.35.9-2.16.9"></path>
            <path id="aPath_171" class="acls-3" d="M144.89 111.7a3.05 3.05 0 0 1-3.06-3.04c0-1.1.58-2.11 1.53-2.66l1.36-.79c1.46-.85 3.33-.35 4.17 1.11.85 1.46.35 3.33-1.11 4.17l-1.37.79c-.46.27-.99.41-1.53.41"></path>
            <path id="aPath_172" class="acls-3" d="M148.21 119.73c-1.69 0-3.05-1.37-3.05-3.06 0-1.38.93-2.59 2.26-2.95l1.52-.41a3.055 3.055 0 0 1 1.58 5.9l-1.52.41c-.26.07-.52.1-.79.1"></path>
            <path id="aPath_173" class="acls-3" d="M150.92 128.34h-1.58a3.052 3.052 0 0 1-3-3.11 3.062 3.062 0 0 1 3-3h1.58a3.052 3.052 0 0 1 3.11 3 3.052 3.052 0 0 1-3 3.11h-.11"></path>
            <path id="aPath_174" class="acls-3" d="M116.05 129.42c-1.07 0-2.06-.56-2.62-1.48l-12.79-21.24a3.06 3.06 0 0 1 1.09-4.18c1.43-.84 3.27-.38 4.14 1.03l12.79 21.24c.87 1.44.4 3.32-1.04 4.19-.47.29-1.02.44-1.57.44"></path>
            <path id="aPath_175" class="acls-3" d="M172.15 128.34h-1.58a3.052 3.052 0 0 1-3.11-3 3.052 3.052 0 0 1 3-3.11H172.15a3.052 3.052 0 0 1 3.11 3 3.052 3.052 0 0 1-3 3.11h-.11"></path>
            <path id="aPath_176" class="acls-3" d="M173.29 119.73c-.27 0-.53-.03-.79-.1l-1.52-.41a3.05 3.05 0 0 1-2.24-3.69 3.05 3.05 0 0 1 3.69-2.24c.05.01.09.02.13.04l1.52.41a3.052 3.052 0 0 1-.79 6"></path>
            <path id="aPath_177" class="acls-3" d="M176.61 111.7c-.54 0-1.06-.14-1.53-.41l-1.37-.79c-1.48-.81-2.01-2.67-1.2-4.15.81-1.48 2.67-2.01 4.15-1.2.04.02.07.04.11.06l1.37.79c1.46.84 1.97 2.71 1.13 4.17-.55.95-1.56 1.54-2.66 1.53"></path>
            <path id="aPath_178" class="acls-3" d="M181.91 104.8c-.81 0-1.59-.32-2.16-.9l-1.12-1.11a3.06 3.06 0 0 1 0-4.32 3.048 3.048 0 0 1 4.31 0l1.12 1.11a3.06 3.06 0 0 1 0 4.32c-.57.57-1.35.89-2.16.89"></path>
            <path id="aPath_179" class="acls-3" d="M188.8 99.51c-1.09 0-2.1-.58-2.65-1.52l-.79-1.36c-.85-1.46-.35-3.33 1.11-4.17s3.33-.35 4.17 1.11l.79 1.36c.84 1.46.35 3.33-1.11 4.17-.46.27-.99.41-1.53.41"></path>
            <path id="aPath_180" class="acls-3" d="M196.83 96.19a3.06 3.06 0 0 1-2.95-2.26l-.41-1.52a3.056 3.056 0 0 1 5.9-1.59l.41 1.52c.44 1.63-.52 3.31-2.15 3.75-.26.07-.53.1-.79.1"></path>
            <path id="aPath_181" class="acls-3" d="M205.45 95.05c-1.69 0-3.05-1.37-3.06-3.05v-1.58a3.06 3.06 0 1 1 6.12 0V92c0 1.69-1.37 3.05-3.05 3.06"></path>
            <path id="aPath_182" class="acls-3" d="M214.07 96.19c-.27 0-.53-.03-.79-.1a3.07 3.07 0 0 1-2.16-3.75l.41-1.52a3.06 3.06 0 0 1 3.74-2.16 3.06 3.06 0 0 1 2.16 3.74l-.41 1.52a3.06 3.06 0 0 1-2.95 2.26"></path>
            <path id="aPath_183" class="acls-3" d="M222.09 99.51a3.051 3.051 0 0 1-2.64-4.58l.79-1.36a3.055 3.055 0 0 1 4.17-1.12c1.46.84 1.96 2.71 1.12 4.17l-.78 1.36c-.55.95-1.56 1.53-2.65 1.53"></path>
            <path id="aPath_184" class="acls-3" d="M228.99 104.8c-1.69 0-3.05-1.37-3.05-3.06 0-.81.32-1.59.89-2.16l1.12-1.11a3.051 3.051 0 0 1 4.32 0 3.051 3.051 0 0 1 0 4.32l-1.12 1.11c-.57.58-1.35.9-2.16.9"></path>
            <path id="aPath_185" class="acls-3" d="M234.29 111.7a3.05 3.05 0 0 1-3.06-3.04c0-1.1.58-2.11 1.53-2.66l1.37-.79c1.46-.85 3.33-.35 4.17 1.11.85 1.46.35 3.33-1.11 4.17l-1.37.79c-.46.27-.99.41-1.53.41"></path>
            <path id="aPath_186" class="acls-3" d="M237.6 119.73c-1.69 0-3.06-1.37-3.06-3.05 0-1.38.93-2.59 2.26-2.95l1.52-.41a3.054 3.054 0 0 1 1.58 5.9l-1.52.41c-.26.07-.53.1-.79.1"></path>
            <path id="aPath_187" class="acls-3" d="M240.32 128.34h-1.58a3.052 3.052 0 0 1-3.11-3 3.052 3.052 0 0 1 3-3.11H240.32c1.69.03 3.03 1.42 3 3.11a3.062 3.062 0 0 1-3 3"></path>
            <path id="aPath_188" class="acls-3" d="M205.45 129.42a3.061 3.061 0 0 1-2.93-3.93l7.19-23.96a3.045 3.045 0 0 1 3.79-2.07c1.62.47 2.55 2.17 2.07 3.79 0 .01 0 .02-.01.04l-7.19 23.95a3.054 3.054 0 0 1-2.92 2.18"></path>
            <path id="aPath_189" class="acls-3" d="M206.25 150.77h-12.79c-1.69.03-3.08-1.31-3.11-3s1.31-3.08 3-3.11H206.25c1.69.03 3.03 1.42 3 3.11a3.062 3.062 0 0 1-3 3"></path>
            <path id="aPath_190" class="acls-3" d="M217.44 150.77h-4.73c-1.69.03-3.08-1.31-3.11-3s1.31-3.08 3-3.11H217.44c1.69-.03 3.08 1.31 3.11 3s-1.31 3.08-3 3.11h-.11"></path>
        </g>
    </g>
</symbol>

<symbol id="service-2" viewBox="0 0 270.24 263.18" xmlns="http://www.w3.org/2000/svg">
    <defs>
        <style>.acls-3, .acls-4 {
  stroke-width: 0;
}
</style>
    </defs>
    <g id="aLayer_1-2">
        <g id="aGroup_108" style="opacity: .38">
            <path d="M53.05 211.03H0l.54-1.91L59.46 0h53.05l-.54 1.91-58.93 209.12Zm-49.08-3h46.81L108.55 3H61.74L3.96 208.03Z" style="fill: #fcc210; stroke-width: 0"></path>
            <path class="acls-4" d="M115.79 211.03H62.74l.54-1.91L122.21 0h53.04l-.54 1.91-58.93 209.12Zm-49.08-3h46.81L171.29 3h-46.81L66.71 208.03Z" style="fill: #f16422"></path>
            <path d="M178.53 211.03h-53.04l.54-1.91L184.95 0h33.54c8.15 0 14.77 6.63 14.77 14.78 0 1.35-.19 2.7-.55 4l-54.17 192.25Zm-49.08-3h46.81l53.56-190.06c.29-1.04.44-2.11.44-3.19 0-6.49-5.28-11.78-11.77-11.78h-31.26l-57.77 205.03Z" style="stroke-width: 0; fill: #e51e26"></path>
            <path class="acls-4" d="M151.36 263.18c-.83 0-1.67-.07-2.51-.21l-98.12-16.9 9.48-25.75 115.09.02-9.8 32.36c-1.91 6.31-7.74 10.49-14.14 10.49Zm-96.57-19.46L149.36 260c5.84 1.01 11.55-2.51 13.27-8.19l8.63-28.49-108.95-.02-7.51 20.41Z" style="fill: #f16422"></path>
        </g>
        <g id="aGroup_110">
            <path id="aPath_223" class="acls-3" d="M202.18 159.02c-.95 0-1.86-.38-2.52-1.05l-57.58-57.58a3.558 3.558 0 0 1 0-5.04l11.62-11.62a3.674 3.674 0 0 1 5.05 0l57.59 57.59a3.58 3.58 0 0 1 0 5.05l-11.62 11.62c-.67.67-1.58 1.05-2.52 1.05m-52.54-61.15 52.54 52.53 6.57-6.57-52.54-52.54-6.57 6.57Z"></path>
            <path id="aPath_224" class="acls-3" d="M207.83 141.44c-.95 0-1.85-.38-2.52-1.05l-45.64-45.64a3.58 3.58 0 0 1 .53-5.49l73.23-49.34c1.42-.96 3.31-.77 4.52.44l21.75 21.76c1.21 1.21 1.39 3.1.44 4.52l-49.35 73.22c-.59.89-1.55 1.46-2.62 1.56-.11.01-.23.02-.34.02m-40.05-48.67 39.51 39.51 45.28-67.2-17.6-17.59-67.19 45.28Z"></path>
            <path id="aPath_225" class="acls-3" d="M246.29 57.33c-1.97 0-3.57-1.6-3.57-3.57 0-.95.38-1.85 1.05-2.52l6.25-6.25c1.39-1.4 3.66-1.4 5.05 0 1.4 1.39 1.4 3.66 0 5.05l-6.25 6.25c-.67.67-1.58 1.05-2.52 1.05"></path>
            <path id="aPath_226" class="acls-3" d="M266.67 49.77c-.95 0-1.86-.38-2.52-1.05l-10.96-10.96a3.57 3.57 0 0 1 .09-5.05 3.562 3.562 0 0 1 4.96 0l10.96 10.96a3.575 3.575 0 0 1-2.52 6.1"></path>
            <path id="aPath_227" class="acls-3" d="M252.7 63.74c-1.97 0-3.57-1.6-3.57-3.57 0-.95.38-1.85 1.05-2.52l13.97-13.97a3.57 3.57 0 0 1 5.05.09 3.562 3.562 0 0 1 0 4.96L255.23 62.7c-.67.67-1.58 1.05-2.52 1.05"></path>
            <path id="aPath_228" class="acls-3" d="M155.33 112.18c-1.97 0-3.57-1.6-3.57-3.57 0-.95.38-1.85 1.05-2.52l11.62-11.62a3.57 3.57 0 0 1 5.05.09 3.562 3.562 0 0 1 0 4.96l-11.62 11.62c-.67.67-1.58 1.05-2.52 1.05"></path>
            <path id="aPath_229" class="acls-3" d="M191.45 148.3c-1.97 0-3.57-1.6-3.57-3.57 0-.95.38-1.85 1.05-2.52l11.62-11.62a3.57 3.57 0 1 1 5.05 5.05l-11.62 11.62c-.67.67-1.58 1.05-2.52 1.05"></path>
            <path id="aPath_230" class="acls-3" d="M205.97 77.59c-1.97 0-3.57-1.59-3.57-3.57 0-1.19.59-2.3 1.57-2.96l17.58-11.85c1.64-1.1 3.86-.67 4.96.97 1.1 1.64.67 3.86-.97 4.96l-17.58 11.85c-.59.4-1.28.61-1.99.61"></path>
            <path id="aPath_231" class="acls-3" d="M197.17 83.52c-1.97 0-3.57-1.59-3.58-3.56 0-1.19.59-2.31 1.58-2.97l.82-.55c1.62-1.13 3.84-.73 4.97.88s.73 3.84-.88 4.97l-.1.07-.82.55c-.59.4-1.28.61-1.99.61"></path>
            <path id="aPath_232" class="acls-3" d="M178.69 170.58c-.95 0-1.86-.38-2.52-1.05l-43.79-43.79a3.58 3.58 0 0 1 0-5.05l17.52-17.52a3.558 3.558 0 0 1 5.04 0l43.79 43.79a3.58 3.58 0 0 1 0 5.05l-17.52 17.52c-.67.67-1.58 1.05-2.52 1.05m-38.74-47.36 38.74 38.74 12.47-12.47-38.74-38.74-12.47 12.47Z"></path>
            <path id="aPath_233" class="acls-3" d="M165.29 172.43c-.95 0-1.86-.38-2.52-1.05l-32.23-32.23a3.57 3.57 0 0 1 .09-5.05 3.562 3.562 0 0 1 4.96 0l32.23 32.23a3.575 3.575 0 0 1-2.52 6.1"></path>
            <path id="aPath_234" class="acls-3" d="M157.4 180.32c-.95 0-1.86-.38-2.52-1.05l-32.23-32.24a3.57 3.57 0 0 1 .09-5.05 3.562 3.562 0 0 1 4.96 0l32.23 32.23a3.575 3.575 0 0 1-2.52 6.1"></path>
            <path id="aPath_235" class="acls-3" d="M149.51 188.2c-.95 0-1.86-.38-2.52-1.05l-32.23-32.23a3.58 3.58 0 0 1 .16-5.05 3.56 3.56 0 0 1 4.88 0l32.23 32.23a3.575 3.575 0 0 1-2.52 6.1"></path>
            <path id="aPath_236" class="acls-3" d="M141.62 196.09c-.95 0-1.85-.38-2.52-1.05l-32.23-32.23a3.57 3.57 0 0 1 .09-5.05 3.562 3.562 0 0 1 4.96 0l32.23 32.23a3.58 3.58 0 0 1 0 5.05c-.67.67-1.57 1.04-2.52 1.04"></path>
            <path id="aPath_237" class="acls-3" d="M123.28 193.53c-.95 0-1.85-.38-2.52-1.05l-11.34-11.34a3.57 3.57 0 0 1 .09-5.05 3.562 3.562 0 0 1 4.96 0l11.34 11.34a3.575 3.575 0 0 1-2.52 6.1"></path>
        </g>
    </g>
</symbol>

<symbol id="service-3" viewBox="0 0 276.7 263.18" xmlns="http://www.w3.org/2000/svg">
    <defs>
        <style>.acls-3, .acls-4 {
  stroke-width: 0;
}
</style>
    </defs>
    <g id="aLayer_1-2">
        <g id="aGroup_111" style="opacity: .38">
            <path d="M53.05 211.03H0l.54-1.91L59.46 0h53.05l-.54 1.91-58.93 209.12Zm-49.08-3h46.81L108.55 3H61.74L3.96 208.03Z" style="fill: #fcc210; stroke-width: 0"></path>
            <path class="acls-4" d="M115.79 211.03H62.74l.54-1.91L122.21 0h53.04l-.54 1.91-58.93 209.12Zm-49.08-3h46.81L171.29 3h-46.81L66.71 208.03Z" style="fill: #f16422"></path>
            <path d="M178.53 211.03h-53.04l.54-1.91L184.95 0h33.54c8.15 0 14.77 6.63 14.77 14.78 0 1.35-.19 2.7-.55 4l-54.17 192.25Zm-49.08-3h46.81l53.56-190.06c.29-1.04.44-2.11.44-3.19 0-6.49-5.28-11.78-11.77-11.78h-31.26l-57.77 205.03Z" style="stroke-width: 0; fill: #e51e26"></path>
            <path class="acls-4" d="M151.36 263.18c-.83 0-1.67-.07-2.51-.21l-98.12-16.9 9.48-25.75 115.09.02-9.8 32.36c-1.91 6.31-7.74 10.49-14.14 10.49Zm-96.57-19.46L149.36 260c5.84 1.01 11.55-2.51 13.27-8.19l8.63-28.49-108.95-.02-7.51 20.41Z" style="fill: #f16422"></path>
        </g>
        <g id="aGroup_112">
            <path id="aPath_238" class="acls-3" d="M208.05 146.47c-4.71 0-9.23-1.87-12.56-5.2l-21.14-21.14c-6.55-6.55-6.97-17.02-.98-24.07l1.89-35.75c.32-5.99 5.43-10.59 11.41-10.27 5.98.33 10.58 5.43 10.27 11.42l-.61 11.56 35.42-35.42c4.25-4.24 11.13-4.23 15.37.02.89.89 1.62 1.93 2.15 3.07l.36-.36c4.3-4.1 11.06-4.1 15.36 0 2.04 2.03 3.19 4.8 3.18 7.68 0 1.15-.18 2.29-.54 3.38 5.69 1.87 8.79 8.01 6.91 13.7-.53 1.61-1.44 3.08-2.64 4.28l-1.49 1.49c5.43 2.53 7.79 8.99 5.25 14.43-.54 1.15-1.27 2.19-2.16 3.09l-52.89 52.89a17.68 17.68 0 0 1-12.56 5.2m-21.96-89.32c-1.97 0-3.6 1.55-3.71 3.52l-1.96 37.04c-.05.88-.42 1.71-1.04 2.34-4.15 4.15-4.15 10.88 0 15.03l21.14 21.14c4.15 4.14 10.88 4.14 15.03 0l52.89-52.9a3.724 3.724 0 0 0 0-5.26 3.724 3.724 0 0 0-5.26 0 3.57 3.57 0 1 1-5.14-4.96l.09-.09 8.7-8.7a3.724 3.724 0 0 0 0-5.26 3.724 3.724 0 0 0-5.26 0 3.57 3.57 0 0 1-5.05-.09 3.562 3.562 0 0 1 0-4.96l3.38-3.38a3.724 3.724 0 0 0 0-5.26 3.8 3.8 0 0 0-5.26 0l-7.56 7.55-.02.02a3.57 3.57 0 0 1-5.05-.09 3.562 3.562 0 0 1 0-4.96h.01a3.727 3.727 0 0 0-.06-5.27 3.718 3.718 0 0 0-5.21.01l-42 42a3.58 3.58 0 0 1-5.05 0c-.71-.72-1.09-1.7-1.04-2.71l1.1-20.86c.11-2.05-1.47-3.8-3.52-3.91h-.2"></path>
            <path id="aPath_239" class="acls-3" d="M208.05 69.91c-1.97 0-3.57-1.6-3.57-3.57 0-.95.38-1.85 1.05-2.52l26.22-26.23a3.57 3.57 0 0 1 5.05.09 3.562 3.562 0 0 1 0 4.96l-26.22 26.23c-.67.67-1.58 1.05-2.52 1.05"></path>
            <path id="aPath_240" class="acls-3" d="M230.6 88.59c-1.97 0-3.57-1.6-3.57-3.57 0-.95.38-1.85 1.05-2.52l31.86-31.86c1.34-1.45 3.6-1.53 5.05-.19s1.53 3.6.19 5.05c-.06.07-.13.13-.19.19l-31.86 31.86c-.67.67-1.58 1.05-2.52 1.05"></path>
            <path id="aPath_241" class="acls-3" d="M220.29 78.28c-1.97 0-3.57-1.6-3.57-3.57 0-.95.38-1.85 1.05-2.52l31.86-31.86a3.57 3.57 0 0 1 5.05.09 3.562 3.562 0 0 1 0 4.96l-31.86 31.86c-.67.67-1.58 1.05-2.52 1.05"></path>
            <path id="aPath_242" class="acls-3" d="M240.9 98.89c-1.97 0-3.57-1.6-3.57-3.57 0-.95.38-1.85 1.05-2.52l28.48-28.48a3.57 3.57 0 1 1 5.14 4.96l-.09.09-28.48 28.48c-.67.67-1.58 1.05-2.52 1.05"></path>
            <path id="aPath_243" class="acls-3" d="M229.29 110.5c-.95 0-1.86-.38-2.52-1.05l-20.61-20.61a3.572 3.572 0 0 1 .15-5.05c1.37-1.3 3.52-1.3 4.9 0l20.61 20.61a3.575 3.575 0 0 1-2.52 6.1"></path>
            <path id="aPath_244" class="acls-3" d="M222.29 117.52c-.95 0-1.86-.38-2.52-1.05l-20.61-20.61a3.57 3.57 0 0 1 .09-5.05 3.562 3.562 0 0 1 4.96 0l20.61 20.61a3.575 3.575 0 0 1-2.52 6.1"></path>
            <path id="aPath_245" class="acls-3" d="M155.75 206.57c-.34 0-.68-.05-1-.14-.56-.16-13.77-4.12-27.6-17.95s-17.8-27.05-17.96-27.6c-.42-1.43.1-2.97 1.3-3.86l61.67-45.82c1.58-1.18 3.82-.84 4.99.74s.84 3.82-.74 4.99l-59.52 44.22c3.61 8.35 8.8 15.92 15.3 22.28a69.608 69.608 0 0 0 22.27 15.31l44.23-59.53a3.58 3.58 0 0 1 4.99-.8 3.58 3.58 0 0 1 .8 4.99c-.02.02-.03.05-.05.07l-45.81 61.67c-.67.91-1.74 1.44-2.87 1.44"></path>
            <path id="aPath_246" class="acls-3" d="M119.61 177.2c-1.97 0-3.57-1.59-3.57-3.56 0-1.05.46-2.04 1.25-2.72l32.28-27.69-1.52-11.85a3.572 3.572 0 0 1 3.09-4 3.6 3.6 0 0 1 3.99 3.09l1.77 13.76c.15 1.19-.3 2.38-1.21 3.16l-33.75 28.95c-.65.56-1.47.86-2.32.86"></path>
            <path id="aPath_247" class="acls-3" d="M141.99 199.58c-1.97 0-3.57-1.59-3.57-3.56 0-.85.3-1.68.86-2.33l28.95-33.74c.79-.9 1.97-1.35 3.16-1.21l13.76 1.77a3.57 3.57 0 0 1-.91 7.08l-11.85-1.52-27.7 32.28c-.68.79-1.67 1.25-2.71 1.25"></path>
            <path id="aPath_248" class="acls-3" d="M198.7 169.22c-.95 0-1.86-.38-2.52-1.05l-8.72-8.72a3.57 3.57 0 1 1 4.96-5.14l.09.09 8.72 8.72a3.575 3.575 0 0 1-2.52 6.1"></path>
            <path id="aPath_249" class="acls-3" d="M187.92 183.73c-.95 0-1.86-.38-2.52-1.05l-8.72-8.72a3.57 3.57 0 0 1 .09-5.05 3.562 3.562 0 0 1 4.96 0l8.72 8.72a3.575 3.575 0 0 1-2.52 6.1"></path>
            <path id="aPath_250" class="acls-3" d="M177.13 198.24c-.95 0-1.86-.38-2.52-1.05l-8.72-8.72a3.57 3.57 0 0 1 .09-5.05 3.562 3.562 0 0 1 4.96 0l8.72 8.72a3.575 3.575 0 0 1-2.52 6.1"></path>
        </g>
    </g>
</symbol>

<symbol id="service-4" viewBox="0 0 331.33 263.18" xmlns="http://www.w3.org/2000/svg">
    <defs>
        <clipPath id="aclippath">
            <path style="stroke-width: 0; fill: none" d="M152.09 27.8h179.24v179.24H152.09z"></path>
        </clipPath>
        <style>.acls-4, .acls-5 {
  stroke-width: 0;
}
</style>
    </defs>
    <g id="aLayer_1-2">
        <g id="aGroup_113" style="opacity: .38">
            <path d="M53.04 211.03H0l.54-1.91L59.46 0h53.04l-.54 1.91-58.93 209.12Zm-49.08-3h46.81L108.55 3H61.74L3.96 208.03Z" style="fill: #fcc210; stroke-width: 0"></path>
            <path class="acls-5" d="M115.79 211.03H62.75l.54-1.91L122.21 0h53.04l-.54 1.91-58.93 209.12Zm-49.08-3h46.81L171.29 3h-46.81L66.71 208.03Z" style="fill: #f16422"></path>
            <path d="M178.53 211.03h-53.04l.54-1.91L184.95 0h33.54c8.15 0 14.77 6.63 14.77 14.78 0 1.35-.19 2.7-.55 4l-54.18 192.25Zm-49.08-3h46.81l53.56-190.06c.29-1.04.44-2.11.44-3.19 0-6.49-5.28-11.78-11.77-11.78h-31.26l-57.77 205.03Z" style="fill: #e51e26; stroke-width: 0"></path>
            <path class="acls-5" d="M151.36 263.18c-.83 0-1.67-.07-2.51-.21l-98.12-16.9 9.48-25.75 115.09.02-9.8 32.36c-1.91 6.31-7.74 10.49-14.14 10.49Zm-96.57-19.46L149.36 260c5.85 1.01 11.55-2.51 13.27-8.19l8.63-28.49-108.95-.02-7.51 20.41Z" style="fill: #f16422"></path>
        </g>
        <g style="clip-path: url(&quot;#aclippath&quot;)" id="aGroup_114">
            <g id="aGroup_94">
                <path id="aPath_251" class="acls-4" d="M241.71 181.29c-35.28 0-63.88-28.6-63.88-63.88s28.6-63.88 63.88-63.88 63.88 28.6 63.88 63.88c-.04 35.26-28.62 63.84-63.88 63.88m0-120.53c-31.29 0-56.65 25.36-56.65 56.65s25.36 56.65 56.65 56.65 56.65-25.36 56.65-56.65c-.04-31.27-25.38-56.61-56.65-56.65"></path>
                <path id="aPath_252" class="acls-4" d="M241.71 207.03c-1.84 0-3.38-1.38-3.59-3.2-.28-2.5-1.05-4.92-2.26-7.12a25.14 25.14 0 0 0-4.17-5.4c-3.04-.42-6.05-1.02-9.01-1.81-2.11.87-4.1 2.02-5.92 3.41a19.205 19.205 0 0 0-4.8 5.7 3.614 3.614 0 0 1-4.91 1.42 3.626 3.626 0 0 1-1.73-4.17c.7-2.41.92-4.93.64-7.43-.3-2.26-.89-4.46-1.76-6.57a73.121 73.121 0 0 1-7.66-5.14c-2.29 0-4.56.29-6.77.89-2.41.7-4.66 1.87-6.62 3.43a3.62 3.62 0 0 1-5.08-.57 3.608 3.608 0 0 1 0-4.5c1.57-1.96 2.73-4.21 3.44-6.63.59-2.21.89-4.48.88-6.77a76.054 76.054 0 0 1-5.15-7.67c-2.1-.87-4.3-1.47-6.55-1.76-2.5-.27-5.02-.05-7.43.64-1.92.55-3.92-.55-4.48-2.47-.47-1.62.25-3.35 1.72-4.16 2.2-1.21 4.14-2.84 5.72-4.8 1.39-1.81 2.53-3.8 3.4-5.92-.79-2.96-1.39-5.98-1.8-9.01a25.14 25.14 0 0 0-5.4-4.17c-2.2-1.21-4.61-1.97-7.1-2.25a3.62 3.62 0 0 1-.02-7.19c2.5-.28 4.91-1.05 7.11-2.26a25.14 25.14 0 0 0 5.4-4.17 72.54 72.54 0 0 1 1.8-9.01c-.87-2.11-2.01-4.1-3.4-5.91a19.418 19.418 0 0 0-5.71-4.8 3.607 3.607 0 0 1-1.41-4.91 3.63 3.63 0 0 1 4.16-1.73c2.41.7 4.94.91 7.43.64a26.2 26.2 0 0 0 6.56-1.76c1.56-2.66 3.28-5.21 5.15-7.66 0-2.29-.29-4.57-.88-6.77-.7-2.41-1.87-4.66-3.44-6.62a3.61 3.61 0 0 1 .57-5.08 3.622 3.622 0 0 1 4.51 0c1.96 1.57 4.21 2.73 6.62 3.44 2.21.59 4.48.89 6.77.88 2.45-1.87 5.01-3.59 7.66-5.15.87-2.1 1.46-4.3 1.76-6.56.28-2.49.06-5.02-.64-7.43-.55-1.92.55-3.92 2.47-4.48 1.62-.47 3.35.25 4.16 1.72 1.21 2.2 2.84 4.14 4.8 5.72 1.81 1.39 3.8 2.53 5.91 3.4 2.97-.79 5.98-1.39 9.02-1.81a25.14 25.14 0 0 0 4.17-5.4c1.21-2.2 1.98-4.62 2.26-7.12a3.614 3.614 0 0 1 3.59-3.21c1.84 0 3.38 1.39 3.59 3.21.28 2.49 1.04 4.91 2.25 7.11a25.14 25.14 0 0 0 4.17 5.4c3.04.42 6.05 1.02 9.02 1.81 2.11-.87 4.1-2.02 5.92-3.41a19.12 19.12 0 0 0 4.8-5.71 3.616 3.616 0 0 1 4.92-1.41c1.47.82 2.19 2.54 1.72 4.16-.7 2.41-.92 4.94-.64 7.43.29 2.25.89 4.46 1.76 6.55 2.66 1.56 5.22 3.28 7.66 5.15 2.28 0 4.56-.29 6.77-.88 2.41-.7 4.66-1.87 6.63-3.44a3.61 3.61 0 0 1 5.08.57 3.622 3.622 0 0 1 0 4.51 18.933 18.933 0 0 0-3.43 6.62c-.6 2.21-.9 4.48-.89 6.77 1.87 2.45 3.59 5.01 5.14 7.66a26.2 26.2 0 0 0 6.56 1.76c2.5.27 5.02.06 7.44-.64 1.92-.55 3.92.56 4.47 2.48a3.6 3.6 0 0 1-1.73 4.16 19.506 19.506 0 0 0-5.7 4.8 25.56 25.56 0 0 0-3.4 5.91c.78 2.97 1.39 5.98 1.81 9.02a25.14 25.14 0 0 0 5.4 4.17c2.2 1.21 4.62 1.98 7.12 2.26 1.98.23 3.41 2.02 3.18 4a3.614 3.614 0 0 1-3.19 3.18c-2.49.28-4.91 1.04-7.11 2.25a25.14 25.14 0 0 0-5.4 4.17c-.42 3.04-1.02 6.05-1.81 9.02.87 2.12 2.01 4.11 3.41 5.92 1.57 1.96 3.5 3.59 5.7 4.8 1.75.96 2.39 3.16 1.43 4.91a3.627 3.627 0 0 1-4.18 1.73c-2.41-.71-4.93-.92-7.43-.64-2.25.29-4.46.89-6.56 1.76a76.054 76.054 0 0 1-5.15 7.67c0 2.29.29 4.56.89 6.77.7 2.41 1.87 4.66 3.43 6.62a3.62 3.62 0 0 1-.57 5.08 3.622 3.622 0 0 1-4.51 0 19.101 19.101 0 0 0-6.62-3.43c-2.21-.6-4.49-.89-6.77-.89-2.45 1.87-5 3.59-7.66 5.15-.87 2.1-1.47 4.3-1.76 6.56-.27 2.5-.06 5.02.64 7.43.55 1.92-.55 3.92-2.47 4.47-1.62.47-3.35-.25-4.17-1.73a19.12 19.12 0 0 0-4.8-5.71c-1.81-1.39-3.8-2.53-5.92-3.4-2.97.78-5.98 1.39-9.02 1.81a25.14 25.14 0 0 0-4.17 5.4c-1.21 2.2-1.97 4.61-2.25 7.11a3.607 3.607 0 0 1-3.59 3.21Zm-19.23-24.94c.33 0 .66.05.98.13 3.37.95 6.81 1.64 10.28 2.06.74.09 1.43.4 1.99.9 2.32 2.11 4.33 4.53 5.98 7.19 1.65-2.67 3.66-5.09 5.98-7.19.55-.5 1.25-.81 1.99-.9 3.48-.42 6.92-1.1 10.29-2.06.72-.2 1.49-.18 2.2.08 2.93 1.08 5.7 2.55 8.24 4.37.5-3.07 1.41-6.05 2.72-8.87.32-.68.84-1.25 1.5-1.62a68.6 68.6 0 0 0 8.75-5.88 3.6 3.6 0 0 1 2.06-.77c3.12-.13 6.25.16 9.29.89-.72-3.04-1.01-6.17-.89-9.29.04-.75.31-1.47.77-2.06a68.6 68.6 0 0 0 5.88-8.75c.37-.66.93-1.18 1.61-1.5a34.51 34.51 0 0 1 8.87-2.72c-1.83-2.53-3.3-5.3-4.37-8.24-.26-.71-.28-1.48-.08-2.2.96-3.37 1.64-6.81 2.06-10.29.09-.74.4-1.43.9-1.99 2.11-2.32 4.53-4.33 7.19-5.98a33.307 33.307 0 0 1-7.19-5.98c-.5-.56-.81-1.25-.9-1.99a67.55 67.55 0 0 0-2.06-10.28c-.2-.72-.18-1.49.08-2.2a34.11 34.11 0 0 1 4.37-8.24c-3.07-.5-6.05-1.41-8.87-2.72-.68-.32-1.24-.85-1.62-1.5a67.565 67.565 0 0 0-5.88-8.75c-.46-.59-.73-1.31-.77-2.06-.13-3.12.17-6.25.89-9.29-3.04.72-6.17 1.02-9.29.88-.75-.04-1.47-.31-2.06-.77a68.6 68.6 0 0 0-8.75-5.88c-.66-.37-1.18-.93-1.5-1.61-1.31-2.82-2.22-5.8-2.72-8.87a34.824 34.824 0 0 1-8.24 4.37c-.71.25-1.48.28-2.2.08a67.92 67.92 0 0 0-10.29-2.06c-.74-.09-1.43-.4-1.99-.9a33.794 33.794 0 0 1-5.98-7.19 33.307 33.307 0 0 1-5.98 7.19c-.55.5-1.25.81-1.99.9-3.48.42-6.91 1.11-10.28 2.06-.72.2-1.49.18-2.2-.08a34.11 34.11 0 0 1-8.24-4.37c-.5 3.06-1.41 6.05-2.71 8.87-.32.68-.84 1.25-1.5 1.62a66.888 66.888 0 0 0-8.75 5.88c-.59.46-1.31.73-2.06.77-3.12.13-6.25-.17-9.29-.88.72 3.04 1.01 6.17.88 9.29-.04.75-.31 1.47-.77 2.06a66.818 66.818 0 0 0-5.87 8.75c-.37.66-.93 1.18-1.62 1.5-2.82 1.3-5.8 2.21-8.87 2.72 1.83 2.53 3.3 5.3 4.37 8.23.25.71.28 1.48.08 2.2a68.04 68.04 0 0 0-2.06 10.28c-.09.74-.4 1.44-.9 1.99-2.1 2.32-4.53 4.33-7.19 5.97 2.66 1.65 5.08 3.66 7.19 5.97.5.55.81 1.25.9 1.99a67.92 67.92 0 0 0 2.06 10.29c.2.72.17 1.49-.08 2.2a34.11 34.11 0 0 1-4.37 8.24c3.07.5 6.05 1.41 8.87 2.72.68.32 1.25.84 1.61 1.5a67.83 67.83 0 0 0 5.87 8.75c.47.59.74 1.31.77 2.06.13 3.12-.16 6.25-.88 9.29 3.04-.72 6.17-1.02 9.29-.89.75.04 1.47.31 2.06.77 2.76 2.19 5.68 4.15 8.75 5.88.65.37 1.18.94 1.5 1.62 1.3 2.82 2.22 5.8 2.72 8.87 2.53-1.82 5.3-3.29 8.23-4.37.39-.14.81-.21 1.22-.21"></path>
                <path id="aPath_253" class="acls-4" d="M241.71 140c-12.47 0-22.59-10.11-22.59-22.58 0-12.47 10.11-22.59 22.58-22.59 12.47 0 22.59 10.11 22.59 22.58-.02 12.47-10.12 22.57-22.58 22.59m0-37.94c-8.48 0-15.35 6.87-15.36 15.35s6.87 15.35 15.35 15.36c8.48 0 15.35-6.87 15.36-15.35 0-8.48-6.88-15.35-15.35-15.36"></path>
                <path id="aPath_254" class="acls-4" d="M241.71 102.06c-1.99 0-3.61-1.61-3.61-3.61V70.67c0-2 1.62-3.62 3.61-3.62 2 0 3.62 1.62 3.62 3.61v27.79c0 1.99-1.61 3.61-3.61 3.62"></path>
                <path id="aPath_255" class="acls-4" d="M222.74 121.03h-27.78c-2 0-3.62-1.62-3.62-3.61 0-2 1.62-3.62 3.61-3.62h27.79c2 0 3.62 1.62 3.62 3.61s-1.62 3.62-3.61 3.62"></path>
                <path id="aPath_256" class="acls-4" d="M241.71 167.79c-1.99 0-3.61-1.61-3.61-3.61v-27.79c0-2 1.62-3.61 3.62-3.61s3.61 1.62 3.61 3.61v27.79c0 1.99-1.61 3.61-3.61 3.61"></path>
                <path id="aPath_257" class="acls-4" d="M288.47 121.03h-27.79c-2 0-3.61-1.62-3.61-3.62s1.62-3.61 3.61-3.61h27.79c2 0 3.62 1.62 3.62 3.61 0 2-1.62 3.62-3.61 3.62"></path>
                <path id="aPath_258" class="acls-4" d="M255.12 107.62c-2 0-3.61-1.62-3.61-3.62 0-.96.38-1.88 1.06-2.56l9.83-9.82a3.615 3.615 0 0 1 5.11 0 3.615 3.615 0 0 1 0 5.11l-9.83 9.82c-.68.68-1.6 1.06-2.56 1.06"></path>
                <path id="aPath_259" class="acls-4" d="M228.29 107.62c-.96 0-1.88-.38-2.56-1.06l-9.83-9.83c-1.41-1.41-1.41-3.7 0-5.11s3.7-1.41 5.11 0l9.83 9.83a3.615 3.615 0 0 1-2.55 6.17"></path>
                <path id="aPath_260" class="acls-4" d="M209.58 88.9c-.96 0-1.88-.38-2.56-1.06l-.73-.73a3.615 3.615 0 0 1 0-5.11 3.615 3.615 0 0 1 5.11 0l.73.73a3.615 3.615 0 0 1-2.56 6.17"></path>
                <path id="aPath_261" class="acls-4" d="M208.85 153.89c-2 0-3.61-1.62-3.61-3.62 0-.95.38-1.87 1.05-2.55l.73-.74c1.41-1.42 3.7-1.42 5.11-.01s1.42 3.7.01 5.11l-.73.74c-.68.68-1.6 1.07-2.56 1.07"></path>
                <path id="aPath_262" class="acls-4" d="M274.57 153.89c-.96 0-1.88-.38-2.56-1.06l-.74-.74c-1.41-1.41-1.41-3.7 0-5.11s3.7-1.41 5.11 0l.74.74a3.615 3.615 0 0 1-2.56 6.17"></path>
                <path id="aPath_263" class="acls-4" d="M273.84 88.9c-2 0-3.61-1.62-3.61-3.62 0-.96.38-1.88 1.07-2.56l.74-.73c1.42-1.41 3.7-1.4 5.11.01s1.4 3.7-.01 5.11l-.74.73c-.68.67-1.59 1.05-2.55 1.05"></path>
                <path id="aPath_264" class="acls-4" d="M218.47 144.27c-2 0-3.61-1.62-3.61-3.62 0-.96.38-1.88 1.06-2.56l9.83-9.82a3.615 3.615 0 0 1 5.11 0 3.615 3.615 0 0 1 0 5.11l-9.83 9.82c-.68.68-1.6 1.06-2.56 1.06"></path>
                <path id="aPath_265" class="acls-4" d="M264.95 144.27c-.96 0-1.88-.38-2.56-1.06l-9.83-9.82a3.615 3.615 0 0 1 0-5.11 3.615 3.615 0 0 1 5.11 0l9.83 9.82a3.615 3.615 0 0 1-2.56 6.17"></path>
                <path id="aPath_266" class="acls-4" d="M241.71 130.34c-7.14 0-12.93-5.79-12.93-12.93s5.79-12.93 12.93-12.93 12.93 5.79 12.93 12.93-5.79 12.92-12.93 12.93m0-18.62c-3.15 0-5.7 2.55-5.7 5.7s2.55 5.7 5.7 5.7 5.7-2.55 5.7-5.7-2.55-5.7-5.7-5.7"></path>
            </g>
        </g>
    </g>
</symbol>



<symbol id="right" viewBox="12 42 94.22 35.22" xmlns="http://www.w3.org/2000/svg">
<defs>
<style>.acls-2 {
  stroke-width: 0;
}
</style>
</defs>
<g id="aLayer_1-2">
<g id="aGroup_76">
<!-- <path id="aPath_206" d="M0 0v118.22h118.22V0H0Z" style="stroke-width:0;fill:none"/>
 --><path class="acls-2" d="M34.48 57.61h68.96c.83 0 1.5.67 1.5 1.5s-.67 1.5-1.5 1.5H34.48c-.83 0-1.5-.67-1.5-1.5s.67-1.5 1.5-1.5Z"></path>
<path class="acls-2" d="M88.67 42.83c.38 0 .77.15 1.06.44l14.78 14.78c.59.59.59 1.54 0 2.12L89.73 74.95c-.59.59-1.54.59-2.12 0s-.59-1.54 0-2.12l13.72-13.72-13.72-13.72a1.49 1.49 0 0 1 0-2.12c.29-.29.68-.44 1.06-.44ZM24.63 47.76c6.26 0 11.35 5.09 11.35 11.35s-5.09 11.35-11.35 11.35-11.35-5.09-11.35-11.35 5.09-11.35 11.35-11.35Zm0 19.7c4.61 0 8.35-3.75 8.35-8.35s-3.75-8.35-8.35-8.35-8.35 3.75-8.35 8.35 3.75 8.35 8.35 8.35Z"></path>
</g>
</g>
</symbol>

<symbol id="left" viewBox="12 42 94.22 35.22" xmlns="http://www.w3.org/2000/svg">
<defs>
<style>.acls-2 {
  stroke-width: 0;
}
</style>
</defs>
<g id="aLayer_1-2">
<g id="aGroup_76">
<path class="acls-2" d="M83.74 60.61H14.78c-.83 0-1.5-.67-1.5-1.5s.67-1.5 1.5-1.5h68.96c.83 0 1.5.67 1.5 1.5s-.67 1.5-1.5 1.5"></path>
<path class="acls-2" d="M29.56 75.39c-.38 0-.77-.15-1.06-.44L13.72 60.17a1.49 1.49 0 0 1 0-2.12L28.5 43.27c.59-.59 1.54-.59 2.12 0s.59 1.54 0 2.12L16.9 59.11l13.72 13.72c.59.59.59 1.54 0 2.12-.29.29-.68.44-1.06.44m64.03-4.93c-6.26 0-11.35-5.09-11.35-11.35s5.09-11.35 11.35-11.35 11.35 5.09 11.35 11.35-5.09 11.35-11.35 11.35m0-19.7c-4.61 0-8.35 3.75-8.35 8.35s3.75 8.35 8.35 8.35 8.35-3.75 8.35-8.35-3.75-8.35-8.35-8.35"></path>
</g>
</g>
</symbol>

</svg>