<svg xmlns="http://www.w3.org/2000/svg" xmlns:xlink="http://www.w3.org/1999/xlink" width="235.767" height="32.039" viewBox="0 0 235.767 32.039">
  <defs>
    <clipPath id="clip-path">
      <rect id="Rectangle_3" data-name="Rectangle 3" width="235.766" height="32.039" fill="none"></rect>
    </clipPath>
  </defs>
  <g id="Group_106" data-name="Group 106" transform="translate(0 0)">
    <path id="Path_4" data-name="Path 4" d="M7.151.444,0,25.82H6.09L13.24.444Z" transform="translate(0 -0.142)" fill="#ffc100"></path>
    <path id="Path_5" data-name="Path 5" d="M17.327,25.819h-6.09L18.387.444h6.09Z" transform="translate(-3.583 -0.142)" fill="#f26319"></path>
    <g id="Group_6" data-name="Group 6" transform="translate(0 0)">
      <g id="Group_5" data-name="Group 5" clip-path="url('#clip-path')">
        <path id="Path_6" data-name="Path 6" d="M28.563,25.819h-6.09L29.623.444h3.952A1.619,1.619,0,0,1,35.134,2.5Z" transform="translate(-7.166 -0.141)" fill="#e60019"></path>
        <path id="Path_7" data-name="Path 7" d="M9.093,42.715,10.129,39.9l13.665,0L22.67,43.612a1.619,1.619,0,0,1-1.825,1.126Z" transform="translate(-2.9 -12.723)" fill="#f26319"></path>
        <path id="Path_8" data-name="Path 8" d="M68.688.4h5.664L67.267,25.733H61.778L66.532,8.739c-3.794,3.378-7.9,7.107-11.638,10.414L49.036,8.775,44.292,25.733H38.839L45.925.4h5.629L57.275,10.64Z" transform="translate(-12.385 -0.128)" fill="#fff"></path>
        <path id="Path_9" data-name="Path 9" d="M114.468.4c2.85,0,4.557,2.322,3.75,5.206l-4.173,14.918a7.413,7.413,0,0,1-6.664,5.207H92.464c-2.885,0-4.557-2.322-3.75-5.207L92.887,5.607A7.374,7.374,0,0,1,99.551.4ZM94.246,20.244H108.6l4.016-14.355H98.261Z" transform="translate(-28.225 -0.128)" fill="#fff"></path>
        <path id="Path_10" data-name="Path 10" d="M162.7.4l-1.535,5.488h-9.922l-5.55,19.844H140.2l5.55-19.844h-9.922L137.368.4Z" transform="translate(-43.315 -0.128)" fill="#fff"></path>
        <path id="Path_11" data-name="Path 11" d="M196.442.4c2.85,0,4.557,2.322,3.75,5.206L196.02,20.525a7.413,7.413,0,0,1-6.664,5.207H174.438c-2.885,0-4.557-2.322-3.75-5.207l4.173-14.918A7.376,7.376,0,0,1,181.525.4ZM176.22,20.244h14.355L194.59,5.889H180.235Z" transform="translate(-54.365 -0.128)" fill="#fff"></path>
        <path id="Path_12" data-name="Path 12" d="M240.606,12.133a6.519,6.519,0,0,1-5.853,4.574h-2.568l4.76,8.514-.148.528h-4.5l-5.07-9.042h-8.655a4.861,4.861,0,0,1-.755-.071l-2.549,9.113h-3.8l7.076-25.3H239.3c2.533,0,3.993,2.076,3.295,4.574Zm-4.79.774a1.11,1.11,0,0,0,.99-.774l1.988-7.107a.571.571,0,0,0-.557-.774H222.052a1.109,1.109,0,0,0-.99.774l-1.988,7.107a.571.571,0,0,0,.558.774Z" transform="translate(-67.433 -0.144)" fill="#fff"></path>
        <path id="Path_13" data-name="Path 13" d="M283.479,4.2H264.058l-1.949,6.966h15.621l-1.063,3.8H261.046L259.1,21.933h19.421l-1.063,3.8H254.235L261.321.4h23.221Z" transform="translate(-81.072 -0.128)" fill="#fff"></path>
        <path id="Path_14" data-name="Path 14" d="M298.132,25.332h-4.538L300.679,0h3.8L298.81,20.266l14.068-12.56,7.041,12.56L325.589,0h3.8L322.3,25.332h-4.5l-6.574-11.716Z" transform="translate(-93.622 0)" fill="#fff"></path>
      </g>
    </g>
  </g>
</svg>
