<?xml version="1.0" encoding="UTF-8"?><svg id="Layer_2" xmlns="http://www.w3.org/2000/svg" viewBox="0 0 118.22 118.22"><defs><style>.cls-1{fill:none;}.cls-1,.cls-2{stroke-width:0px;}.cls-2{fill:#fff;}</style></defs><g id="Layer_1-2"><g id="Group_76"><path id="Path_206" class="cls-1" d="m0,0v118.22h118.22V0H0Z"/><path class="cls-2" d="m34.48,57.61h68.96c.83,0,1.5.67,1.5,1.5s-.67,1.5-1.5,1.5H34.48c-.83,0-1.5-.67-1.5-1.5s.67-1.5,1.5-1.5Z"/><path class="cls-2" d="m88.67,42.83c.38,0,.77.15,1.06.44l14.78,14.78c.59.59.59,1.54,0,2.12l-14.78,14.78c-.59.59-1.54.59-2.12,0s-.59-1.54,0-2.12l13.72-13.72-13.72-13.72c-.59-.59-.59-1.54,0-2.12.29-.29.68-.44,1.06-.44Z"/><path class="cls-2" d="m24.63,47.76c6.26,0,11.35,5.09,11.35,11.35s-5.09,11.35-11.35,11.35-11.35-5.09-11.35-11.35,5.09-11.35,11.35-11.35Zm0,19.7c4.61,0,8.35-3.75,8.35-8.35s-3.75-8.35-8.35-8.35-8.35,3.75-8.35,8.35,3.75,8.35,8.35,8.35Z"/></g></g></svg>