<?xml version="1.0" encoding="UTF-8"?><svg id="Layer_2" xmlns="http://www.w3.org/2000/svg" viewBox="0 0 761.51 861.63"><defs><style>.cls-1{fill:#e51e26;}.cls-1,.cls-2,.cls-3{stroke-width:0px;}.cls-2{fill:#f16422;}.cls-3{fill:#fcc210;}</style></defs><g id="Layer_1-2"><g id="Group_104"><path class="cls-3" d="m167.04,689.33H0l.36-1.27L194.24,0h167.04l-.36,1.27-193.89,688.06Zm-164.4-2h162.89L358.64,2h-162.89L2.64,687.33Z"/><path class="cls-2" d="m374.35,689.33h-167.04l.36-1.27L401.55,0h167.04l-.36,1.27-193.89,688.06Zm-164.4-2h162.88L565.95,2h-162.89l-193.12,685.33Z"/><path class="cls-1" d="m581.65,689.33h-167.04l.36-1.27L608.85,0h107.79c24.74,0,44.86,20.13,44.86,44.86,0,4.11-.57,8.21-1.68,12.16l-178.18,632.3Zm-164.4-2h162.88L757.9,56.48c1.07-3.78,1.61-7.69,1.61-11.62,0-23.63-19.23-42.86-42.86-42.86h-106.28l-193.12,685.33Z"/><path class="cls-2" d="m494.86,861.63c-2.52,0-5.06-.21-7.62-.65l-319.5-55.01,28.73-78.04,372.16.05-30.83,101.81c-5.8,19.14-23.5,31.85-42.93,31.85Zm-324.42-57.23l317.14,54.61c21.28,3.68,42.03-9.15,48.29-29.81l30.05-99.23-368.07-.05-27.41,74.48Z"/></g></g></svg>