<svg id="Group_105" data-name="Group 105" xmlns="http://www.w3.org/2000/svg" xmlns:xlink="http://www.w3.org/1999/xlink" width="132.422" height="43.576" viewBox="0 0 132.422 43.576">
  <defs>
    <clipPath id="clip-path">
      <rect id="Rectangle_41" data-name="Rectangle 41" width="132.422" height="43.576" fill="none"/>
    </clipPath>
  </defs>
  <g id="Group_77" data-name="Group 77" clip-path="url(#clip-path)">
    <path id="Path_210" data-name="Path 210" d="M3606.863,402.543a5.738,5.738,0,0,1-5.208-3.364l11.406-4.707,3.113-1.285c-.643-2.26-2.669-5.641-4.844-6.781a10.894,10.894,0,0,0-5.092-1.4c-5.654,0-10.238,4.682-10.238,10.863a10.839,10.839,0,0,0,6.894,10.27,12.661,12.661,0,0,0,3.345.593,10.339,10.339,0,0,0,3.032-.165,10.939,10.939,0,0,0,6.69-4.583l-3.732-2.561a6.265,6.265,0,0,1-5.366,3.126m-.828-13.3,0,.021c.045-.006.092-.011.139-.015a4.281,4.281,0,0,1,4.357,2.278l-5.286,2.182-4.452,1.838a6.141,6.141,0,0,1,5.24-6.3" transform="translate(-3483.752 -372.982)" fill="#ea4335"/>
    <rect id="Rectangle_40" data-name="Rectangle 40" width="4" height="32" transform="translate(106.056 0.788)" fill="#34a853"/>
    <path id="Path_211" data-name="Path 211" d="M2641.356,386.655V388.4h-.2a7.11,7.11,0,0,0-5.712-2.4,10.555,10.555,0,0,0-10.189,8.506,11.361,11.361,0,0,0-.252,2.388,11,11,0,0,0,3.714,8.258,10.344,10.344,0,0,0,6.727,2.635,8.289,8.289,0,0,0,1.925-.227,6.677,6.677,0,0,0,3.8-2.271h.164c.012.661.021,1.288,0,1.872a8.8,8.8,0,0,1-.374,2.365,4.99,4.99,0,0,1-1.139,2.031,5.6,5.6,0,0,1-4.362,1.692,5.524,5.524,0,0,1-1.383-.193,6.026,6.026,0,0,1-4.016-3.679h0l-4.191,1.722a11.167,11.167,0,0,0,2.319,3.453,10.625,10.625,0,0,0,1.382,1.155,10.235,10.235,0,0,0,5.984,1.817,11.462,11.462,0,0,0,4.831-1,9.375,9.375,0,0,0,2.038-1.275,8.13,8.13,0,0,0,.631-.6,11.812,11.812,0,0,0,2.832-7.9v-20.1Zm-5.619,16.825c-3.275,0-5.931-2.956-5.931-6.6q0-.34.03-.672a6.213,6.213,0,0,1,5.9-5.93,6.074,6.074,0,0,1,.638.033,5.8,5.8,0,0,1,4.98,4.355,7.964,7.964,0,0,1,.3,1.757q.014.225.016.456a7.789,7.789,0,0,1-.308,2.265l0,.012a5.734,5.734,0,0,1-5.619,4.325" transform="translate(-2543.062 -373.951)" fill="#4285f4"/>
    <path id="Path_212" data-name="Path 212" d="M1889.974,396.753a10.828,10.828,0,0,0-3.1-7.449,11.016,11.016,0,0,0-18.051,3.45,10.746,10.746,0,0,0-.821,4c0,.047,0,.094,0,.14s0,.094,0,.14a10.829,10.829,0,0,0,3.1,7.449,11.016,11.016,0,0,0,18.051-3.45,10.746,10.746,0,0,0,.821-4c0-.047,0-.094,0-.14s0-.094,0-.14m-4.839.3c0,.027,0,.053,0,.079a6.148,6.148,0,1,1-12.29,0c0-.026,0-.053,0-.079q0-.081,0-.162t0-.162c0-.027,0-.053,0-.079a6.148,6.148,0,1,1,12.29,0c0,.026,0,.053,0,.079q0,.081,0,.162t0,.162" transform="translate(-1809.691 -373.951)" fill="#fbbc05"/>
    <path id="Path_213" data-name="Path 213" d="M1134.974,396.753a10.829,10.829,0,0,0-3.1-7.449,11.016,11.016,0,0,0-18.051,3.45,10.75,10.75,0,0,0-.821,4q0,.07,0,.14t0,.14a10.831,10.831,0,0,0,3.1,7.449,11.015,11.015,0,0,0,18.051-3.45,10.753,10.753,0,0,0,.821-4q0-.07,0-.14t0-.14m-4.839.3c0,.027,0,.053,0,.079a6.148,6.148,0,1,1-12.29,0c0-.026,0-.053,0-.079q0-.081,0-.162t0-.162c0-.027,0-.053,0-.079a6.148,6.148,0,1,1,12.29,0c0,.026,0,.053,0,.079q0,.081,0,.162t0,.162" transform="translate(-1078.258 -373.951)" fill="#ea4335"/>
    <path id="Path_214" data-name="Path 214" d="M32.963,17.168c-.073-.564-.142-1.127-.213-1.686H17.137V20.1H28.191a9.736,9.736,0,0,1-2.109,5.211,11.234,11.234,0,0,1-8.82,3.9C10.4,29.159,5.322,24.168,5.026,17.2A11.944,11.944,0,0,1,5.6,13.122,12.1,12.1,0,0,1,17.34,4.62a11.335,11.335,0,0,1,8.141,3.31L28.76,4.666A16.35,16.35,0,0,0,17.012,0,17,17,0,0,0,0,16.918,17,17,0,0,0,17.012,33.837,18.464,18.464,0,0,0,25.12,32a14.232,14.232,0,0,0,7.306-9.349A19.655,19.655,0,0,0,32.94,20.1a11.536,11.536,0,0,0,.023-2.934" fill="#4285f4"/>
  </g>
</svg>
