<?xml version="1.0" encoding="UTF-8"?><svg id="Layer_2" xmlns="http://www.w3.org/2000/svg" xmlns:xlink="http://www.w3.org/1999/xlink" viewBox="0 0 331.33 263.18"><defs><style>.cls-1{clip-path:url(#clippath);}.cls-2{fill:none;}.cls-2,.cls-3,.cls-4,.cls-5,.cls-6{stroke-width:0px;}.cls-7{opacity:.38;}.cls-3{fill:#e51e26;}.cls-4{fill:#fff;}.cls-5{fill:#f16422;}.cls-6{fill:#fcc210;}</style><clipPath id="clippath"><rect class="cls-2" x="152.09" y="27.8" width="179.24" height="179.24"/></clipPath></defs><g id="Layer_1-2"><g id="Group_113" class="cls-7"><path class="cls-6" d="m53.04,211.03H0l.54-1.91L59.46,0h53.04l-.54,1.91-58.93,209.12Zm-49.08-3h46.81L108.55,3h-46.81L3.96,208.03Z"/><path class="cls-5" d="m115.79,211.03h-53.04l.54-1.91L122.21,0h53.04l-.54,1.91-58.93,209.12Zm-49.08-3h46.81L171.29,3h-46.81l-57.77,205.03Z"/><path class="cls-3" d="m178.53,211.03h-53.04l.54-1.91L184.95,0h33.54c8.15,0,14.77,6.63,14.77,14.78,0,1.35-.19,2.7-.55,4l-54.18,192.25Zm-49.08-3h46.81L229.82,17.97c.29-1.04.44-2.11.44-3.19,0-6.49-5.28-11.78-11.77-11.78h-31.26l-57.77,205.03Z"/><path class="cls-5" d="m151.36,263.18c-.83,0-1.67-.07-2.51-.21l-98.12-16.9,9.48-25.75,115.09.02-9.8,32.36c-1.91,6.31-7.74,10.49-14.14,10.49Zm-96.57-19.46l94.57,16.28c5.85,1.01,11.55-2.51,13.27-8.19l8.63-28.49-108.95-.02-7.51,20.41Z"/></g><g id="Group_114"><g class="cls-1"><g id="Group_94"><path id="Path_251" class="cls-4" d="m241.71,181.29c-35.28,0-63.88-28.6-63.88-63.88,0-35.28,28.6-63.88,63.88-63.88,35.28,0,63.88,28.6,63.88,63.88h0c-.04,35.26-28.62,63.84-63.88,63.88m0-120.53c-31.29,0-56.65,25.36-56.65,56.65s25.36,56.65,56.65,56.65,56.65-25.36,56.65-56.65h0c-.04-31.27-25.38-56.61-56.65-56.65"/><path id="Path_252" class="cls-4" d="m241.71,207.03c-1.84,0-3.38-1.38-3.59-3.2-.28-2.5-1.05-4.92-2.26-7.12-1.14-1.98-2.54-3.8-4.17-5.4-3.04-.42-6.05-1.02-9.01-1.81-2.11.87-4.1,2.02-5.92,3.41-1.96,1.57-3.59,3.51-4.8,5.7-.96,1.75-3.16,2.38-4.91,1.42-1.48-.82-2.19-2.54-1.73-4.17.7-2.41.92-4.93.64-7.43-.3-2.26-.89-4.46-1.76-6.57-2.66-1.55-5.22-3.27-7.66-5.14-2.29,0-4.56.29-6.77.89-2.41.7-4.66,1.87-6.62,3.43-1.56,1.24-3.83.99-5.08-.57-1.05-1.32-1.05-3.18,0-4.5,1.57-1.96,2.73-4.21,3.44-6.63.59-2.21.89-4.48.88-6.77-1.87-2.45-3.59-5.01-5.15-7.67-2.1-.87-4.3-1.47-6.55-1.76-2.5-.27-5.02-.05-7.43.64-1.92.55-3.92-.55-4.48-2.47-.47-1.62.25-3.35,1.72-4.16,2.2-1.21,4.14-2.84,5.72-4.8,1.39-1.81,2.53-3.8,3.4-5.92-.79-2.96-1.39-5.98-1.8-9.01-1.6-1.63-3.42-3.03-5.4-4.17-2.2-1.21-4.61-1.97-7.1-2.25-1.98-.22-3.41-2.01-3.19-4,.19-1.67,1.5-2.99,3.17-3.19,2.5-.28,4.91-1.05,7.11-2.26,1.98-1.14,3.8-2.54,5.4-4.17.41-3.04,1.01-6.05,1.8-9.01-.87-2.11-2.01-4.1-3.4-5.91-1.57-1.95-3.51-3.58-5.71-4.8-1.75-.97-2.38-3.17-1.41-4.91.82-1.47,2.54-2.19,4.16-1.73,2.41.7,4.94.91,7.43.64,2.25-.3,4.46-.89,6.56-1.76,1.56-2.66,3.28-5.21,5.15-7.66,0-2.29-.29-4.57-.88-6.77-.7-2.41-1.87-4.66-3.44-6.62-1.25-1.56-.99-3.84.57-5.08,1.32-1.05,3.19-1.05,4.51,0,1.96,1.57,4.21,2.73,6.62,3.44,2.21.59,4.48.89,6.77.88,2.45-1.87,5.01-3.59,7.66-5.15.87-2.1,1.46-4.3,1.76-6.56.28-2.49.06-5.02-.64-7.43-.55-1.92.55-3.92,2.47-4.48,1.62-.47,3.35.25,4.16,1.72,1.21,2.2,2.84,4.14,4.8,5.72,1.81,1.39,3.8,2.53,5.91,3.4,2.97-.79,5.98-1.39,9.02-1.81,1.63-1.6,3.03-3.42,4.17-5.4,1.21-2.2,1.98-4.62,2.26-7.12.21-1.83,1.75-3.21,3.59-3.21h0c1.84,0,3.38,1.39,3.59,3.21.28,2.49,1.04,4.91,2.25,7.11,1.14,1.98,2.54,3.8,4.17,5.4,3.04.42,6.05,1.02,9.02,1.81,2.11-.87,4.1-2.02,5.92-3.41,1.96-1.57,3.59-3.51,4.8-5.71.97-1.75,3.17-2.38,4.92-1.41,1.47.82,2.19,2.54,1.72,4.16-.7,2.41-.92,4.94-.64,7.43.29,2.25.89,4.46,1.76,6.55,2.66,1.56,5.22,3.28,7.66,5.15,2.28,0,4.56-.29,6.77-.88,2.41-.7,4.66-1.87,6.63-3.44,1.56-1.25,3.84-.99,5.08.57,1.05,1.32,1.05,3.19,0,4.51-1.57,1.96-2.74,4.21-3.43,6.62-.6,2.21-.9,4.48-.89,6.77,1.87,2.45,3.59,5.01,5.14,7.66,2.1.87,4.31,1.46,6.56,1.76,2.5.27,5.02.06,7.44-.64,1.92-.55,3.92.56,4.47,2.48.47,1.62-.25,3.35-1.73,4.16-2.19,1.22-4.13,2.85-5.7,4.8-1.39,1.81-2.54,3.8-3.4,5.91.78,2.97,1.39,5.98,1.81,9.02,1.6,1.63,3.42,3.03,5.4,4.17,2.2,1.21,4.62,1.98,7.12,2.26,1.98.23,3.41,2.02,3.18,4-.19,1.67-1.51,2.99-3.19,3.18-2.49.28-4.91,1.04-7.11,2.25-1.98,1.14-3.8,2.54-5.4,4.17-.42,3.04-1.02,6.05-1.81,9.02.87,2.12,2.01,4.11,3.41,5.92,1.57,1.96,3.5,3.59,5.7,4.8,1.75.96,2.39,3.16,1.43,4.91-.82,1.48-2.55,2.2-4.18,1.73-2.41-.71-4.93-.92-7.43-.64-2.25.29-4.46.89-6.56,1.76-1.56,2.66-3.28,5.22-5.15,7.67,0,2.29.29,4.56.89,6.77.7,2.41,1.87,4.66,3.43,6.62,1.24,1.56.99,3.83-.57,5.08-1.32,1.05-3.19,1.05-4.51,0-1.96-1.57-4.21-2.73-6.62-3.43-2.21-.6-4.49-.89-6.77-.89-2.45,1.87-5,3.59-7.66,5.15-.87,2.1-1.47,4.3-1.76,6.56-.27,2.5-.06,5.02.64,7.43.55,1.92-.55,3.92-2.47,4.47-1.62.47-3.35-.25-4.17-1.73-1.21-2.2-2.84-4.14-4.8-5.71-1.81-1.39-3.8-2.53-5.92-3.4-2.97.78-5.98,1.39-9.02,1.81-1.63,1.6-3.03,3.42-4.17,5.4-1.21,2.2-1.97,4.61-2.25,7.11-.2,1.83-1.75,3.21-3.59,3.21h0Zm-19.23-24.94c.33,0,.66.05.98.13,3.37.95,6.81,1.64,10.28,2.06.74.09,1.43.4,1.99.9,2.32,2.11,4.33,4.53,5.98,7.19,1.65-2.67,3.66-5.09,5.98-7.19.55-.5,1.25-.81,1.99-.9,3.48-.42,6.92-1.1,10.29-2.06.72-.2,1.49-.18,2.2.08,2.93,1.08,5.7,2.55,8.24,4.37.5-3.07,1.41-6.05,2.72-8.87.32-.68.84-1.25,1.5-1.62,3.06-1.73,5.99-3.7,8.75-5.88.59-.46,1.31-.74,2.06-.77,3.12-.13,6.25.16,9.29.89-.72-3.04-1.01-6.17-.89-9.29.04-.75.31-1.47.77-2.06,2.18-2.76,4.15-5.69,5.88-8.75.37-.66.93-1.18,1.61-1.5,2.82-1.3,5.81-2.22,8.87-2.72-1.83-2.53-3.3-5.3-4.37-8.24-.26-.71-.28-1.48-.08-2.2.96-3.37,1.64-6.81,2.06-10.29.09-.74.4-1.43.9-1.99,2.11-2.32,4.53-4.33,7.19-5.98-2.67-1.65-5.09-3.66-7.19-5.98-.5-.56-.81-1.25-.9-1.99-.42-3.48-1.11-6.92-2.06-10.28-.2-.72-.18-1.49.08-2.2,1.07-2.93,2.54-5.7,4.37-8.24-3.07-.5-6.05-1.41-8.87-2.72-.68-.32-1.24-.85-1.62-1.5-1.73-3.06-3.69-5.99-5.88-8.75-.46-.59-.73-1.31-.77-2.06-.13-3.12.17-6.25.89-9.29-3.04.72-6.17,1.02-9.29.88-.75-.04-1.47-.31-2.06-.77-2.76-2.18-5.69-4.15-8.75-5.88-.66-.37-1.18-.93-1.5-1.61-1.31-2.82-2.22-5.8-2.72-8.87-2.54,1.82-5.31,3.29-8.24,4.37-.71.25-1.48.28-2.2.08-3.37-.95-6.81-1.64-10.29-2.06-.74-.09-1.43-.4-1.99-.9-2.32-2.11-4.33-4.53-5.98-7.19-1.65,2.67-3.66,5.09-5.98,7.19-.55.5-1.25.81-1.99.9-3.48.42-6.91,1.11-10.28,2.06-.72.2-1.49.18-2.2-.08-2.93-1.07-5.7-2.54-8.24-4.37-.5,3.06-1.41,6.05-2.71,8.87-.32.68-.84,1.25-1.5,1.62-3.07,1.73-5.99,3.69-8.75,5.88-.59.46-1.31.73-2.06.77-3.12.13-6.25-.17-9.29-.88.72,3.04,1.01,6.17.88,9.29-.04.75-.31,1.47-.77,2.06-2.18,2.76-4.15,5.68-5.87,8.75-.37.66-.93,1.18-1.62,1.5-2.82,1.3-5.8,2.21-8.87,2.72,1.83,2.53,3.3,5.3,4.37,8.23.25.71.28,1.48.08,2.2-.95,3.37-1.64,6.81-2.06,10.28-.09.74-.4,1.44-.9,1.99-2.1,2.32-4.53,4.33-7.19,5.97,2.66,1.65,5.08,3.66,7.19,5.97.5.55.81,1.25.9,1.99.42,3.48,1.11,6.92,2.06,10.29.2.72.17,1.49-.08,2.2-1.07,2.93-2.54,5.7-4.37,8.24,3.07.5,6.05,1.41,8.87,2.72.68.32,1.25.84,1.61,1.5,1.73,3.07,3.69,5.99,5.87,8.75.47.59.74,1.31.77,2.06.13,3.12-.16,6.25-.88,9.29,3.04-.72,6.17-1.02,9.29-.89.75.04,1.47.31,2.06.77,2.76,2.19,5.68,4.15,8.75,5.88.65.37,1.18.94,1.5,1.62,1.3,2.82,2.22,5.8,2.72,8.87,2.53-1.82,5.3-3.29,8.23-4.37.39-.14.81-.21,1.22-.21"/><path id="Path_253" class="cls-4" d="m241.71,140c-12.47,0-22.59-10.11-22.59-22.58,0-12.47,10.11-22.59,22.58-22.59,12.47,0,22.59,10.11,22.59,22.58h0c-.02,12.47-10.12,22.57-22.58,22.59m0-37.94c-8.48,0-15.35,6.87-15.36,15.35s6.87,15.35,15.35,15.36c8.48,0,15.35-6.87,15.36-15.35,0-8.48-6.88-15.35-15.35-15.36"/><path id="Path_254" class="cls-4" d="m241.71,102.06c-1.99,0-3.61-1.61-3.61-3.61,0,0,0,0,0,0v-27.78c0-2,1.62-3.62,3.61-3.62,2,0,3.62,1.62,3.62,3.61h0v27.79c0,1.99-1.61,3.61-3.61,3.62h0"/><path id="Path_255" class="cls-4" d="m222.74,121.03h-27.78c-2,0-3.62-1.62-3.62-3.61,0-2,1.62-3.62,3.61-3.62h27.79c2,0,3.62,1.62,3.62,3.61s-1.62,3.62-3.61,3.62h0"/><path id="Path_256" class="cls-4" d="m241.71,167.79c-1.99,0-3.61-1.61-3.61-3.61,0,0,0,0,0,0v-27.79c0-2,1.62-3.61,3.62-3.61,2,0,3.61,1.62,3.61,3.61v27.79c0,1.99-1.61,3.61-3.61,3.61h0"/><path id="Path_257" class="cls-4" d="m288.47,121.03h-27.79c-2,0-3.61-1.62-3.61-3.62,0-2,1.62-3.61,3.61-3.61h27.79c2,0,3.62,1.62,3.62,3.61,0,2-1.62,3.62-3.61,3.62h0"/><path id="Path_258" class="cls-4" d="m255.12,107.62c-2,0-3.61-1.62-3.61-3.62,0-.96.38-1.88,1.06-2.56l9.83-9.82c1.41-1.41,3.7-1.41,5.11,0,1.41,1.41,1.41,3.7,0,5.11l-9.83,9.82c-.68.68-1.6,1.06-2.56,1.06"/><path id="Path_259" class="cls-4" d="m228.29,107.62c-.96,0-1.88-.38-2.56-1.06l-9.83-9.83c-1.41-1.41-1.41-3.7,0-5.11s3.7-1.41,5.11,0l9.83,9.83c1.41,1.41,1.41,3.7,0,5.11-.68.68-1.6,1.06-2.55,1.06"/><path id="Path_260" class="cls-4" d="m209.58,88.9c-.96,0-1.88-.38-2.56-1.06l-.73-.73c-1.41-1.41-1.41-3.7,0-5.11,1.41-1.41,3.7-1.41,5.11,0l.73.73c1.41,1.41,1.41,3.7,0,5.11-.68.68-1.6,1.06-2.56,1.06"/><path id="Path_261" class="cls-4" d="m208.85,153.89c-2,0-3.61-1.62-3.61-3.62,0-.95.38-1.87,1.05-2.55l.73-.74c1.41-1.42,3.7-1.42,5.11-.01s1.42,3.7.01,5.11l-.73.74c-.68.68-1.6,1.07-2.56,1.07"/><path id="Path_262" class="cls-4" d="m274.57,153.89c-.96,0-1.88-.38-2.56-1.06l-.74-.74c-1.41-1.41-1.41-3.7,0-5.11s3.7-1.41,5.11,0l.74.74c1.41,1.41,1.41,3.7,0,5.11-.68.68-1.6,1.06-2.56,1.06"/><path id="Path_263" class="cls-4" d="m273.84,88.9c-2,0-3.61-1.62-3.61-3.62,0-.96.38-1.88,1.07-2.56l.74-.73c1.42-1.41,3.7-1.4,5.11.01s1.4,3.7-.01,5.11h0l-.74.73c-.68.67-1.59,1.05-2.55,1.05"/><path id="Path_264" class="cls-4" d="m218.47,144.27c-2,0-3.61-1.62-3.61-3.62,0-.96.38-1.88,1.06-2.56l9.83-9.82c1.41-1.41,3.7-1.41,5.11,0,1.41,1.41,1.41,3.7,0,5.11l-9.83,9.82c-.68.68-1.6,1.06-2.56,1.06"/><path id="Path_265" class="cls-4" d="m264.95,144.27c-.96,0-1.88-.38-2.56-1.06l-9.83-9.82c-1.41-1.41-1.41-3.7,0-5.11,1.41-1.41,3.7-1.41,5.11,0l9.83,9.82c1.41,1.41,1.41,3.7,0,5.11-.68.68-1.6,1.06-2.56,1.06"/><path id="Path_266" class="cls-4" d="m241.71,130.34c-7.14,0-12.93-5.79-12.93-12.93s5.79-12.93,12.93-12.93,12.93,5.79,12.93,12.93h0c0,7.14-5.79,12.92-12.93,12.93m0-18.62c-3.15,0-5.7,2.55-5.7,5.7s2.55,5.7,5.7,5.7,5.7-2.55,5.7-5.7-2.55-5.7-5.7-5.7h0"/></g></g></g></g></svg>