<?xml version="1.0" encoding="UTF-8"?><svg id="Layer_2" xmlns="http://www.w3.org/2000/svg" viewBox="0 0 270.24 263.18"><defs><style>.cls-1{opacity:.38;}.cls-2{fill:#e51e26;}.cls-2,.cls-3,.cls-4,.cls-5{stroke-width:0px;}.cls-3{fill:#fff;}.cls-4{fill:#f16422;}.cls-5{fill:#fcc210;}</style></defs><g id="Layer_1-2"><g id="Group_108" class="cls-1"><path class="cls-5" d="m53.05,211.03H0l.54-1.91L59.46,0h53.05l-.54,1.91-58.93,209.12Zm-49.08-3h46.81L108.55,3h-46.81L3.96,208.03Z"/><path class="cls-4" d="m115.79,211.03h-53.05l.54-1.91L122.21,0h53.04l-.54,1.91-58.93,209.12Zm-49.08-3h46.81L171.29,3h-46.81l-57.77,205.03Z"/><path class="cls-2" d="m178.53,211.03h-53.04l.54-1.91L184.95,0h33.54c8.15,0,14.77,6.63,14.77,14.78,0,1.35-.19,2.7-.55,4l-54.17,192.25Zm-49.08-3h46.81L229.82,17.97c.29-1.04.44-2.11.44-3.19,0-6.49-5.28-11.78-11.77-11.78h-31.26l-57.77,205.03Z"/><path class="cls-4" d="m151.36,263.18c-.83,0-1.67-.07-2.51-.21l-98.12-16.9,9.48-25.75,115.09.02-9.8,32.36c-1.91,6.31-7.74,10.49-14.14,10.49Zm-96.57-19.46l94.57,16.28c5.84,1.01,11.55-2.51,13.27-8.19l8.63-28.49-108.95-.02-7.51,20.41Z"/></g><g id="Group_110"><path id="Path_223" class="cls-3" d="m202.18,159.02c-.95,0-1.86-.38-2.52-1.05l-57.58-57.58c-1.39-1.39-1.4-3.65,0-5.04,0,0,0,0,0,0l11.62-11.62c1.42-1.34,3.63-1.34,5.05,0l57.59,57.59c1.39,1.39,1.39,3.65,0,5.05l-11.62,11.62c-.67.67-1.58,1.05-2.52,1.05m-52.54-61.15l52.54,52.53,6.57-6.57-52.54-52.54-6.57,6.57Z"/><path id="Path_224" class="cls-3" d="m207.83,141.44c-.95,0-1.85-.38-2.52-1.05l-45.64-45.64c-1.39-1.4-1.39-3.66,0-5.05.16-.16.34-.31.53-.44l73.23-49.34c1.42-.96,3.31-.77,4.52.44l21.75,21.76c1.21,1.21,1.39,3.1.44,4.52l-49.35,73.22c-.59.89-1.55,1.46-2.62,1.56-.11.01-.23.02-.34.02m-40.05-48.67l39.51,39.51,45.28-67.2-17.6-17.59-67.19,45.28Z"/><path id="Path_225" class="cls-3" d="m246.29,57.33c-1.97,0-3.57-1.6-3.57-3.57,0-.95.38-1.85,1.05-2.52l6.25-6.25c1.39-1.4,3.66-1.4,5.05,0,1.4,1.39,1.4,3.66,0,5.05l-6.25,6.25c-.67.67-1.58,1.05-2.52,1.05"/><path id="Path_226" class="cls-3" d="m266.67,49.77c-.95,0-1.86-.38-2.52-1.05l-10.96-10.96c-1.37-1.42-1.33-3.68.09-5.05,1.38-1.34,3.58-1.34,4.96,0l10.96,10.96c1.39,1.39,1.39,3.65,0,5.05-.67.67-1.58,1.05-2.52,1.05"/><path id="Path_227" class="cls-3" d="m252.7,63.74c-1.97,0-3.57-1.6-3.57-3.57,0-.95.38-1.85,1.05-2.52l13.97-13.97c1.42-1.37,3.68-1.33,5.05.09,1.34,1.38,1.34,3.58,0,4.96l-13.97,13.97c-.67.67-1.58,1.05-2.52,1.05"/><path id="Path_228" class="cls-3" d="m155.33,112.18c-1.97,0-3.57-1.6-3.57-3.57,0-.95.38-1.85,1.05-2.52l11.62-11.62c1.42-1.37,3.68-1.33,5.05.09,1.34,1.38,1.34,3.58,0,4.96l-11.62,11.62c-.67.67-1.58,1.05-2.52,1.05"/><path id="Path_229" class="cls-3" d="m191.45,148.3c-1.97,0-3.57-1.6-3.57-3.57,0-.95.38-1.85,1.05-2.52l11.62-11.62c1.39-1.39,3.65-1.4,5.05,0,1.39,1.39,1.4,3.65,0,5.05l-11.62,11.62c-.67.67-1.58,1.05-2.52,1.05"/><path id="Path_230" class="cls-3" d="m205.97,77.59c-1.97,0-3.57-1.59-3.57-3.57,0-1.19.59-2.3,1.57-2.96l17.58-11.85c1.64-1.1,3.86-.67,4.96.97,1.1,1.64.67,3.86-.97,4.96h0l-17.58,11.85c-.59.4-1.28.61-1.99.61"/><path id="Path_231" class="cls-3" d="m197.17,83.52c-1.97,0-3.57-1.59-3.58-3.56,0-1.19.59-2.31,1.58-2.97l.82-.55c1.62-1.13,3.84-.73,4.97.88s.73,3.84-.88,4.97c-.03.02-.07.05-.1.07l-.82.55c-.59.4-1.28.61-1.99.61"/><path id="Path_232" class="cls-3" d="m178.69,170.58c-.95,0-1.86-.38-2.52-1.05l-43.79-43.79c-1.39-1.39-1.39-3.65,0-5.05,0,0,0,0,0,0l17.52-17.52c1.39-1.39,3.65-1.4,5.04,0,0,0,0,0,0,0l43.79,43.79c1.39,1.39,1.39,3.65,0,5.05,0,0,0,0,0,0l-17.52,17.52c-.67.67-1.58,1.05-2.52,1.05m-38.74-47.36l38.74,38.74,12.47-12.47-38.74-38.74-12.47,12.47Z"/><path id="Path_233" class="cls-3" d="m165.29,172.43c-.95,0-1.86-.38-2.52-1.05l-32.23-32.23c-1.37-1.42-1.33-3.68.09-5.05,1.38-1.34,3.58-1.34,4.96,0l32.23,32.23c1.39,1.39,1.39,3.65,0,5.05-.67.67-1.58,1.05-2.52,1.05"/><path id="Path_234" class="cls-3" d="m157.4,180.32c-.95,0-1.86-.38-2.52-1.05l-32.23-32.24c-1.37-1.42-1.33-3.68.09-5.05,1.38-1.34,3.58-1.34,4.96,0l32.23,32.23c1.39,1.39,1.39,3.65,0,5.05-.67.67-1.58,1.05-2.52,1.05"/><path id="Path_235" class="cls-3" d="m149.51,188.2c-.95,0-1.86-.38-2.52-1.05l-32.23-32.23c-1.35-1.44-1.27-3.7.16-5.05,1.37-1.29,3.51-1.29,4.88,0l32.23,32.23c1.39,1.39,1.39,3.65,0,5.05-.67.67-1.58,1.05-2.52,1.05"/><path id="Path_236" class="cls-3" d="m141.62,196.09c-.95,0-1.85-.38-2.52-1.05l-32.23-32.23c-1.37-1.42-1.33-3.68.09-5.05,1.38-1.34,3.58-1.34,4.96,0l32.23,32.23c1.39,1.4,1.39,3.66,0,5.05-.67.67-1.57,1.04-2.52,1.04"/><path id="Path_237" class="cls-3" d="m123.28,193.53c-.95,0-1.85-.38-2.52-1.05l-11.34-11.34c-1.37-1.42-1.33-3.68.09-5.05,1.38-1.34,3.58-1.34,4.96,0l11.34,11.34c1.39,1.39,1.39,3.65,0,5.05-.67.67-1.58,1.05-2.52,1.05"/></g></g></svg>