<?xml version="1.0" encoding="UTF-8"?><svg id="Layer_2" xmlns="http://www.w3.org/2000/svg" viewBox="0 0 276.7 263.18"><defs><style>.cls-1{opacity:.38;}.cls-2{fill:#e51e26;}.cls-2,.cls-3,.cls-4,.cls-5{stroke-width:0px;}.cls-3{fill:#fff;}.cls-4{fill:#f16422;}.cls-5{fill:#fcc210;}</style></defs><g id="Layer_1-2"><g id="Group_111" class="cls-1"><path class="cls-5" d="m53.05,211.03H0l.54-1.91L59.46,0h53.05l-.54,1.91-58.93,209.12Zm-49.08-3h46.81L108.55,3h-46.81L3.96,208.03Z"/><path class="cls-4" d="m115.79,211.03h-53.05l.54-1.91L122.21,0h53.04l-.54,1.91-58.93,209.12Zm-49.08-3h46.81L171.29,3h-46.81l-57.77,205.03Z"/><path class="cls-2" d="m178.53,211.03h-53.04l.54-1.91L184.95,0h33.54c8.15,0,14.77,6.63,14.77,14.78,0,1.35-.19,2.7-.55,4l-54.17,192.25Zm-49.08-3h46.81L229.82,17.97c.29-1.04.44-2.11.44-3.19,0-6.49-5.28-11.78-11.77-11.78h-31.26l-57.77,205.03Z"/><path class="cls-4" d="m151.36,263.18c-.83,0-1.67-.07-2.51-.21l-98.12-16.9,9.48-25.75,115.09.02-9.8,32.36c-1.91,6.31-7.74,10.49-14.14,10.49Zm-96.57-19.46l94.57,16.28c5.84,1.01,11.55-2.51,13.27-8.19l8.63-28.49-108.95-.02-7.51,20.41Z"/></g><g id="Group_112"><path id="Path_238" class="cls-3" d="m208.05,146.47c-4.71,0-9.23-1.87-12.56-5.2l-21.14-21.14c-6.55-6.55-6.97-17.02-.98-24.07l1.89-35.75c.32-5.99,5.43-10.59,11.41-10.27,5.98.33,10.58,5.43,10.27,11.42l-.61,11.56,35.42-35.42c4.25-4.24,11.13-4.23,15.37.02.89.89,1.62,1.93,2.15,3.07l.36-.36c4.3-4.1,11.06-4.1,15.36,0,2.04,2.03,3.19,4.8,3.18,7.68,0,1.15-.18,2.29-.54,3.38,5.69,1.87,8.79,8.01,6.91,13.7-.53,1.61-1.44,3.08-2.64,4.28l-1.49,1.49c5.43,2.53,7.79,8.99,5.25,14.43-.54,1.15-1.27,2.19-2.16,3.09l-52.89,52.89c-3.33,3.34-7.85,5.21-12.56,5.2m-21.96-89.32c-1.97,0-3.6,1.55-3.71,3.52l-1.96,37.04c-.05.88-.42,1.71-1.04,2.34-4.15,4.15-4.15,10.88,0,15.03,0,0,0,0,0,0l21.14,21.14c4.15,4.14,10.88,4.14,15.03,0l52.89-52.9c1.45-1.45,1.45-3.8,0-5.26-1.45-1.45-3.8-1.45-5.26,0-1.37,1.42-3.63,1.46-5.05.09-1.42-1.37-1.46-3.63-.09-5.05.03-.03.06-.06.09-.09l8.7-8.7c1.45-1.45,1.45-3.8,0-5.26-1.45-1.45-3.8-1.45-5.26,0-1.42,1.37-3.68,1.33-5.05-.09-1.34-1.38-1.34-3.58,0-4.96l3.38-3.38c1.45-1.45,1.45-3.81,0-5.26-1.47-1.41-3.79-1.41-5.26,0l-7.56,7.55-.02.02c-1.42,1.37-3.68,1.33-5.05-.09-1.34-1.38-1.34-3.58,0-4.96h.01c1.44-1.48,1.41-3.83-.06-5.27-1.45-1.42-3.77-1.41-5.21.01l-42,42c-1.4,1.39-3.66,1.39-5.05,0-.71-.72-1.09-1.7-1.04-2.71l1.1-20.86c.11-2.05-1.47-3.8-3.52-3.91-.07,0-.14,0-.2,0"/><path id="Path_239" class="cls-3" d="m208.05,69.91c-1.97,0-3.57-1.6-3.57-3.57,0-.95.38-1.85,1.05-2.52l26.22-26.23c1.42-1.37,3.68-1.33,5.05.09,1.34,1.38,1.34,3.58,0,4.96l-26.22,26.23c-.67.67-1.58,1.05-2.52,1.05"/><path id="Path_240" class="cls-3" d="m230.6,88.59c-1.97,0-3.57-1.6-3.57-3.57,0-.95.38-1.85,1.05-2.52l31.86-31.86c1.34-1.45,3.6-1.53,5.05-.19s1.53,3.6.19,5.05c-.06.07-.13.13-.19.19l-31.86,31.86c-.67.67-1.58,1.05-2.52,1.05"/><path id="Path_241" class="cls-3" d="m220.29,78.28c-1.97,0-3.57-1.6-3.57-3.57,0-.95.38-1.85,1.05-2.52l31.86-31.86c1.42-1.37,3.68-1.33,5.05.09,1.34,1.38,1.34,3.58,0,4.96l-31.86,31.86c-.67.67-1.58,1.05-2.52,1.05"/><path id="Path_242" class="cls-3" d="m240.9,98.89c-1.97,0-3.57-1.6-3.57-3.57,0-.95.38-1.85,1.05-2.52l28.48-28.48c1.37-1.42,3.63-1.46,5.05-.09,1.42,1.37,1.46,3.63.09,5.05-.03.03-.06.06-.09.09l-28.48,28.48c-.67.67-1.58,1.05-2.52,1.05"/><path id="Path_243" class="cls-3" d="m229.29,110.5c-.95,0-1.86-.38-2.52-1.05l-20.61-20.61c-1.35-1.43-1.29-3.69.15-5.05,1.37-1.3,3.52-1.3,4.9,0l20.61,20.61c1.39,1.39,1.39,3.65,0,5.05-.67.67-1.58,1.05-2.52,1.05"/><path id="Path_244" class="cls-3" d="m222.29,117.52c-.95,0-1.86-.38-2.52-1.05l-20.61-20.61c-1.37-1.42-1.33-3.68.09-5.05,1.38-1.34,3.58-1.34,4.96,0l20.61,20.61c1.39,1.39,1.39,3.65,0,5.05-.67.67-1.58,1.05-2.52,1.05"/><path id="Path_245" class="cls-3" d="m155.75,206.57c-.34,0-.68-.05-1-.14-.56-.16-13.77-4.12-27.6-17.95s-17.8-27.05-17.96-27.6c-.42-1.43.1-2.97,1.3-3.86l61.67-45.82c1.58-1.18,3.82-.84,4.99.74s.84,3.82-.74,4.99l-59.52,44.22c3.61,8.35,8.8,15.92,15.3,22.28,6.35,6.51,13.92,11.71,22.27,15.31l44.23-59.53c1.16-1.6,3.39-1.95,4.99-.8,1.6,1.16,1.95,3.39.8,4.99-.02.02-.03.05-.05.07l-45.81,61.67c-.67.91-1.74,1.44-2.87,1.44"/><path id="Path_246" class="cls-3" d="m119.61,177.2c-1.97,0-3.57-1.59-3.57-3.56,0-1.05.46-2.04,1.25-2.72l32.28-27.69-1.52-11.85c-.25-1.96,1.13-3.75,3.09-4,1.95-.23,3.72,1.14,3.99,3.09l1.77,13.76c.15,1.19-.3,2.38-1.21,3.16l-33.75,28.95c-.65.56-1.47.86-2.32.86"/><path id="Path_247" class="cls-3" d="m141.99,199.58c-1.97,0-3.57-1.59-3.57-3.56,0-.85.3-1.68.86-2.33l28.95-33.74c.79-.9,1.97-1.35,3.16-1.21l13.76,1.77c1.95.28,3.31,2.09,3.03,4.04-.27,1.91-2.02,3.26-3.94,3.04l-11.85-1.52-27.7,32.28c-.68.79-1.67,1.25-2.71,1.25"/><path id="Path_248" class="cls-3" d="m198.7,169.22c-.95,0-1.86-.38-2.52-1.05l-8.72-8.72c-1.42-1.37-1.46-3.63-.09-5.05,1.37-1.42,3.63-1.46,5.05-.09.03.03.06.06.09.09l8.72,8.72c1.39,1.39,1.39,3.65,0,5.05-.67.67-1.58,1.05-2.52,1.05"/><path id="Path_249" class="cls-3" d="m187.92,183.73c-.95,0-1.86-.38-2.52-1.05l-8.72-8.72c-1.37-1.42-1.33-3.68.09-5.05,1.38-1.34,3.58-1.34,4.96,0l8.72,8.72c1.39,1.39,1.39,3.65,0,5.05-.67.67-1.58,1.05-2.52,1.05"/><path id="Path_250" class="cls-3" d="m177.13,198.24c-.95,0-1.86-.38-2.52-1.05l-8.72-8.72c-1.37-1.42-1.33-3.68.09-5.05,1.38-1.34,3.58-1.34,4.96,0l8.72,8.72c1.39,1.39,1.39,3.65,0,5.05-.67.67-1.58,1.05-2.52,1.05"/></g></g></svg>