<svg xmlns="http://www.w3.org/2000/svg" xmlns:xlink="http://www.w3.org/1999/xlink" width="353.972" height="263.179" viewBox="0 0 353.972 263.179">
  <defs>
    <clipPath id="clip-path">
      <rect id="Rectangle_57" data-name="Rectangle 57" width="266.978" height="162.796" fill="#fff" stroke="#fff" stroke-width="1"/>
    </clipPath>
  </defs>
  <g id="Group_136" data-name="Group 136" transform="translate(-6167.019 -2852.5)">
    <g id="Group_113" data-name="Group 113" transform="translate(6169 2854)" opacity="0.385">
      <path id="Path_58" data-name="Path 58" d="M91.145,239.227H38.1L97.565,28.2H150.61Zm-49.083-3H88.873L146.648,31.2H99.837Z" transform="translate(-40.081 -29.699)" fill="#fec200"/>
      <path id="Path_59" data-name="Path 59" d="M112.707,239.227H59.662L119.127,28.2h53.045Zm-49.083-3h46.811L168.21,31.2H121.4Z" transform="translate(1.1 -29.699)" fill="#f26319"/>
      <path id="Path_60" data-name="Path 60" d="M134.269,239.227H81.224L140.689,28.2h33.532A14.775,14.775,0,0,1,188.442,46.98Zm-49.083-3H132L185.554,46.167A11.775,11.775,0,0,0,174.221,31.2h-31.26Z" transform="translate(42.282 -29.699)" fill="#e60019"/>
      <path id="Path_61" data-name="Path 61" d="M156.139,146.776a14.877,14.877,0,0,1-2.519-.216L55.5,129.665l9.478-25.754,115.087.015-9.8,32.357a14.772,14.772,0,0,1-14.128,10.493ZM59.561,127.32,154.129,143.6a11.867,11.867,0,0,0,2.01.173,11.775,11.775,0,0,0,11.257-8.362l8.627-28.489-108.952-.014Z" transform="translate(-6.753 114.903)" fill="#f26319"/>
    </g>
    <g id="Group_135" data-name="Group 135" transform="translate(5618.012 2823.273)">
      <g id="Group_131" data-name="Group 131" transform="translate(636 73)" clip-path="url(#clip-path)">
        <path id="Path_281" data-name="Path 281" d="M266.963,143.7a12.194,12.194,0,0,0-12.315-11.374q-26.257-.033-52.515-.007H199.98l-.4-.618c.577-.475,1.081-1.182,1.742-1.39,6.721-2.115,11.124-7.738,11.126-14.362q.008-37.233-.019-74.466a81,81,0,0,0-.655-12.936A34.286,34.286,0,0,0,178.268.015Q106.164-.025,34.06.031A32.3,32.3,0,0,0,28.1.572,34.634,34.634,0,0,0,.02,34.372Q-.032,74.854.01,115.335c0,7.348,3.958,12.763,10.972,14.873a2.03,2.03,0,0,1,1.589,1.593c1.509,4.876,5.074,7.43,10.2,7.429q25.09-.007,50.18-.041a1.7,1.7,0,0,1,1.9,1.327c4.1,10.881,11.755,18,22.951,21.125,16.354,4.562,33.972-4.786,39.708-20.949.32-.9.589-1.5,1.776-1.492,9.224.055,18.449.014,27.673.072a2.178,2.178,0,0,1,1.615.957c2.56,4.958,6.608,7.229,12.151,7.2,10.336-.058,20.672-.014,31.009-.014q25.84,0,51.681-.005c2.867,0,3.693-.886,3.546-3.71M5.424,34.955A29.268,29.268,0,0,1,35.037,5.4c47.283,0,94.568.11,141.85-.067,14.768-.055,28.077,10.527,29.83,26.031.533,4.719.227,9.538.231,14.311q.02,28.233-.009,56.466v2.229c-.589.044-1.016.1-1.443.1h-14.07A28.864,28.864,0,0,0,154.583,61.2c-1.874,1.108-3.336,2.213-5.289.162-.4-.419-2-.233-2.634.235-1.02.753-.837,1.952.1,2.859.886.859,1.839,1.649,2.739,2.494,1.43,1.34,2.781,1.092,4.207-.056a23.8,23.8,0,0,1,21.045-4.764,24.312,24.312,0,0,1,18.525,28.839,25.306,25.306,0,0,1-7.549,13.5q-16.529,0-33.058.018a24.506,24.506,0,0,1-7.639-23.334c.292-1.463.542-3.035-1.446-3.769-1.138-.42-2.868-.887-3.1-1.687-.273-.951,1-2.249,1.181-3.46a8.558,8.558,0,0,0-.632-2.921c-.909.229-2.192.165-2.652.749a14.782,14.782,0,0,0-2.419,4.466,42.186,42.186,0,0,0-1.2,20.07,3.836,3.836,0,0,1,.067,1.5A43.369,43.369,0,0,0,85.5,90.56a26.538,26.538,0,0,1-.974-6.168c-.112-4.315.114-8.638.1-12.957a2.92,2.92,0,0,0-.874-2.089,2.128,2.128,0,0,0-2.073.02,3.524,3.524,0,0,0-1.121,2.421C80.729,74.507,79.6,76,77,76.691a29.409,29.409,0,0,0-3.951,1.71c-2.557,1.106-2.988,1.633-2.389,4.388a20.108,20.108,0,0,1-.994,10.891,25.475,25.475,0,0,1-6.8,10.819q-16.454-.022-32.908-.023a29.4,29.4,0,0,1-3-3.189C18.1,90.373,20.736,73.5,32.413,65.661A25.415,25.415,0,0,1,50.045,61.69a22.018,22.018,0,0,1,12.177,5.617c-.414.384-.7.647-.988.917-1.074,1.018-2.292,2.115-.915,3.619,1.3,1.42,2.507.606,3.728-.432,3.079-2.617,6.221-5.161,9.38-7.682,2.328-1.857,2.332-3.069-.143-4.7Q49.957,43.615,26.627,28.208a20.485,20.485,0,0,1-1.863-1.568l.251-.5H55.332c-.171.785-.553,1.472-.373,1.942a3.749,3.749,0,0,0,1.529,2.1,2.488,2.488,0,0,0,2.228-.815A4.941,4.941,0,0,0,54.884,21.5c-10.295-.01-20.59.218-30.885.384A3.1,3.1,0,0,0,20.881,24.4c-.8,3.12-.009,5.052,2.685,6.83q21.965,14.493,43.927,28.99a19.95,19.95,0,0,1,1.646,1.351c-2.8,3.066-3.195,3.1-5.613,1.381-9.462-6.742-19.612-7.862-30-2.709-9.259,4.593-14.646,12.229-15.846,22.7a27.083,27.083,0,0,0,6.367,21.394c.038.045.078.087.117.132L7,104.472c-.439,0-.878-.047-1.574-.087v-1.972q0-33.729,0-67.459M139.785,98.071a43.562,43.562,0,0,1-1.215-6.207c-.2-3.794-.056-7.607-.056-11.551,2.45.017,2.264,1.306,2.033,2.337-.756,3.381-.192,6.653.522,9.949a27.768,27.768,0,0,0,5.845,11.9q-1.628,0-3.256,0a2.659,2.659,0,0,1-2.442-1.292q-1.026-1.44-2.154-2.768a2.064,2.064,0,0,0,.724-2.366M75.112,84.211a3.074,3.074,0,0,1,.723-2.33,19.954,19.954,0,0,1,3.8-1.691c.474,3.412.9,6.517,1.337,9.618a13.977,13.977,0,0,0,.793,3.067,42.521,42.521,0,0,0-10.635,10.368,2.533,2.533,0,0,1-2.3,1.261h-.385a32.1,32.1,0,0,0,2.012-2.729,28.668,28.668,0,0,0,4.649-17.563M71.432,133.7q-24.481,0-48.963.024a4.325,4.325,0,0,1-4.356-2.889H72.823c.108.888.215,1.756.35,2.865H71.432M106.1,157.293a28.114,28.114,0,1,1,28.028-28.132A28.083,28.083,0,0,1,106.1,157.293m-2.459-61.583A33.484,33.484,0,0,0,73.417,123c-.121.7-.269,1.4-.438,2.276H71.14q-28.008.006-56.015.009a9.433,9.433,0,0,1-9.7-9.666c-.009-1.818,0-3.636,0-5.662H7.883c20.839,0,41.678-.023,62.517.04a4.642,4.642,0,0,0,4.36-2.37c14.271-21.788,46.421-22.639,61.7-1.521a8.325,8.325,0,0,0,7.771,3.936c20.171-.176,40.344-.085,60.516-.085h2.01c0,2.74.353,5.384-.077,7.893a9.052,9.052,0,0,1-9.193,7.415c-18.894.025-37.788,0-56.683.033-1.105,0-1.495-.321-1.681-1.446a33.315,33.315,0,0,0-35.483-28.143M150.8,133.7H139.263c.113-1.083.2-1.95.3-2.9h54.482c-.437,1.939-1.761,2.905-3.96,2.905l-39.291,0m104.094,8.27q-37.166,0-74.331.011a6.972,6.972,0,0,1-6.007-2.662c.778-.039,1.305-.088,1.832-.089,4.555-.006,9.11.036,13.664-.029a8.85,8.85,0,0,0,3.565-.606,11.181,11.181,0,0,1,5-.882q27.666.028,55.332,0a7.358,7.358,0,0,1,7.1,4.258Z" transform="translate(0 0)" fill="#fff"/>
        <path id="Path_281_-_Outline" data-name="Path 281 - Outline" d="M106.26,163.3a31.977,31.977,0,0,1-8.593-1.174c-11.283-3.147-19.117-10.357-23.285-21.431-.3-.806-.582-1-1.421-1h-.012c-13.569.035-27.364.037-40.705.039l-9.476,0a11.232,11.232,0,0,1-6.749-1.982,10.909,10.909,0,0,1-3.926-5.8,1.544,1.544,0,0,0-1.255-1.262c-7.2-2.165-11.328-7.76-11.328-15.351q0-10.446,0-20.892C-.5,74.755-.506,54.4-.48,34.372A34.445,34.445,0,0,1,1.674,22.414,35.371,35.371,0,0,1,16.639,4.406,34.621,34.621,0,0,1,28.007.081a32.725,32.725,0,0,1,6.053-.55C66.642-.49,95.673-.5,122.811-.5c19.125,0,37.784.005,55.458.015a34.786,34.786,0,0,1,34,28.946,74.945,74.945,0,0,1,.661,12.035q0,.491,0,.982c.042,19.282.033,38.886.025,57.845q0,8.311-.006,16.622c0,6.82-4.506,12.645-11.475,14.839a2.951,2.951,0,0,0-1.006.77c-.077.077-.156.154-.236.231l.019.03h1.879l15.126,0,15.126,0c8.668,0,15.743,0,22.264.012a12.683,12.683,0,0,1,12.814,11.848c.085,1.636-.148,2.618-.778,3.282s-1.611.953-3.267.954c-11.455,0-22.707.006-33.16.006H211.736c-3.107,0-6.265,0-9.32-.008s-6.212-.008-9.318-.008c-4.78,0-8.71.01-12.368.03h-.114a14.326,14.326,0,0,1-7.378-1.822,13.609,13.609,0,0,1-5.107-5.647,1.71,1.71,0,0,0-1.174-.686c-4.686-.03-9.452-.034-14.061-.037-4.461,0-9.074-.007-13.612-.035h-.018c-.831,0-.979.3-1.285,1.159a33.222,33.222,0,0,1-5.053,9.243,34.272,34.272,0,0,1-16.568,11.6A33,33,0,0,1,106.26,163.3Zm-33.3-24.608a2.173,2.173,0,0,1,2.357,1.651A34.178,34.178,0,0,0,84,153.62a33.549,33.549,0,0,0,13.934,7.539,30.976,30.976,0,0,0,8.324,1.137,32,32,0,0,0,9.794-1.547,33.272,33.272,0,0,0,16.083-11.261,32.223,32.223,0,0,0,4.9-8.965c.288-.813.647-1.825,2.227-1.825h.023c4.535.027,9.147.031,13.607.035,4.61,0,9.377.008,14.067.037A2.666,2.666,0,0,1,169.02,140c2.407,4.662,6.2,6.928,11.6,6.928h.108c3.66-.021,7.591-.03,12.374-.03,3.107,0,6.265,0,9.32.008s6.212.008,9.319.008h18.521c10.453,0,21.7,0,33.159-.006a3.465,3.465,0,0,0,2.542-.642,3.42,3.42,0,0,0,.5-2.542,11.684,11.684,0,0,0-11.816-10.9c-6.521-.008-13.6-.012-22.263-.012l-15.126,0-15.126,0h-2.426l-.148-.23-.4-.619-.238-.373.342-.282c.165-.136.328-.3.5-.468a3.67,3.67,0,0,1,1.41-1.014c6.545-2.06,10.774-7.51,10.776-13.885q0-8.311.006-16.623c.008-18.958.017-38.562-.025-57.842q0-.491,0-.983a74.2,74.2,0,0,0-.647-11.873A33.786,33.786,0,0,0,178.268.515C160.594.505,141.936.5,122.811.5c-27.138,0-56.168.01-88.75.03a31.721,31.721,0,0,0-5.868.533,33.623,33.623,0,0,0-11.041,4.2,34.371,34.371,0,0,0-14.541,17.5A33.447,33.447,0,0,0,.52,34.373C.494,54.4.5,74.755.505,94.443q0,10.446,0,20.893a15,15,0,0,0,2.759,9.1,14.7,14.7,0,0,0,7.858,5.289,2.507,2.507,0,0,1,1.922,1.924c1.433,4.63,4.793,7.077,9.716,7.077l9.479,0c13.341,0,27.135,0,40.7-.039Zm33.189,19.1H106.1a27.749,27.749,0,0,1-11-2.278,28.366,28.366,0,0,1-9-6.164,28.746,28.746,0,0,1-8.3-20.235,28.287,28.287,0,0,1,2.245-11.078A28.786,28.786,0,0,1,95.189,102.83a28.034,28.034,0,0,1,11.04-2.264h.037a27.679,27.679,0,0,1,11,2.266,28.638,28.638,0,0,1-11.111,54.962Zm.116-56.228h-.036a27.04,27.04,0,0,0-10.649,2.184,27.7,27.7,0,0,0-.088,50.847,26.754,26.754,0,0,0,10.6,2.2h.053a27.6,27.6,0,0,0,27.474-27.632,27.258,27.258,0,0,0-2.16-10.689,27.894,27.894,0,0,0-14.6-14.722A26.685,26.685,0,0,0,106.266,101.566Zm74.293,40.915h-.011a7.517,7.517,0,0,1-6.388-2.85l-.605-.762.972-.049c.264-.013.5-.028.715-.041.418-.026.78-.048,1.141-.048q2.109,0,4.216,0,1.644,0,3.287,0c2.472,0,4.37-.011,6.154-.037a8.438,8.438,0,0,0,3.359-.559,11.513,11.513,0,0,1,5.175-.929h.038c11.1.011,20.341.017,29.066.017,9.405,0,18-.006,26.264-.019h.02a7.863,7.863,0,0,1,7.524,4.521l.4.738H224.362C211.326,142.469,195.928,142.47,180.559,142.481Zm-4.936-2.723a6.6,6.6,0,0,0,4.925,1.723h.01c15.369-.01,30.767-.012,43.8-.012h35.811a6.745,6.745,0,0,0-6.209-3.258h-.019c-8.268.013-16.86.019-26.266.019-8.726,0-17.962-.005-29.067-.017h-.037a10.629,10.629,0,0,0-4.748.834,9.3,9.3,0,0,1-3.771.654c-1.789.026-3.692.037-6.169.037q-1.644,0-3.289,0-2.107,0-4.213,0C176.142,139.731,175.9,139.742,175.623,139.758ZM22.45,134.223a4.835,4.835,0,0,1-4.793-3.182l-.32-.706H73.266l.472,3.865H70.832q-10.938,0-21.875,0c-7.292,0-16.892,0-26.488.027Zm-3.513-2.889a3.7,3.7,0,0,0,3.513,1.889h.018c9.6-.024,19.2-.027,26.49-.027s14.583,0,21.875,0h1.776l-.228-1.865Zm171.15,2.87-39.291,0H138.709l.057-.552c.076-.729.141-1.359.206-1.984l.142-1.365h55.558l-.137.61a4.043,4.043,0,0,1-1.512,2.474A4.872,4.872,0,0,1,190.087,134.2Zm-43.067-1H150.8l39.291,0a3.91,3.91,0,0,0,2.345-.629,2.761,2.761,0,0,0,.944-1.277H140.016l-.049.469-.149,1.432Zm-6.218-7.4h-.009a1.872,1.872,0,0,1-2.166-1.864,33.978,33.978,0,0,0-3.951-11.255A32.5,32.5,0,0,0,117.6,98.173a33.439,33.439,0,0,0-11.584-2.042c-.775,0-1.563.026-2.342.078A32.984,32.984,0,0,0,73.91,123.087c-.082.476-.178.958-.279,1.469-.051.257-.1.527-.161.817l-.078.405H71.14l-13.861,0c-12.191,0-24.8.006-37.2.006h-4.96a10.2,10.2,0,0,1-7.281-2.892,10.222,10.222,0,0,1-2.92-7.271c-.006-1.232,0-2.459,0-3.759,0-.618,0-1.251,0-1.905v-.5H8.936q12.83,0,25.66,0c10.572,0,23.093.005,35.806.043h.025a4.152,4.152,0,0,0,3.915-2.144,37.872,37.872,0,0,1,6.4-7.456,37.343,37.343,0,0,1,7.743-5.343,38.668,38.668,0,0,1,34.565-.418A37.067,37.067,0,0,1,130.523,99a37.745,37.745,0,0,1,6.34,6.819,9.013,9.013,0,0,0,3.116,2.895,8.866,8.866,0,0,0,4.246.835c8.6-.075,17.772-.108,29.741-.108,5.131,0,10.347.006,15.391.012s10.259.012,15.389.012h2.51v.5c0,.851.035,1.707.069,2.535a25.767,25.767,0,0,1-.154,5.442,9.539,9.539,0,0,1-9.686,7.83c-9.016.012-18.182.013-27.047.014C160.725,125.783,150.681,125.784,140.8,125.8ZM106.014,95.131a34.436,34.436,0,0,1,11.929,2.1,33.5,33.5,0,0,1,17.6,14.953,34.977,34.977,0,0,1,4.068,11.585c.145.874.321,1.028,1.179,1.028h.008c9.879-.015,19.924-.017,29.637-.018,8.864,0,18.03,0,27.046-.014a8.554,8.554,0,0,0,8.7-7,25.041,25.041,0,0,0,.14-5.232c-.028-.677-.056-1.373-.066-2.076h-1.514c-5.131,0-10.346-.006-15.391-.012s-10.259-.012-15.389-.012c-11.966,0-21.135.033-29.732.108a9.789,9.789,0,0,1-4.713-.946,9.959,9.959,0,0,1-3.468-3.2,36.745,36.745,0,0,0-6.172-6.639,36.066,36.066,0,0,0-7.276-4.727,37.668,37.668,0,0,0-33.665.408,36.342,36.342,0,0,0-7.536,5.2,36.873,36.873,0,0,0-6.226,7.259,5.15,5.15,0,0,1-4.752,2.6H70.4c-12.711-.038-25.232-.043-35.8-.043q-12.83,0-25.66,0H5.922c0,.479,0,.947,0,1.407,0,1.3,0,2.524,0,3.753a9.229,9.229,0,0,0,2.626,6.568,9.208,9.208,0,0,0,6.575,2.6h4.96c12.4,0,25,0,37.195-.006l15.287,0,.083-.417c.1-.526.195-.981.275-1.444A33.984,33.984,0,0,1,103.6,95.212C104.406,95.158,105.216,95.131,106.014,95.131ZM68.845,105H68.45L67.4,105l.67-.814a31.747,31.747,0,0,0,1.98-2.687,27.557,27.557,0,0,0,3.682-8.24,30.224,30.224,0,0,0,.884-9.024,3.506,3.506,0,0,1,.936-2.763,12.093,12.093,0,0,1,2.778-1.309c.372-.138.757-.281,1.12-.433l.6-.251.089.644c.152,1.095.3,2.158.442,3.2.306,2.217.595,4.312.895,6.417a13.522,13.522,0,0,0,.764,2.958l.142.369-.326.224a42.25,42.25,0,0,0-10.511,10.247A3.018,3.018,0,0,1,68.845,105ZM79.233,80.891c-.187.071-.374.141-.557.209a11.184,11.184,0,0,0-2.553,1.191,2.709,2.709,0,0,0-.511,1.9A31.222,31.222,0,0,1,74.7,93.51a28.555,28.555,0,0,1-3.815,8.539c-.419.636-.862,1.26-1.324,1.865a2.225,2.225,0,0,0,1.172-.962A43.178,43.178,0,0,1,81.167,92.685a14.615,14.615,0,0,1-.684-2.806c-.3-2.108-.589-4.2-.9-6.422C79.471,82.617,79.354,81.764,79.233,80.891ZM63.056,105h-.195c-10.579-.014-21.651-.022-32.907-.023H29.76l-.143-.131a30.054,30.054,0,0,1-3.051-3.243,23.817,23.817,0,0,1-4.608-9.214,25.325,25.325,0,0,1-.481-10.047,25.877,25.877,0,0,1,3.461-9.561,24.158,24.158,0,0,1,7.2-7.533,24.859,24.859,0,0,1,6.947-3.258,26.5,26.5,0,0,1,7.36-1.006,32.873,32.873,0,0,1,3.659.211,22.546,22.546,0,0,1,12.45,5.737l.417.366-.407.377-.378.349c-.225.207-.419.387-.607.564l-.063.059c-1.283,1.214-1.749,1.852-.827,2.859a1.52,1.52,0,0,0,1.095.6,3.62,3.62,0,0,0,1.941-1.074c3.385-2.876,6.8-5.621,9.393-7.692,1.061-.846,1.565-1.517,1.541-2.051s-.562-1.128-1.647-1.844q-8.324-5.5-16.65-10.995c-9.837-6.495-20.009-13.21-30.008-19.823a11.3,11.3,0,0,1-1.342-1.1c-.186-.169-.378-.344-.569-.506l-.3-.254.565-1.126H55.953l-.132.607c-.061.282-.147.549-.222.785a2.032,2.032,0,0,0-.172.872,3.29,3.29,0,0,0,1.253,1.82.443.443,0,0,0,.161.021,2.259,2.259,0,0,0,1.467-.66,4.627,4.627,0,0,0,.325-4.8A4.172,4.172,0,0,0,54.883,22h-.674c-7.917,0-15.968.14-23.754.275-2.113.037-4.3.075-6.447.109a2.608,2.608,0,0,0-2.641,2.148,5.709,5.709,0,0,0,.011,3.609,5.971,5.971,0,0,0,2.465,2.679l11.907,7.856C46.245,45.6,57.1,52.758,67.769,59.808a10.974,10.974,0,0,1,1.181.945c.166.146.338.3.508.438l.4.335-.354.388c-1.67,1.828-2.576,2.689-3.658,2.689a4.941,4.941,0,0,1-2.614-1.238c-5.437-3.873-11.084-5.837-16.785-5.837a28.523,28.523,0,0,0-12.7,3.169C24.593,65.238,19.354,72.743,18.177,83a26.631,26.631,0,0,0,6.252,21.014l.055.062.059.067.712.826H24.165L7,104.972c-.3,0-.594-.02-.962-.046-.188-.013-.4-.028-.641-.041l-.472-.027v-2.444q0-10.5,0-20.991c0-15.23,0-30.979,0-46.468A29.777,29.777,0,0,1,35.037,4.9h1.79c12.91,0,26.037.008,38.732.017s25.821.017,38.732.017c24.534,0,44.424-.032,62.595-.1H177a30.919,30.919,0,0,1,20.047,7.336A29.257,29.257,0,0,1,207.215,31.3a81.933,81.933,0,0,1,.276,10.51c-.021,1.266-.043,2.575-.042,3.856.01,13.74,0,27.71,0,41.22q0,7.623-.006,15.246v2.692l-.463.035c-.2.015-.374.031-.545.047-.339.031-.631.059-.935.059H190.362l.68-.819a28.08,28.08,0,0,0,5.788-24.183,28.721,28.721,0,0,0-3.823-9.269,28.022,28.022,0,0,0-6.392-7.023A28.445,28.445,0,0,0,169.2,57.663a27.834,27.834,0,0,0-7.273.967,28.63,28.63,0,0,0-7.086,3l-.363.217a6.05,6.05,0,0,1-2.973,1.163,3.545,3.545,0,0,1-2.565-1.3,1.107,1.107,0,0,0-.517-.083,2.89,2.89,0,0,0-1.463.371,1.069,1.069,0,0,0-.483.794,1.768,1.768,0,0,0,.631,1.3c.489.474,1.01.937,1.515,1.386.4.357.817.726,1.218,1.1a2.408,2.408,0,0,0,1.637.773,3.17,3.17,0,0,0,1.915-.854,24,24,0,0,1,15.35-5.565,28.061,28.061,0,0,1,6.118.7,24.8,24.8,0,0,1,18.9,29.431,25.785,25.785,0,0,1-7.7,13.765l-.143.131h-.194c-10.848,0-21.97.007-33.058.018h-.191l-.142-.127a24.83,24.83,0,0,1-8.259-16.921,26.23,26.23,0,0,1,.462-6.884c.313-1.567.4-2.636-1.129-3.2-.174-.064-.363-.13-.563-.2-1.267-.44-2.577-.9-2.842-1.819a3.186,3.186,0,0,1,.582-2.236,5.017,5.017,0,0,0,.586-1.434,4.219,4.219,0,0,0-.338-1.78c-.053-.16-.106-.322-.156-.487-.166.027-.334.05-.5.072-.54.072-1.211.163-1.4.405a14.379,14.379,0,0,0-2.336,4.312,41.464,41.464,0,0,0-1.183,19.835l.008.049a4.008,4.008,0,0,1,.047,1.663l-.214.771-.6-.531a42.112,42.112,0,0,0-13.275-7.956,43.065,43.065,0,0,0-25.5-1.436A42.131,42.131,0,0,0,85.745,91l-.557.306-.166-.614a27.03,27.03,0,0,1-.991-6.286c-.065-2.519-.016-5.077.033-7.551.035-1.777.071-3.614.063-5.417a2.464,2.464,0,0,0-.676-1.693,1.455,1.455,0,0,0-.743-.158,1.259,1.259,0,0,0-.686.144,3.045,3.045,0,0,0-.965,2.025c.184,2.936-1.065,4.658-3.931,5.42a14.141,14.141,0,0,0-2.555,1.06c-.431.212-.876.43-1.326.625-1.173.507-1.861.875-2.143,1.366-.259.452-.248,1.118.043,2.458a20.375,20.375,0,0,1-1.009,11.158A25.988,25.988,0,0,1,63.2,104.867Zm-32.907-1.024c11.12,0,22.059.009,32.518.023A25.078,25.078,0,0,0,69.191,93.52,19.427,19.427,0,0,0,70.169,82.9a4.449,4.449,0,0,1,.066-3.168,5.112,5.112,0,0,1,2.613-1.785c.428-.185.862-.4,1.282-.605a15.1,15.1,0,0,1,2.739-1.129,4.4,4.4,0,0,0,2.547-1.5,4.289,4.289,0,0,0,.643-2.886A4,4,0,0,1,81.337,69a2.145,2.145,0,0,1,1.37-.415,2.4,2.4,0,0,1,1.347.36,3.412,3.412,0,0,1,1.072,2.485c.007,1.815-.029,3.659-.063,5.441-.048,2.463-.1,5.009-.033,7.506a25.308,25.308,0,0,0,.8,5.439,43.14,43.14,0,0,1,9.651-3.7,44.065,44.065,0,0,1,26.092,1.469A43.137,43.137,0,0,1,134.319,95c-.013-.088-.028-.179-.042-.27l-.008-.049a42.437,42.437,0,0,1,1.22-20.3,15.186,15.186,0,0,1,2.5-4.62,3.026,3.026,0,0,1,2.055-.777,8.1,8.1,0,0,0,.868-.147l.49-.124.118.492c.068.281.162.568.262.872a4.968,4.968,0,0,1,.378,2.238,5.7,5.7,0,0,1-.69,1.754c-.3.566-.6,1.151-.506,1.5.122.425,1.48.9,2.209,1.15.2.071.4.138.581.206a2.723,2.723,0,0,1,1.893,1.971,5.778,5.778,0,0,1-.13,2.365,25.229,25.229,0,0,0-.445,6.622,23.83,23.83,0,0,0,7.785,16.114c10.959-.011,21.947-.017,32.672-.018a24.819,24.819,0,0,0,7.256-13.1A23.812,23.812,0,0,0,174.64,62.62a27.061,27.061,0,0,0-5.9-.679,23.028,23.028,0,0,0-14.723,5.344,4.1,4.1,0,0,1-2.542,1.075,3.394,3.394,0,0,1-2.32-1.044c-.391-.367-.8-.731-1.2-1.084-.513-.455-1.043-.926-1.547-1.415a2.71,2.71,0,0,1-.933-2.089,2.051,2.051,0,0,1,.886-1.531,3.8,3.8,0,0,1,2.057-.566,1.661,1.661,0,0,1,1.237.389,2.59,2.59,0,0,0,1.845.993,5.328,5.328,0,0,0,2.458-1.021l.369-.22a29.63,29.63,0,0,1,7.334-3.106,28.834,28.834,0,0,1,7.534-1,29.45,29.45,0,0,1,18.033,6.224,29.02,29.02,0,0,1,6.619,7.273,29.718,29.718,0,0,1,3.957,9.591,29.077,29.077,0,0,1-5.339,24.219H205.5c.258,0,.529-.025.843-.054l.1-.009v-1.769q0-7.623.006-15.246c.006-13.51.013-27.479,0-41.219,0-1.29.021-2.6.042-3.874a81.187,81.187,0,0,0-.27-10.381,28.257,28.257,0,0,0-9.82-18.49,29.918,29.918,0,0,0-19.4-7.1h-.113c-18.172.068-38.063.1-62.6.1-12.911,0-26.038-.008-38.732-.017S49.738,5.9,36.827,5.9h-1.79A28.768,28.768,0,0,0,5.924,34.955c-.007,15.489-.005,31.237,0,46.468q0,10.5,0,20.991v1.5l.182.013c.349.024.624.043.892.043l16.1,0a27.563,27.563,0,0,1-5.914-21.083,29.592,29.592,0,0,1,4.988-13.784A29.1,29.1,0,0,1,33.3,59.8a29.512,29.512,0,0,1,13.147-3.273c5.913,0,11.755,2.026,17.365,6.023A4.323,4.323,0,0,0,65.85,63.6c.6,0,1.3-.616,2.571-1.984L68.29,61.5a10.067,10.067,0,0,0-1.072-.862c-10.67-7.05-21.524-14.21-32.02-21.135L23.291,31.652a6.9,6.9,0,0,1-2.844-3.145,6.639,6.639,0,0,1-.05-4.227,3.6,3.6,0,0,1,3.594-2.9c2.148-.035,4.333-.073,6.446-.109C38.227,21.137,46.283,21,54.209,21h.676a5.157,5.157,0,0,1,4.634,2.827,5.624,5.624,0,0,1-.391,5.832,3.2,3.2,0,0,1-2.287,1.088,1.419,1.419,0,0,1-.542-.1,4.151,4.151,0,0,1-1.805-2.386,2.33,2.33,0,0,1,.153-1.535l.028-.087H25.52l.162.147a10.4,10.4,0,0,0,1.221,1C36.9,34.4,47.073,41.119,56.91,47.613q8.326,5.5,16.65,10.995c1.409.931,2.055,1.743,2.1,2.634s-.551,1.788-1.916,2.878c-2.589,2.066-5.994,4.8-9.368,7.672A4.347,4.347,0,0,1,61.783,73.1a2.482,2.482,0,0,1-1.832-.923,2.206,2.206,0,0,1-.568-2.493,5.808,5.808,0,0,1,1.445-1.768l.062-.059c.182-.172.368-.344.58-.54a21.4,21.4,0,0,0-11.481-5.133,31.871,31.871,0,0,0-3.548-.205,25.5,25.5,0,0,0-7.082.966,23.86,23.86,0,0,0-6.668,3.128,23.165,23.165,0,0,0-6.9,7.224,24.869,24.869,0,0,0-3.325,9.189,24.33,24.33,0,0,0,.462,9.652,22.824,22.824,0,0,0,4.415,8.83A29.109,29.109,0,0,0,30.149,103.975ZM143.659,105h-.008a3.149,3.149,0,0,1-2.842-1.5c-.654-.918-1.37-1.838-2.129-2.735l-.368-.435.479-.308c.192-.124.777-.5.5-1.847-.131-.648-.293-1.309-.449-1.949a23.657,23.657,0,0,1-.776-4.331c-.14-2.684-.112-5.315-.082-8.1.012-1.135.025-2.308.025-3.476v-.5l.5,0a2.8,2.8,0,0,1,2.294.8,2.493,2.493,0,0,1,.224,2.149c-.744,3.326-.15,6.632.523,9.733a27.43,27.43,0,0,0,5.741,11.681l.682.818-1.065,0Q145.287,105,143.659,105Zm-3.895-4.5c.658.8,1.282,1.607,1.859,2.417A2.156,2.156,0,0,0,143.651,104h.007l2.215,0a28.724,28.724,0,0,1-3.021-4.816,27.91,27.91,0,0,1-2.271-6.474c-.7-3.211-1.31-6.64-.521-10.164.112-.5.2-1.016-.03-1.308a1.494,1.494,0,0,0-1.016-.393c0,1-.014,1.993-.024,2.961-.03,2.77-.058,5.386.08,8.038a22.911,22.911,0,0,0,.748,4.146c.159.65.323,1.321.458,1.988A2.7,2.7,0,0,1,139.764,100.5Z" transform="translate(0 0)" fill="#fff"/>
        <path id="Path_282" data-name="Path 282" d="M229.722,266.218c-11.062-.233-19.7,8.2-19.959,19.475a19.526,19.526,0,1,0,19.959-19.475m-.437,34.345A14.662,14.662,0,1,1,243.947,285.9a14.662,14.662,0,0,1-14.662,14.662" transform="translate(-123.349 -156.547)" fill="#fff"/>
        <path id="Path_282_-_Outline" data-name="Path 282 - Outline" d="M229.3,306.09h0c-.136,0-.273,0-.407,0a19.679,19.679,0,0,1-7.75-1.759,20.382,20.382,0,0,1-10.462-10.9,19.444,19.444,0,0,1-1.412-7.743c.259-11.384,8.863-19.969,20.012-19.969.151,0,.305,0,.457,0a19.8,19.8,0,0,1,14.028,6.175,20.262,20.262,0,0,1-14.465,34.2Zm-.02-39.376c-10.592,0-18.766,8.165-19.013,18.991a18.449,18.449,0,0,0,1.34,7.347,19.382,19.382,0,0,0,9.946,10.364,18.684,18.684,0,0,0,7.358,1.67c.128,0,.258,0,.386,0h0a18.511,18.511,0,0,0,7.263-1.479,19.3,19.3,0,0,0,6.477-31.028,18.811,18.811,0,0,0-13.325-5.865C229.566,266.715,229.42,266.714,229.275,266.714Zm.01,34.35a15.162,15.162,0,1,1,10.721-4.441A15.062,15.062,0,0,1,229.285,301.064Zm0-29.323a14.162,14.162,0,1,0,10.014,4.148A14.069,14.069,0,0,0,229.285,271.74Z" transform="translate(-123.349 -156.547)" fill="#fff"/>
        <path id="Path_283" data-name="Path 283" d="M120.075,55.878c-.482,1.457.176,2.362,1.632,2.742.261.068.489.256.749.335,10.437,3.2,20.868,6.42,31.317,9.584a8.294,8.294,0,0,0,8.806-2.822c2.555-3.134,5.216-6.182,7.772-9.317a4.419,4.419,0,0,1,4.159-1.677c4.976.437,9.981.619,14.927,1.263,2.834.369,5.888-.053,8.411,2.091,2.289,1.945,4.913,3.489,7.31,5.315a3.164,3.164,0,0,0,4.142.126q2.107-1.469,4.192-2.97c2.582-1.854,2.849-4.168.725-6.544-1.143-1.278-2.474-2.408-3.492-3.774a7.141,7.141,0,0,0-7.46-3.092c-1.515.26-2.052-.417-2.085-1.944-.036-1.642.705-1.963,2.13-1.913a43.325,43.325,0,0,0,6.784-.087,3.1,3.1,0,0,0,2.08-1.981c.253-1.193-.7-1.931-2.059-1.925-3.569.015-7.138-.038-10.707-.03a2.072,2.072,0,0,0-2.363,2.235c-.016,2.471-.018,4.943.03,7.413a2.062,2.062,0,0,0,2.314,2.279c1.579-.014,3.159-.069,4.735-.019a3.5,3.5,0,0,1,1.925.448c1.894,1.462,3.687,3.053,5.626,4.688-3.958,3.735-3.958,3.735-7.339,1.277-.056-.04-.111-.08-.163-.126a21.8,21.8,0,0,0-15.343-5.7,65.448,65.448,0,0,1-12.45-1.185c-3.6-.636-6.523.072-8.9,2.779-2.573,2.934-5.1,5.911-7.552,8.949-1.8,2.229-3.34,2.828-6.112,1.962-5.731-1.79-11.453-3.614-17.185-5.4q-6.745-2.1-13.51-4.145c-1.272-.383-2.535-.383-3.046,1.164" transform="translate(-70.518 -23.086)" fill="#fff"/>
        <path id="Path_283_-_Outline" data-name="Path 283 - Outline" d="M156.07,69.38a8.424,8.424,0,0,1-2.443-.362c-8.152-2.468-16.43-5.011-24.435-7.47l-6.884-2.114a2.459,2.459,0,0,1-.446-.2,1.479,1.479,0,0,0-.282-.129,2.849,2.849,0,0,1-1.9-1.3,2.565,2.565,0,0,1-.075-2.087A2.271,2.271,0,0,1,121.884,54a4.813,4.813,0,0,1,1.382.233c4.236,1.276,8.657,2.632,13.514,4.147,2.969.926,5.985,1.877,8.9,2.8,2.714.856,5.521,1.742,8.284,2.6a6.762,6.762,0,0,0,1.994.357c1.326,0,2.329-.6,3.579-2.155,2.27-2.817,4.745-5.749,7.565-8.965a8.79,8.79,0,0,1,6.951-3.167,13.954,13.954,0,0,1,2.409.225,66.485,66.485,0,0,0,11.59,1.184c.256,0,.513,0,.764-.007A22.289,22.289,0,0,1,204.5,57.078c.032.028.075.059.119.091l.008.006c1.432,1.041,2.22,1.614,2.874,1.614.752,0,1.678-.824,3.421-2.466-.383-.325-.76-.648-1.129-.963-1.38-1.179-2.683-2.293-4.052-3.35a3.3,3.3,0,0,0-1.636-.344c-.434-.014-.9-.021-1.419-.021-.654,0-1.321.011-1.966.021-.436.007-.886.014-1.33.018h-.041a2.555,2.555,0,0,1-2.777-2.77c-.051-2.652-.044-5.242-.03-7.426a2.562,2.562,0,0,1,2.862-2.732h.785c1.433,0,2.89.008,4.3.017s2.862.017,4.292.017l1.331,0h.018a2.714,2.714,0,0,1,2.174.871,1.915,1.915,0,0,1,.359,1.658,3.545,3.545,0,0,1-2.508,2.373,26.936,26.936,0,0,1-3.336.18c-1.021,0-2.056-.037-3.058-.073l-.468-.017c-.085,0-.166,0-.241,0a1.556,1.556,0,0,0-1.107.274,1.61,1.61,0,0,0-.265,1.132c.03,1.394.493,1.509,1.007,1.509a2.967,2.967,0,0,0,.494-.047,9.59,9.59,0,0,1,1.612-.143,7.586,7.586,0,0,1,6.333,3.429,21.934,21.934,0,0,0,2.09,2.308c.458.461.931.937,1.374,1.432a4.985,4.985,0,0,1,1.527,3.849,5,5,0,0,1-2.333,3.435c-1.517,1.089-2.89,2.062-4.2,2.974a3.939,3.939,0,0,1-2.278.8,4.009,4.009,0,0,1-2.453-.939c-.972-.741-2-1.45-3-2.136a52.8,52.8,0,0,1-4.328-3.2c-1.8-1.53-3.88-1.661-6.082-1.8-.68-.043-1.383-.087-2.069-.176-3.173-.413-6.431-.639-9.583-.858-1.745-.121-3.55-.247-5.324-.4-.191-.017-.377-.025-.554-.025a3.789,3.789,0,0,0-3.174,1.52c-1.279,1.569-2.6,3.14-3.887,4.659s-2.609,3.092-3.885,4.658a9.26,9.26,0,0,1-3.093,2.459A8.731,8.731,0,0,1,156.07,69.38ZM121.884,55a1.286,1.286,0,0,0-1.334,1.033,1.622,1.622,0,0,0,0,1.3,1.919,1.919,0,0,0,1.279.806,2.25,2.25,0,0,1,.5.216,1.674,1.674,0,0,0,.267.125l6.884,2.114c8,2.459,16.281,5,24.431,7.469a7.425,7.425,0,0,0,2.153.32,7.725,7.725,0,0,0,3.364-.787,8.254,8.254,0,0,0,2.757-2.192c1.282-1.572,2.611-3.147,3.9-4.67s2.6-3.084,3.876-4.646a4.828,4.828,0,0,1,3.95-1.888c.206,0,.421.01.641.029,1.765.155,3.565.28,5.305.4,3.166.22,6.44.447,9.642.864.653.085,1.34.128,2,.17,2.268.143,4.613.291,6.667,2.035a52.056,52.056,0,0,0,4.247,3.134c1.008.693,2.051,1.409,3.043,2.165a3.059,3.059,0,0,0,1.847.735,2.982,2.982,0,0,0,1.706-.621c1.3-.909,2.673-1.879,4.187-2.966a4.065,4.065,0,0,0,1.923-2.732,4.049,4.049,0,0,0-1.278-3.073c-.425-.475-.889-.942-1.338-1.394a23.017,23.017,0,0,1-2.182-2.415,6.647,6.647,0,0,0-5.532-3.026,8.587,8.587,0,0,0-1.443.129,3.961,3.961,0,0,1-.663.062,1.786,1.786,0,0,1-1.554-.717,3.1,3.1,0,0,1-.453-1.771,2.432,2.432,0,0,1,.55-1.854,2.468,2.468,0,0,1,1.822-.575c.087,0,.179,0,.276.005l.469.017c.992.036,2.018.073,3.022.073a25.972,25.972,0,0,0,3.214-.172,2.677,2.677,0,0,0,1.651-1.588.937.937,0,0,0-.157-.821,1.783,1.783,0,0,0-1.4-.5h-.014l-1.335,0c-1.433,0-2.89-.008-4.3-.017s-2.862-.017-4.293-.017h-.783c-1.265,0-1.857.555-1.865,1.738-.014,2.178-.021,4.76.03,7.4.023,1.22.588,1.789,1.777,1.789h.033c.44,0,.889-.011,1.323-.018.649-.01,1.32-.021,1.982-.021.531,0,1.006.007,1.451.021a3.844,3.844,0,0,1,2.215.552c1.388,1.072,2.7,2.194,4.091,3.381.5.431,1.026.877,1.552,1.32l.428.361-.408.385c-2.272,2.144-3.308,3.122-4.514,3.122-.98,0-1.861-.641-3.461-1.8l-.008-.006c-.058-.042-.124-.09-.19-.148a21.322,21.322,0,0,0-15.006-5.576c-.257,0-.52.007-.782.007a67.439,67.439,0,0,1-11.764-1.2,12.957,12.957,0,0,0-2.236-.21,8.086,8.086,0,0,0-3.354.668,8.192,8.192,0,0,0-2.845,2.159c-2.811,3.205-5.277,6.127-7.538,8.933-1.428,1.772-2.732,2.528-4.358,2.528a7.727,7.727,0,0,1-2.292-.4c-2.764-.863-5.571-1.749-8.287-2.605-2.916-.92-5.93-1.871-8.9-2.8-4.854-1.514-9.272-2.869-13.505-4.144A3.848,3.848,0,0,0,121.884,55Z" transform="translate(-70.518 -23.086)" fill="#fff"/>
        <path id="Path_284" data-name="Path 284" d="M373.57,188.864a14.221,14.221,0,0,0,4.478,9.211,14.776,14.776,0,0,0,16.789,2.26c4.29-2.142,8.595-8.333,7.481-14.942-1.511-8.963-10.53-14.666-18.975-11.492-1.849.695-3.1.778-4.554-.564-.975-.9-2.356-1.208-3.259.029s-.411,2.389.84,3.326c3.61,2.7,7.164,5.481,10.833,8.3-1.33,3.446-1.432,3.476-4.554,2.036-2.545-1.174-5.067-2.422-7.69-3.392a2.766,2.766,0,0,0-2.556.626c-.387.593.047,1.8.282,2.7.175.669.828,1.251.885,1.9m9.942,3.17c2.589,1.126,4.03.695,5.617-1.63,3.931-5.757,3.786-6.554-1.856-10.634-.7-.506-1.327-1.111-2.016-1.694,2.4-1.57,6.48-.9,9.148,1.415a10.441,10.441,0,0,1,3.056,12.237c-1.812,4.033-6.712,6.8-10.916,6.028-3.568-.655-7.624-3.132-8.3-8.105,1.946.882,3.6,1.656,5.269,2.383" transform="translate(-218.902 -101.466)" fill="#fff"/>
        <path id="Path_284_-_Outline" data-name="Path 284 - Outline" d="M387.944,202.463h0a14.86,14.86,0,0,1-14.871-13.556,2.172,2.172,0,0,0-.379-.813,3.7,3.7,0,0,1-.492-1.009c-.033-.127-.071-.261-.111-.4-.263-.936-.56-2-.106-2.692a3.048,3.048,0,0,1,2.351-.946,2.31,2.31,0,0,1,.8.125c2.1.778,4.166,1.744,6.161,2.678.513.24,1.043.488,1.565.729a7.6,7.6,0,0,0,2.314.853c.456,0,.735-.493,1.428-2.267-.945-.727-1.89-1.457-2.808-2.165-2.645-2.042-5.143-3.971-7.724-5.9-1.594-1.194-1.939-2.66-.944-4.021a2.286,2.286,0,0,1,1.895-1.024,3.179,3.179,0,0,1,2.108.922,2.931,2.931,0,0,0,2.056.924,5.758,5.758,0,0,0,1.983-.46,14.176,14.176,0,0,1,5-.918,14.565,14.565,0,0,1,9.484,3.589,15.585,15.585,0,0,1,5.158,9.207,13.64,13.64,0,0,1-.1,5,15.534,15.534,0,0,1-1.672,4.468,14.774,14.774,0,0,1-5.98,6A16.016,16.016,0,0,1,387.944,202.463Zm-13.608-18.419a2.242,2.242,0,0,0-1.514.493c-.206.316.057,1.254.231,1.875.041.146.08.284.115.42a2.945,2.945,0,0,0,.374.734,2.922,2.922,0,0,1,.526,1.254,13.86,13.86,0,0,0,13.875,12.643,15.011,15.011,0,0,0,6.67-1.576,13.756,13.756,0,0,0,5.554-5.592,13.512,13.512,0,0,0,1.658-8.819A14.583,14.583,0,0,0,397,176.861a13.565,13.565,0,0,0-8.831-3.346,13.179,13.179,0,0,0-4.65.854,6.663,6.663,0,0,1-2.335.524,3.905,3.905,0,0,1-2.734-1.189,2.226,2.226,0,0,0-1.43-.658,1.322,1.322,0,0,0-1.087.614c-.243.333-.982,1.345.736,2.631,2.587,1.938,5.088,3.869,7.735,5.913,1.013.782,2.061,1.591,3.1,2.392l.3.228-.135.349c-.81,2.1-1.256,3.255-2.5,3.255a7.539,7.539,0,0,1-2.733-.945c-.524-.242-1.056-.491-1.57-.731-1.976-.925-4.02-1.882-6.084-2.645A1.375,1.375,0,0,0,374.336,184.044Zm13.657,14.341a8.545,8.545,0,0,1-1.539-.138c-3.741-.687-7.993-3.288-8.707-8.529l-.122-.9.824.374c.626.284,1.221.556,1.8.82,1.2.55,2.335,1.069,3.466,1.56a5.556,5.556,0,0,0,2.144.554c1.059,0,1.887-.582,2.861-2.007,1.919-2.811,2.8-4.362,2.582-5.578s-1.562-2.376-4.318-4.369c-.5-.359-.96-.768-1.409-1.163-.207-.183-.422-.372-.637-.554l-.512-.434.562-.367a6.3,6.3,0,0,1,3.456-.933,9.9,9.9,0,0,1,6.293,2.389,11.753,11.753,0,0,1,3.78,6.021,10.329,10.329,0,0,1-.6,6.8,11.055,11.055,0,0,1-4.086,4.635A10.941,10.941,0,0,1,387.993,198.385Zm-9.082-7.881c.987,4.1,4.556,6.179,7.724,6.76a7.546,7.546,0,0,0,1.358.121,9.932,9.932,0,0,0,5.294-1.657A10.045,10.045,0,0,0,397,191.522a9.338,9.338,0,0,0,.538-6.146,10.759,10.759,0,0,0-3.465-5.507,8.875,8.875,0,0,0-5.638-2.145,5.73,5.73,0,0,0-2.31.447l.1.091c.451.4.877.773,1.333,1.1,3.041,2.2,4.444,3.443,4.717,5.007s-.624,3.213-2.741,6.314c-1.169,1.713-2.272,2.444-3.687,2.444h0a6.409,6.409,0,0,1-2.542-.637c-1.139-.5-2.278-1.016-3.483-1.568Z" transform="translate(-218.902 -101.466)" fill="#fff"/>
        <path id="Path_285" data-name="Path 285" d="M347.909,46.909c1.4.119,2.073-.779,2.317-2.1.3-1.608.657-3.2.986-4.807a3.316,3.316,0,0,1,4.568-2.487,132.936,132.936,0,0,1,11.8,6.2c7.689,4.815,12.569,11.62,13.766,20.834.248,1.911-.5,2.471-2.2,2.535-3.483.13-6.985.143-10.44.542a28.885,28.885,0,0,0-13.508,4.99c-1.375.968-1.55,2.553-.506,3.5,1.091.994,2.052.54,3.127-.143,6.7-4.253,14.073-5.35,21.818-4.493,2.6.288,6.188-2.807,6.1-6.545a32.684,32.684,0,0,0-8.168-18.411C372.61,41,366.1,37.816,359.619,34.484c-3.8-1.95-7.036-2.029-10.4.384a4.044,4.044,0,0,0-1.644,1.916c-.619,2.51-1.032,5.075-1.441,7.633a1.908,1.908,0,0,0,1.771,2.493" transform="translate(-203.521 -19.428)" fill="#fff"/>
        <path id="Path_285_-_Outline" data-name="Path 285 - Outline" d="M356,77.2a2.4,2.4,0,0,1-1.649-.707,2.463,2.463,0,0,1-.831-2,3.081,3.081,0,0,1,1.385-2.278,29.428,29.428,0,0,1,13.738-5.077c2.673-.309,5.406-.389,8.05-.467.8-.023,1.621-.048,2.429-.078a2.071,2.071,0,0,0,1.518-.453,2,2,0,0,0,.2-1.517,27.232,27.232,0,0,0-4.367-11.851,30.253,30.253,0,0,0-9.169-8.623,105.27,105.27,0,0,0-9.685-5.156c-.679-.332-1.381-.675-2.07-1.015a2.4,2.4,0,0,0-1.071-.252,2.954,2.954,0,0,0-2.786,2.391c-.111.541-.227,1.089-.339,1.62-.22,1.041-.448,2.117-.645,3.178a3.55,3.55,0,0,1-.78,1.761,2.3,2.3,0,0,1-1.785.754c-.094,0-.189,0-.286-.012a2.438,2.438,0,0,1-1.777-.875,2.771,2.771,0,0,1-.445-2.2c.382-2.39.814-5.1,1.449-7.674a4.293,4.293,0,0,1,1.838-2.2,9.258,9.258,0,0,1,5.507-1.924,11.842,11.842,0,0,1,5.41,1.5l.924.474c6.089,3.122,12.385,6.35,17.173,11.681a32.908,32.908,0,0,1,5.785,9.063,33.467,33.467,0,0,1,2.509,9.629l0,.042A7.137,7.137,0,0,1,384.125,70a6.129,6.129,0,0,1-4.145,2,3.637,3.637,0,0,1-.4-.022,42.822,42.822,0,0,0-4.686-.267,33.356,33.356,0,0,0-8.672,1.1,29.465,29.465,0,0,0-8.137,3.587A4.059,4.059,0,0,1,356,77.2Zm-1.516-40.48a3.387,3.387,0,0,1,1.514.356c.687.339,1.388.682,2.066,1.013a106.019,106.019,0,0,1,9.777,5.207,31.245,31.245,0,0,1,9.467,8.912,28.222,28.222,0,0,1,4.53,12.282,2.826,2.826,0,0,1-.433,2.292,2.992,2.992,0,0,1-2.245.807c-.812.03-1.638.055-2.437.078-2.622.077-5.334.157-7.964.461a28.44,28.44,0,0,0-13.277,4.9,2.094,2.094,0,0,0-.963,1.523,1.481,1.481,0,0,0,.506,1.2A1.433,1.433,0,0,0,356,76.2a3.175,3.175,0,0,0,1.546-.641,30.464,30.464,0,0,1,8.413-3.708,34.355,34.355,0,0,1,8.932-1.133,43.824,43.824,0,0,1,4.8.273,2.633,2.633,0,0,0,.288.016,5.127,5.127,0,0,0,3.43-1.7,6.139,6.139,0,0,0,1.831-4.329,32.467,32.467,0,0,0-2.431-9.32,31.91,31.91,0,0,0-5.61-8.789,37.2,37.2,0,0,0-7.867-6.483c-2.875-1.827-6-3.428-9.018-4.976l-.924-.474a10.881,10.881,0,0,0-4.953-1.391,8.3,8.3,0,0,0-4.924,1.736,3.531,3.531,0,0,0-1.45,1.629c-.625,2.534-1.035,5.105-1.432,7.592a1.867,1.867,0,0,0,.245,1.422,1.454,1.454,0,0,0,1.075.494c.068.006.136.009.2.009h0c.544,0,1.3-.176,1.582-1.7.2-1.073.428-2.156.65-3.2.112-.529.228-1.076.338-1.614A3.97,3.97,0,0,1,354.488,36.717Z" transform="translate(-203.521 -19.428)" fill="#fff"/>
        <path id="Path_286" data-name="Path 286" d="M102.78,187.44c-1.593.618-3.127,1.391-4.732,1.974-.458.166-1.355.105-1.562-.192-1-1.428-1.824-2.973-2.726-4.5,2.812-2.133,5.389-4.059,7.932-6.028,1.1-.85,1.979-1.925.888-3.289-1-1.254-2.233-1.036-3.432-.112-2.764,2.129-5.562,4.215-8.319,6.353a3.417,3.417,0,0,0-1.034,4.717c.6,1.151,1.309,2.248,1.982,3.362,3,4.962,3,4.961,8.763,3.6-1.974,3.287-4.593,4.989-7.945,5.292a10.186,10.186,0,0,1-11.265-9.729c-.242-5.151,3.2-10.234,9.822-10.822,1.428-.127,2.523-.517,2.505-2.053-.019-1.7-1.265-2.017-2.737-2a14.266,14.266,0,0,0-13.567,16.927,14.436,14.436,0,0,0,14.824,11.9,14.629,14.629,0,0,0,13.813-12.795c.239-2.282-1.092-3.427-3.21-2.606" transform="translate(-45.351 -102.33)" fill="#fff"/>
        <path id="Path_286_-_Outline" data-name="Path 286 - Outline" d="M91.755,203.347h0A15.341,15.341,0,0,1,82,199.893a14.778,14.778,0,0,1-5.144-8.864,15.227,15.227,0,0,1,.293-6.714,14.651,14.651,0,0,1,2.878-5.5,14.981,14.981,0,0,1,4.868-3.842,14.087,14.087,0,0,1,6.015-1.455h.114c.767,0,3.1,0,3.128,2.495a2.2,2.2,0,0,1-.93,1.974,4.184,4.184,0,0,1-2.031.582,10.209,10.209,0,0,0-7.147,3.522,9.816,9.816,0,0,0-2.22,6.778,9.66,9.66,0,0,0,9.769,9.3c.315,0,.635-.015.952-.043a9.172,9.172,0,0,0,6.882-4.021,15.128,15.128,0,0,1-3.147.5,3.26,3.26,0,0,1-2.578-1.123,22.2,22.2,0,0,1-2.357-3.494q-.243-.4-.49-.8c-.512-.835-1.041-1.7-1.506-2.585a3.912,3.912,0,0,1,1.17-5.345c1.5-1.167,3.046-2.336,4.536-3.467,1.243-.943,2.528-1.919,3.784-2.887a3.575,3.575,0,0,1,2.138-.865,2.5,2.5,0,0,1,1.99,1.061,2.374,2.374,0,0,1,.594,1.783A3.622,3.622,0,0,1,102,179.089c-1.794,1.389-3.594,2.749-5.5,4.189q-1.022.772-2.082,1.574c.161.277.321.554.477.824.654,1.135,1.272,2.207,1.986,3.235a1.316,1.316,0,0,0,.55.093,1.438,1.438,0,0,0,.449-.061c.866-.314,1.732-.7,2.571-1.063.7-.307,1.422-.625,2.151-.907a4.043,4.043,0,0,1,1.45-.3,2.308,2.308,0,0,1,1.771.743,3.381,3.381,0,0,1,.666,2.68,14.628,14.628,0,0,1-4.948,9.425,15.044,15.044,0,0,1-9.35,3.817C92.044,203.345,91.9,203.347,91.755,203.347Zm-.726-28.832h-.1a13.081,13.081,0,0,0-5.585,1.353,13.863,13.863,0,0,0-7.5,14.988,13.777,13.777,0,0,0,4.795,8.264,14.338,14.338,0,0,0,9.114,3.226c.138,0,.271,0,.409-.006a14.029,14.029,0,0,0,8.715-3.567,13.63,13.63,0,0,0,4.615-8.78,2.474,2.474,0,0,0-.415-1.907,1.319,1.319,0,0,0-1.028-.413,3.057,3.057,0,0,0-1.089.231c-.708.274-1.421.587-2.11.89-.853.375-1.735.762-2.631,1.088a2.4,2.4,0,0,1-.79.121,1.726,1.726,0,0,1-1.353-.5c-.747-1.071-1.409-2.221-2.05-3.333-.227-.394-.461-.8-.7-1.2l-.226-.383.355-.269q1.247-.946,2.437-1.843c1.9-1.438,3.7-2.8,5.491-4.181a2.644,2.644,0,0,0,1.186-1.541,1.4,1.4,0,0,0-.382-1.041,1.538,1.538,0,0,0-1.209-.685,2.631,2.631,0,0,0-1.527.657c-1.259.97-2.546,1.947-3.79,2.891-1.488,1.13-3.027,2.3-4.528,3.461a2.919,2.919,0,0,0-.9,4.09c.45.858.97,1.706,1.473,2.527q.248.4.494.809c2.02,3.345,2.555,4.135,4.079,4.135a21.485,21.485,0,0,0,4.138-.759l1.153-.272-.608,1.015c-2.043,3.4-4.767,5.21-8.329,5.532-.346.031-.7.047-1.041.047a10.834,10.834,0,0,1-8.317-17.716,11.186,11.186,0,0,1,7.826-3.878c1.525-.135,2.061-.541,2.05-1.549C93.143,174.767,92.333,174.515,91.029,174.515Z" transform="translate(-45.351 -102.33)" fill="#fff"/>
      </g>
    </g>
  </g>
</svg>
