<svg id="Group_68" data-name="Group 68" xmlns="http://www.w3.org/2000/svg" xmlns:xlink="http://www.w3.org/1999/xlink" width="67.917" height="67.906" viewBox="0 0 67.917 67.906">
  <defs>
    <clipPath id="clip-path">
      <rect id="Rectangle_38" data-name="Rectangle 38" width="67.917" height="67.906" fill="#fff"/>
    </clipPath>
  </defs>
  <g id="Group_67" data-name="Group 67" transform="translate(0)" clip-path="url(#clip-path)">
    <path id="Path_145" data-name="Path 145" d="M13.52,67.964a13.492,13.492,0,0,1-4.324-.71,1.066,1.066,0,0,1-.5-1.65l5.347-7.123L9.489,53.927,2.366,59.3a1.066,1.066,0,0,1-1.65-.5A13.4,13.4,0,0,1,3.953,44.966a12.135,12.135,0,0,1,11.488-3.321,5.714,5.714,0,0,0,5.264-1.5L40.068,20.778a5.7,5.7,0,0,0,1.5-5.264A12.135,12.135,0,0,1,44.893,4.026,13.4,13.4,0,0,1,58.721.789a1.066,1.066,0,0,1,.5,1.65L53.875,9.562l4.554,4.554,7.123-5.368a1.066,1.066,0,0,1,1.65.5,13.4,13.4,0,0,1-3.238,13.828,12.144,12.144,0,0,1-8.648,3.614,13.636,13.636,0,0,1-2.862-.313,5.714,5.714,0,0,0-5.264,1.5L27.828,47.243a5.7,5.7,0,0,0-1.5,5.264A12.135,12.135,0,0,1,23,64a13.35,13.35,0,0,1-9.483,3.969m-2.214-2.339A11.312,11.312,0,0,0,21.5,62.512a10.092,10.092,0,0,0,2.757-9.546,7.819,7.819,0,0,1,2.089-7.206L45.708,26.4a7.819,7.819,0,0,1,7.206-2.089,10.092,10.092,0,0,0,9.546-2.757,11.239,11.239,0,0,0,3.112-10.193l-6.6,4.971a1.05,1.05,0,0,1-1.379-.1l-5.849-5.849A1.052,1.052,0,0,1,51.64,9l4.971-6.6A11.3,11.3,0,0,0,46.418,5.509a10.092,10.092,0,0,0-2.757,9.546,7.819,7.819,0,0,1-2.089,7.206L22.209,41.624A7.819,7.819,0,0,1,15,43.713,10.092,10.092,0,0,0,5.457,46.47,11.239,11.239,0,0,0,2.345,56.663l6.6-4.971a1.05,1.05,0,0,1,1.379.1l5.849,5.849a1.052,1.052,0,0,1,.1,1.379Z" transform="translate(0 -0.058)" fill="#fff"/>
    <path id="Path_146" data-name="Path 146" d="M34.914,42.272H29.525a1.006,1.006,0,0,1-.877-.48l-2.674-4.01a1.079,1.079,0,0,1,0-1.17l2.695-4.031a1.053,1.053,0,0,1,.877-.48h5.368a1.006,1.006,0,0,1,.877.48l2.695,4.031a1.079,1.079,0,0,1,0,1.17l-2.695,4.031a1.061,1.061,0,0,1-.877.46m-4.8-2.11h4.219L36.314,37.2l-1.984-2.966h-4.24L28.1,37.2Z" transform="translate(-20.413 -25.395)" fill="#fff"/>
    <path id="Path_147" data-name="Path 147" d="M180.733,192.408a11.8,11.8,0,0,1-11.8-11.8,11.667,11.667,0,0,1,.689-3.969L157.84,164.857a1.063,1.063,0,0,1,1.5-1.5l12.282,12.282a1.063,1.063,0,0,1,.23,1.17,9.547,9.547,0,0,0-.773,3.822,9.671,9.671,0,1,0,9.671-9.671,10,10,0,0,0-3.822.773,1.063,1.063,0,0,1-1.17-.23L163.48,159.217a1.063,1.063,0,1,1,1.5-1.5l11.781,11.781a11.668,11.668,0,0,1,3.969-.689,11.8,11.8,0,0,1,0,23.6" transform="translate(-124.623 -124.523)" fill="#fff"/>
    <path id="Path_148" data-name="Path 148" d="M28.33,35.008a1.06,1.06,0,0,1-.752-.313L15.8,22.914a11.668,11.668,0,0,1-3.969.689,11.8,11.8,0,1,1,11.8-11.8,11.668,11.668,0,0,1-.689,3.969L34.722,27.551a1.063,1.063,0,1,1-1.5,1.5L20.936,16.773a1.063,1.063,0,0,1-.23-1.17,9.547,9.547,0,0,0,.773-3.822,9.671,9.671,0,1,0-9.671,9.671,10,10,0,0,0,3.822-.773,1.063,1.063,0,0,1,1.17.23L29.082,33.191a1.065,1.065,0,0,1-.752,1.817" transform="translate(-0.021)" fill="#fff"/>
    <path id="Path_149" data-name="Path 149" d="M246.914,254.372h-5.368a1.006,1.006,0,0,1-.877-.48l-2.695-4.01a1.079,1.079,0,0,1,0-1.17l2.695-4.031a1.053,1.053,0,0,1,.877-.48h5.368a1.006,1.006,0,0,1,.877.48l2.695,4.031a1.079,1.079,0,0,1,0,1.17l-2.695,4.031a1.034,1.034,0,0,1-.877.46m-4.8-2.131h4.24l1.984-2.966-1.984-2.966h-4.24l-1.984,2.966Z" transform="translate(-188.13 -193.192)" fill="#fff"/>
  </g>
</svg>
